Arimo-Bold.ufo
<glyph name="exclam" format="2">
  <advance width="682"/>
  <unicode hex="0021"/>
  <note>
exclam
</note>
  <outline>
    <contour>
      <point x="455" y="426" type="line"/>
      <point x="487" y="1409" type="line"/>
      <point x="193" y="1409" type="line"/>
      <point x="225" y="426" type="line"/>
    </contour>
    <contour>
      <point x="193" y="0" type="line"/>
      <point x="481" y="0" type="line"/>
      <point x="481" y="270" type="line"/>
      <point x="193" y="270" type="line"/>
    </contour>
  </outline>
</glyph>
<glyph name="dollar" format="2">
  <advance width="1139"/>
  <unicode hex="0024"/>
  <note>
dollar
</note>
  <outline>
    <contour>
      <point x="1110" y="412" type="curve"/>
      <point x="1110" y="412" type="line"/>
      <point x="1110" y="600"/>
      <point x="1013.167" y="724"/>
      <point x="816.5" y="788" type="curve" smooth="yes"/>
      <point x="718.167" y="820"/>
      <point x="659.333" y="836"/>
      <point x="640" y="836" type="curve"/>
      <point x="629" y="838" type="line"/>
      <point x="629" y="1190" type="line"/>
      <point x="735.667" y="1175.333"/>
      <point x="791" y="1113"/>
      <point x="811" y="997" type="curve"/>
      <point x="1075" y="1036" type="line"/>
      <point x="1031" y="1210.667"/>
      <point x="964.167" y="1295.833"/>
      <point x="847.5" y="1344.5" type="curve" smooth="yes"/>
      <point x="789.167" y="1368.833"/>
      <point x="716.333" y="1382.667"/>
      <point x="629" y="1386" type="curve"/>
      <point x="629" y="1520" type="line"/>
      <point x="520" y="1520" type="line"/>
      <point x="520" y="1386" type="line"/>
      <point x="228" y="1375.333"/>
      <point x="72" y="1251.333"/>
      <point x="72" y="1030" type="curve" smooth="yes"/>
      <point x="72" y="880.667"/>
      <point x="134.5" y="779.833"/>
      <point x="244.5" y="712.5" type="curve" smooth="yes"/>
      <point x="299.5" y="678.833"/>
      <point x="381" y="649.667"/>
      <point x="489" y="625" type="curve"/>
      <point x="494.333" y="625"/>
      <point x="516" y="620.667"/>
      <point x="520" y="618" type="curve"/>
      <point x="520" y="227" type="line"/>
      <point x="380" y="240.333"/>
      <point x="308.333" y="304.333"/>
      <point x="283" y="455" type="curve"/>
      <point x="27" y="408" type="line"/>
      <point x="77.667" y="150.667"/>
      <point x="233.333" y="30.667"/>
      <point x="520" y="20" type="curve"/>
      <point x="520" y="-152" type="line"/>
      <point x="629" y="-152" type="line"/>
      <point x="629" y="23" type="line"/>
      <point x="946.333" y="35"/>
      <point x="1110" y="170.667"/>
    </contour>
    <contour>
      <point x="520" y="1194" type="curve"/>
      <point x="520" y="1194" type="line"/>
      <point x="520" y="862" type="line"/>
      <point x="422.437" y="894.521"/>
      <point x="374.952" y="913.381"/>
      <point x="349.5" y="961" type="curve" smooth="yes"/>
      <point x="339.167" y="980.333"/>
      <point x="334" y="1004.667"/>
      <point x="334" y="1034" type="curve" smooth="yes"/>
      <point x="334" y="1131.333"/>
      <point x="396" y="1184.667"/>
    </contour>
    <contour>
      <point x="850" y="408" type="curve"/>
      <point x="850" y="408" type="line"/>
      <point x="850" y="297.333"/>
      <point x="776.333" y="237"/>
      <point x="629" y="227" type="curve"/>
      <point x="629" y="594" type="line"/>
      <point x="706.333" y="572"/>
      <point x="756.5" y="554.333"/>
      <point x="779.5" y="541" type="curve" smooth="yes"/>
      <point x="825.5" y="514.333"/>
      <point x="850" y="474.667"/>
    </contour>
  </outline>
</glyph>
<glyph name="percent" format="2">
  <advance width="1821"/>
  <unicode hex="0025"/>
  <note>
percent
</note>
  <outline>
    <contour>
      <point x="1767" y="432" type="curve"/>
      <point x="1767" y="432" type="line"/>
      <point x="1767" y="728"/>
      <point x="1657" y="881"/>
      <point x="1417" y="881" type="curve" smooth="yes"/>
      <point x="1169" y="881"/>
      <point x="1059" y="730.667"/>
      <point x="1059" y="432" type="curve" smooth="yes"/>
      <point x="1059" y="138.667"/>
      <point x="1178.333" y="-16"/>
      <point x="1413" y="-16" type="curve" smooth="yes"/>
      <point x="1645" y="-16"/>
      <point x="1767" y="141.333"/>
    </contour>
    <contour>
      <point x="552" y="0" type="line"/>
      <point x="552" y="0" type="line"/>
      <point x="1475" y="1409" type="line"/>
      <point x="1266" y="1409" type="line"/>
      <point x="346" y="0" type="line"/>
    </contour>
    <contour>
      <point x="408" y="1425" type="curve"/>
      <point x="408" y="1425" type="line"/>
      <point x="161.333" y="1425"/>
      <point x="51" y="1279.667"/>
      <point x="51" y="977" type="curve" smooth="yes"/>
      <point x="51" y="683.667"/>
      <point x="171" y="528"/>
      <point x="403" y="528" type="curve" smooth="yes"/>
      <point x="637.667" y="528"/>
      <point x="760" y="686.333"/>
      <point x="760" y="977" type="curve" smooth="yes"/>
      <point x="760" y="1273"/>
      <point x="646.667" y="1425"/>
    </contour>
    <contour>
      <point x="1552" y="432" type="curve"/>
      <point x="1552" y="432" type="line"/>
      <point x="1552" y="328.667"/>
      <point x="1541.333" y="254.333"/>
      <point x="1520" y="209" type="curve" smooth="yes"/>
      <point x="1498.667" y="163.667"/>
      <point x="1463.667" y="141"/>
      <point x="1415" y="141" type="curve" smooth="yes"/>
      <point x="1365" y="141"/>
      <point x="1329.333" y="162.833"/>
      <point x="1308" y="206.5" type="curve" smooth="yes"/>
      <point x="1286.667" y="250.167"/>
      <point x="1276" y="325.333"/>
      <point x="1276" y="432" type="curve" smooth="yes"/>
      <point x="1276" y="536.667"/>
      <point x="1286.167" y="612"/>
      <point x="1306.5" y="658" type="curve" smooth="yes"/>
      <point x="1326.833" y="704"/>
      <point x="1363.667" y="727"/>
      <point x="1417" y="727" type="curve" smooth="yes"/>
      <point x="1466.333" y="727"/>
      <point x="1501.167" y="704.333"/>
      <point x="1521.5" y="659" type="curve" smooth="yes"/>
      <point x="1541.833" y="613.667"/>
      <point x="1552" y="538"/>
    </contour>
    <contour>
      <point x="543" y="977" type="curve"/>
      <point x="543" y="977" type="line"/>
      <point x="543" y="872.333"/>
      <point x="532.5" y="797.333"/>
      <point x="511.5" y="752" type="curve" smooth="yes"/>
      <point x="490.5" y="706.667"/>
      <point x="455.333" y="684"/>
      <point x="406" y="684" type="curve" smooth="yes"/>
      <point x="356" y="684"/>
      <point x="320.167" y="706.5"/>
      <point x="298.5" y="751.5" type="curve" smooth="yes"/>
      <point x="276.833" y="796.5"/>
      <point x="266" y="871.667"/>
      <point x="266" y="977" type="curve" smooth="yes"/>
      <point x="266" y="1082.333"/>
      <point x="276.333" y="1157.5"/>
      <point x="297" y="1202.5" type="curve" smooth="yes"/>
      <point x="317.667" y="1247.5"/>
      <point x="354.667" y="1270"/>
      <point x="408" y="1270" type="curve" smooth="yes"/>
      <point x="457.333" y="1270"/>
      <point x="492.167" y="1247.333"/>
      <point x="512.5" y="1202" type="curve" smooth="yes"/>
      <point x="532.833" y="1156.667"/>
      <point x="543" y="1081.667"/>
    </contour>
  </outline>
</glyph>
<glyph name="ampersand" format="2">
  <advance width="1479"/>
  <unicode hex="0026"/>
  <note>
ampersand
</note>
  <outline>
    <contour>
      <point x="90" y="385" type="qcurve" smooth="yes"/>
      <point x="90" y="193"/>
      <point x="344" y="-20"/>
      <point x="575" y="-20" type="qcurve" smooth="yes"/>
      <point x="784" y="-20"/>
      <point x="954" y="109" type="qcurve"/>
      <point x="1025" y="50"/>
      <point x="1198" y="-12"/>
      <point x="1284" y="-12" type="qcurve" smooth="yes"/>
      <point x="1360" y="-12"/>
      <point x="1415" y="10" type="qcurve"/>
      <point x="1415" y="213" type="line"/>
      <point x="1363" y="197"/>
      <point x="1298" y="197" type="qcurve" smooth="yes"/>
      <point x="1206" y="197"/>
      <point x="1120" y="270" type="qcurve"/>
      <point x="1245" y="457"/>
      <point x="1313" y="690" type="qcurve"/>
      <point x="1104" y="760" type="line"/>
      <point x="1050" y="555"/>
      <point x="946" y="397" type="qcurve"/>
      <point x="801" y="558"/>
      <point x="702" y="733" type="qcurve"/>
      <point x="873" y="813"/>
      <point x="1016" y="919"/>
      <point x="1094" y="1043"/>
      <point x="1094" y="1120" type="qcurve" smooth="yes"/>
      <point x="1094" y="1257"/>
      <point x="899" y="1417"/>
      <point x="731" y="1417" type="qcurve" smooth="yes"/>
      <point x="550" y="1417"/>
      <point x="354" y="1248"/>
      <point x="354" y="1092" type="qcurve" smooth="yes"/>
      <point x="354" y="963"/>
      <point x="428" y="813" type="qcurve"/>
      <point x="252" y="731"/>
      <point x="90" y="520"/>
    </contour>
    <contour>
      <point x="870" y="1118" type="qcurve" smooth="yes"/>
      <point x="870" y="1074"/>
      <point x="821" y="1004"/>
      <point x="730" y="942"/>
      <point x="625" y="897" type="qcurve"/>
      <point x="571" y="1003"/>
      <point x="571" y="1090" type="qcurve" smooth="yes"/>
      <point x="571" y="1161"/>
      <point x="652" y="1247"/>
      <point x="729" y="1247" type="qcurve" smooth="yes"/>
      <point x="794" y="1247"/>
      <point x="870" y="1175"/>
    </contour>
    <contour>
      <point x="788" y="246" type="qcurve"/>
      <point x="756" y="218"/>
      <point x="651" y="170"/>
      <point x="586" y="170" type="qcurve" smooth="yes"/>
      <point x="474" y="170"/>
      <point x="344" y="290"/>
      <point x="344" y="389" type="qcurve" smooth="yes"/>
      <point x="344" y="542"/>
      <point x="516" y="623" type="qcurve"/>
      <point x="622" y="431"/>
    </contour>
  </outline>
</glyph>
<glyph name="quotesingle" format="2">
  <advance width="487"/>
  <unicode hex="0027"/>
  <note>
quotesingle
</note>
  <outline>
    <contour>
      <point x="354" y="898" type="line"/>
      <point x="381" y="1409" type="line"/>
      <point x="109" y="1409" type="line"/>
      <point x="135" y="898" type="line"/>
    </contour>
  </outline>
</glyph>
<glyph name="parenleft" format="2">
  <advance width="682"/>
  <unicode hex="0028"/>
  <note>
parenleft
</note>
  <outline>
    <contour>
      <point x="399" y="-425" type="qcurve"/>
      <point x="680" y="-425" type="line"/>
      <point x="521" y="-192"/>
      <point x="379" y="257"/>
      <point x="379" y="530" type="qcurve" smooth="yes"/>
      <point x="379" y="804"/>
      <point x="522" y="1256"/>
      <point x="680" y="1484" type="qcurve"/>
      <point x="399" y="1484" type="line"/>
      <point x="242" y="1259"/>
      <point x="102" y="810"/>
      <point x="102" y="531" type="qcurve" smooth="yes"/>
      <point x="102" y="251"/>
      <point x="242" y="-199"/>
    </contour>
  </outline>
</glyph>
<glyph name="parenright" format="2">
  <advance width="682"/>
  <unicode hex="0029"/>
  <note>
parenright
</note>
  <outline>
    <contour>
      <point x="2" y="-425" type="qcurve"/>
      <point x="283" y="-425" type="line"/>
      <point x="441" y="-197"/>
      <point x="580" y="253"/>
      <point x="580" y="531" type="qcurve" smooth="yes"/>
      <point x="580" y="807"/>
      <point x="441" y="1257"/>
      <point x="283" y="1484" type="qcurve"/>
      <point x="2" y="1484" type="line"/>
      <point x="159" y="1258"/>
      <point x="303" y="805"/>
      <point x="303" y="530" type="qcurve" smooth="yes"/>
      <point x="303" y="256"/>
      <point x="162" y="-191"/>
    </contour>
  </outline>
</glyph>
<glyph name="comma" format="2">
  <advance width="569"/>
  <unicode hex="002C"/>
  <note>
comma
</note>
  <outline>
    <contour>
      <point x="432" y="66" type="qcurve" smooth="yes"/>
      <point x="432" y="305" type="line"/>
      <point x="143" y="305" type="line"/>
      <point x="143" y="0" type="line"/>
      <point x="272" y="0" type="line"/>
      <point x="272" y="-76"/>
      <point x="198" y="-246"/>
      <point x="139" y="-317" type="qcurve"/>
      <point x="324" y="-317" type="line"/>
      <point x="381" y="-238"/>
      <point x="432" y="-54"/>
    </contour>
  </outline>
</glyph>
<glyph name="hyphen" format="2">
  <advance width="682"/>
  <unicode hex="002D"/>
  <unicode hex="00AD"/>
  <note>
hyphen
</note>
  <outline>
    <contour>
      <point x="80" y="409" type="line"/>
      <point x="600" y="409" type="line"/>
      <point x="600" y="653" type="line"/>
      <point x="80" y="653" type="line"/>
    </contour>
  </outline>
</glyph>
<glyph name="zero" format="2">
  <advance width="1139"/>
  <unicode hex="0030"/>
  <note>
zero
</note>
  <outline>
    <contour>
      <point x="1055" y="705" type="curve"/>
      <point x="1055" y="705" type="line"/>
      <point x="1055" y="1189"/>
      <point x="906.333" y="1430"/>
      <point x="573" y="1430" type="curve" smooth="yes"/>
      <point x="224.67140371760212" y="1430.0"/>
      <point x="81" y="1199"/>
      <point x="81" y="705" type="curve" smooth="yes"/>
      <point x="81" y="222"/>
      <point x="242.333" y="-20"/>
      <point x="565" y="-20" type="curve" smooth="yes"/>
      <point x="891.667" y="-20"/>
      <point x="1055" y="229"/>
    </contour>
    <contour>
      <point x="773" y="705" type="curve"/>
      <point x="773" y="705" type="line"/>
      <point x="773.0" y="342"/>
      <point x="727.3568975241886" y="201.0"/>
      <point x="567" y="201" type="curve" smooth="yes"/>
      <point x="405.3607738480023" y="201.0"/>
      <point x="362.0" y="326"/>
      <point x="362" y="705" type="curve" smooth="yes"/>
      <point x="362" y="1083"/>
      <point x="400.48135756270347" y="1210.0"/>
      <point x="571" y="1210" type="curve" smooth="yes"/>
      <point x="731.0641296734855" y="1210.0"/>
      <point x="773.0" y="1085"/>
    </contour>
  </outline>
</glyph>
<glyph name="one" format="2">
  <advance width="1139"/>
  <unicode hex="0031"/>
  <note>
one
</note>
  <outline>
    <contour>
      <point x="129" y="0" type="line"/>
      <point x="1082" y="0" type="line"/>
      <point x="1082" y="209" type="line"/>
      <point x="759" y="209" type="line"/>
      <point x="759" y="1409" type="line"/>
      <point x="493" y="1409" type="line"/>
      <point x="140" y="1180" type="line"/>
      <point x="140" y="959" type="line"/>
      <point x="478" y="1170" type="line"/>
      <point x="478" y="209" type="line"/>
      <point x="129" y="209" type="line"/>
    </contour>
  </outline>
</glyph>
<glyph name="two" format="2">
  <advance width="1139"/>
  <unicode hex="0032"/>
  <note>
two
</note>
  <outline>
    <contour>
      <point x="71" y="0" type="line"/>
      <point x="1057" y="0" type="line"/>
      <point x="1057" y="231" type="line"/>
      <point x="403" y="231" type="line"/>
      <point x="431" y="296"/>
      <point x="546" y="410"/>
      <point x="686" y="522"/>
      <point x="835" y="640"/>
      <point x="957" y="775"/>
      <point x="1035" y="935"/>
      <point x="1035" y="1034" type="qcurve" smooth="yes"/>
      <point x="1035" y="1222"/>
      <point x="791" y="1430"/>
      <point x="563" y="1430" type="qcurve" smooth="yes"/>
      <point x="352" y="1430"/>
      <point x="107" y="1224"/>
      <point x="83" y="1028" type="qcurve"/>
      <point x="366" y="1012" type="line"/>
      <point x="380" y="1109"/>
      <point x="475" y="1206"/>
      <point x="565" y="1206" type="qcurve" smooth="yes"/>
      <point x="750" y="1206"/>
      <point x="750" y="1022" type="qcurve" smooth="yes"/>
      <point x="750" y="947"/>
      <point x="631" y="791"/>
      <point x="483" y="671" type="qcurve" smooth="yes"/>
      <point x="329" y="546"/>
      <point x="126" y="316"/>
      <point x="71" y="195" type="qcurve"/>
    </contour>
  </outline>
</glyph>
<glyph name="three" format="2">
  <advance width="1139"/>
  <unicode hex="0033"/>
  <note>
three
</note>
  <outline>
    <contour>
      <point x="1065" y="391" type="qcurve" smooth="yes"/>
      <point x="1065" y="527"/>
      <point x="890" y="702"/>
      <point x="728" y="721" type="qcurve"/>
      <point x="728" y="725" type="line"/>
      <point x="874" y="753"/>
      <point x="1029" y="923"/>
      <point x="1029" y="1055" type="qcurve" smooth="yes"/>
      <point x="1029" y="1231"/>
      <point x="780" y="1430"/>
      <point x="559" y="1430" type="qcurve" smooth="yes"/>
      <point x="351" y="1430"/>
      <point x="93" y="1224"/>
      <point x="71" y="1042" type="qcurve"/>
      <point x="352" y="1022" type="line"/>
      <point x="360" y="1110"/>
      <point x="467" y="1206"/>
      <point x="554" y="1206" type="qcurve" smooth="yes"/>
      <point x="647" y="1206"/>
      <point x="744" y="1107"/>
      <point x="744" y="1020" type="qcurve" smooth="yes"/>
      <point x="744" y="928"/>
      <point x="622" y="829"/>
      <point x="501" y="829" type="qcurve" smooth="yes"/>
      <point x="409" y="829" type="line"/>
      <point x="409" y="602" type="line"/>
      <point x="507" y="602" type="line" smooth="yes"/>
      <point x="641" y="602"/>
      <point x="777" y="502"/>
      <point x="777" y="408" type="qcurve" smooth="yes"/>
      <point x="777" y="305"/>
      <point x="665" y="205"/>
      <point x="564" y="205" type="qcurve" smooth="yes"/>
      <point x="360" y="205"/>
      <point x="333" y="408" type="qcurve"/>
      <point x="47" y="383" type="line"/>
      <point x="70" y="186"/>
      <point x="338" y="-23"/>
      <point x="565" y="-23" type="qcurve" smooth="yes"/>
      <point x="805" y="-23"/>
      <point x="1065" y="193"/>
    </contour>
  </outline>
</glyph>
<glyph name="four" format="2">
  <advance width="1139"/>
  <unicode hex="0034"/>
  <note>
four
</note>
  <outline>
    <contour>
      <point x="940" y="287" type="line"/>
      <point x="1128" y="287" type="line"/>
      <point x="1128" y="496" type="line"/>
      <point x="940" y="496" type="line"/>
      <point x="940" y="1409" type="line"/>
      <point x="626" y="1409" type="line"/>
      <point x="31" y="498" type="line"/>
      <point x="31" y="287" type="line"/>
      <point x="672" y="287" type="line"/>
      <point x="672" y="0" type="line"/>
      <point x="940" y="0" type="line"/>
    </contour>
    <contour>
      <point x="672" y="957" type="qcurve" smooth="yes"/>
      <point x="672" y="496" type="line"/>
      <point x="260" y="496" type="line"/>
      <point x="587" y="993" type="line" smooth="yes"/>
      <point x="655" y="1099"/>
      <point x="681" y="1155" type="qcurve"/>
      <point x="679" y="1137"/>
      <point x="672" y="1011"/>
    </contour>
  </outline>
</glyph>
<glyph name="five" format="2">
  <advance width="1139"/>
  <unicode hex="0035"/>
  <note>
five
</note>
  <outline>
    <contour>
      <point x="1082" y="469" type="qcurve" smooth="yes"/>
      <point x="1082" y="684"/>
      <point x="841" y="934"/>
      <point x="640" y="934" type="qcurve" smooth="yes"/>
      <point x="487" y="934"/>
      <point x="385" y="844" type="qcurve"/>
      <point x="408" y="1200" type="line"/>
      <point x="1000" y="1200" type="line"/>
      <point x="1000" y="1409" type="line"/>
      <point x="153" y="1409" type="line"/>
      <point x="104" y="616" type="line"/>
      <point x="378" y="616" type="line"/>
      <point x="452" y="707"/>
      <point x="569" y="707" type="qcurve" smooth="yes"/>
      <point x="675" y="707"/>
      <point x="793" y="574"/>
      <point x="793" y="463" type="qcurve" smooth="yes"/>
      <point x="793" y="337"/>
      <point x="668" y="203"/>
      <point x="563" y="203" type="qcurve" smooth="yes"/>
      <point x="478" y="203"/>
      <point x="366" y="285"/>
      <point x="344" y="375" type="qcurve"/>
      <point x="63" y="352" type="line"/>
      <point x="93" y="171"/>
      <point x="348" y="-20"/>
      <point x="560" y="-20" type="qcurve" smooth="yes"/>
      <point x="803" y="-20"/>
      <point x="1082" y="245"/>
    </contour>
  </outline>
</glyph>
<glyph name="six" format="2">
  <advance width="1139"/>
  <unicode hex="0036"/>
  <note>
six
</note>
  <outline>
    <contour>
      <point x="1065" y="461" type="qcurve" smooth="yes"/>
      <point x="1065" y="667"/>
      <point x="845" y="907"/>
      <point x="656" y="907" type="qcurve" smooth="yes"/>
      <point x="555" y="907"/>
      <point x="395" y="827"/>
      <point x="350" y="752" type="qcurve"/>
      <point x="350" y="982"/>
      <point x="479" y="1208"/>
      <point x="592" y="1208" type="qcurve" smooth="yes"/>
      <point x="724" y="1208"/>
      <point x="762" y="1069" type="qcurve"/>
      <point x="1027" y="1106" type="line"/>
      <point x="984" y="1272"/>
      <point x="777" y="1430"/>
      <point x="598" y="1430" type="qcurve" smooth="yes"/>
      <point x="346" y="1430"/>
      <point x="75" y="1049"/>
      <point x="75" y="672" type="qcurve" smooth="yes"/>
      <point x="75" y="329"/>
      <point x="342" y="-20"/>
      <point x="591" y="-20" type="qcurve" smooth="yes"/>
      <point x="813" y="-20"/>
      <point x="1065" y="236"/>
    </contour>
    <contour>
      <point x="783" y="453" type="qcurve" smooth="yes"/>
      <point x="783" y="334"/>
      <point x="677" y="199"/>
      <point x="582" y="199" type="qcurve" smooth="yes"/>
      <point x="487" y="199"/>
      <point x="370" y="360"/>
      <point x="370" y="483" type="qcurve" smooth="yes"/>
      <point x="370" y="581"/>
      <point x="482" y="700"/>
      <point x="575" y="700" type="qcurve" smooth="yes"/>
      <point x="672" y="700"/>
      <point x="783" y="573"/>
    </contour>
  </outline>
</glyph>
<glyph name="seven" format="2">
  <advance width="1139"/>
  <unicode hex="0037"/>
  <note>
seven
</note>
  <outline>
    <contour>
      <point x="1049" y="1186" type="qcurve"/>
      <point x="1049" y="1409" type="line"/>
      <point x="88" y="1409" type="line"/>
      <point x="88" y="1178" type="line"/>
      <point x="788" y="1178" type="line"/>
      <point x="559" y="846"/>
      <point x="385" y="505"/>
      <point x="293" y="176"/>
      <point x="293" y="0" type="qcurve"/>
      <point x="586" y="0" type="line"/>
      <point x="586" y="168"/>
      <point x="659" y="469"/>
      <point x="785" y="754"/>
      <point x="954" y="1036"/>
    </contour>
  </outline>
</glyph>
<glyph name="eight" format="2">
  <advance width="1139"/>
  <unicode hex="0038"/>
  <note>
eight
</note>
  <outline>
    <contour>
      <point x="1076" y="397" type="curve"/>
      <point x="1076" y="397" type="line"/>
      <point x="1076" y="585"/>
      <point x="966.333" y="709.667"/>
      <point x="785" y="739" type="curve"/>
      <point x="785" y="743" type="line"/>
      <point x="941" y="773.667"/>
      <point x="1041" y="901.667"/>
      <point x="1041" y="1055" type="curve" smooth="yes"/>
      <point x="1041" y="1295"/>
      <point x="872.333" y="1430"/>
      <point x="567" y="1430" type="curve" smooth="yes"/>
      <point x="268.333" y="1430"/>
      <point x="98" y="1287.667"/>
      <point x="98" y="1057" type="curve" smooth="yes"/>
      <point x="98" y="903.667"/>
      <point x="200" y="774.333"/>
      <point x="352" y="741" type="curve"/>
      <point x="352" y="737" type="line"/>
      <point x="177.333" y="707.667"/>
      <point x="65" y="575"/>
      <point x="65" y="395" type="curve" smooth="yes"/>
      <point x="65" y="132.333"/>
      <point x="249.667" y="-20"/>
      <point x="571" y="-20" type="curve" smooth="yes"/>
      <point x="895" y="-20"/>
      <point x="1076" y="133"/>
    </contour>
    <contour>
      <point x="752" y="1040" type="curve"/>
      <point x="752" y="1040" type="line"/>
      <point x="752" y="896"/>
      <point x="691.667" y="838"/>
      <point x="569" y="838" type="curve" smooth="yes"/>
      <point x="446.333" y="838"/>
      <point x="385" y="905.333"/>
      <point x="385" y="1040" type="curve" smooth="yes"/>
      <point x="385" y="1168.667"/>
      <point x="445.667" y="1233"/>
      <point x="567" y="1233" type="curve" smooth="yes"/>
      <point x="691" y="1233"/>
      <point x="752" y="1173.333"/>
    </contour>
    <contour>
      <point x="785" y="420" type="curve"/>
      <point x="785" y="420" type="line"/>
      <point x="785" y="249.333"/>
      <point x="718.333" y="178"/>
      <point x="573" y="178" type="curve" smooth="yes"/>
      <point x="425" y="178"/>
      <point x="354" y="250.667"/>
      <point x="354" y="416" type="curve" smooth="yes"/>
      <point x="354" y="561.333"/>
      <point x="429" y="641"/>
      <point x="565" y="641" type="curve" smooth="yes"/>
      <point x="711.667" y="641"/>
      <point x="785" y="567.333"/>
    </contour>
  </outline>
</glyph>
<glyph name="nine" format="2">
  <advance width="1139"/>
  <unicode hex="0039"/>
  <note>
nine
</note>
  <outline>
    <contour>
      <point x="1063" y="727" type="qcurve" smooth="yes"/>
      <point x="1063" y="1079"/>
      <point x="816" y="1430"/>
      <point x="563" y="1430" type="qcurve" smooth="yes"/>
      <point x="328" y="1430"/>
      <point x="71" y="1180"/>
      <point x="71" y="958" type="qcurve" smooth="yes"/>
      <point x="71" y="742"/>
      <point x="290" y="489"/>
      <point x="476" y="489" type="qcurve" smooth="yes"/>
      <point x="576" y="489"/>
      <point x="749" y="574"/>
      <point x="787" y="649" type="qcurve"/>
      <point x="785" y="427"/>
      <point x="658" y="201"/>
      <point x="540" y="201" type="qcurve" smooth="yes"/>
      <point x="399" y="201"/>
      <point x="360" y="348" type="qcurve"/>
      <point x="96" y="311" type="line"/>
      <point x="140" y="139"/>
      <point x="351" y="-20"/>
      <point x="537" y="-20" type="qcurve" smooth="yes"/>
      <point x="789" y="-20"/>
      <point x="1063" y="352"/>
    </contour>
    <contour>
      <point x="766" y="924" type="qcurve" smooth="yes"/>
      <point x="766" y="821"/>
      <point x="647" y="698"/>
      <point x="557" y="698" type="qcurve" smooth="yes"/>
      <point x="462" y="698"/>
      <point x="356" y="839"/>
      <point x="356" y="956" type="qcurve" smooth="yes"/>
      <point x="356" y="1075"/>
      <point x="463" y="1210"/>
      <point x="556" y="1210" type="qcurve" smooth="yes"/>
      <point x="651" y="1210"/>
      <point x="766" y="1055"/>
    </contour>
  </outline>
</glyph>
<glyph name="semicolon" format="2">
  <advance width="682"/>
  <unicode hex="003B"/>
  <unicode hex="037E"/>
  <note>
semicolon
</note>
  <outline>
    <contour>
      <point x="199" y="752" type="line"/>
      <point x="487" y="752" type="line"/>
      <point x="487" y="1034" type="line"/>
      <point x="199" y="1034" type="line"/>
    </contour>
    <contour>
      <point x="487" y="66" type="qcurve" smooth="yes"/>
      <point x="487" y="281" type="line"/>
      <point x="199" y="281" type="line"/>
      <point x="199" y="0" type="line"/>
      <point x="328" y="0" type="line"/>
      <point x="328" y="-71"/>
      <point x="259" y="-236"/>
      <point x="195" y="-317" type="qcurve"/>
      <point x="379" y="-317" type="line"/>
      <point x="436" y="-238"/>
      <point x="487" y="-54"/>
    </contour>
  </outline>
</glyph>
<glyph name="question" format="2">
  <advance width="1251"/>
  <unicode hex="003F"/>
  <note>
question
</note>
  <outline>
    <contour>
      <point x="1133" y="1026" type="qcurve" smooth="yes"/>
      <point x="1133" y="1215"/>
      <point x="862" y="1430"/>
      <point x="625" y="1430" type="qcurve" smooth="yes"/>
      <point x="401" y="1430"/>
      <point x="121" y="1204"/>
      <point x="94" y="1001" type="qcurve"/>
      <point x="379" y="989" type="line"/>
      <point x="391" y="1086"/>
      <point x="528" y="1204"/>
      <point x="629" y="1204" type="qcurve" smooth="yes"/>
      <point x="735" y="1204"/>
      <point x="850" y="1102"/>
      <point x="850" y="1014" type="qcurve" smooth="yes"/>
      <point x="850" y="945"/>
      <point x="762" y="832"/>
      <point x="655" y="758" type="qcurve" smooth="yes"/>
      <point x="555" y="688"/>
      <point x="452" y="528"/>
      <point x="446" y="426" type="qcurve"/>
      <point x="713" y="426" type="line"/>
      <point x="716" y="486"/>
      <point x="783" y="586"/>
      <point x="851" y="635" type="qcurve" smooth="yes"/>
      <point x="927" y="690" type="line" smooth="yes"/>
      <point x="1046" y="775"/>
      <point x="1133" y="929"/>
    </contour>
    <contour>
      <point x="438" y="0" type="line"/>
      <point x="727" y="0" type="line"/>
      <point x="727" y="270" type="line"/>
      <point x="438" y="270" type="line"/>
    </contour>
  </outline>
</glyph>
<glyph name="at" format="2">
  <advance width="1997"/>
  <unicode hex="0040"/>
  <note>
at
</note>
  <outline>
    <contour>
      <point x="1878" y="725" type="curve"/>
      <point x="1878" y="725" type="line"/>
      <point x="1878" y="1015.667"/>
      <point x="1750.333" y="1242.833"/>
      <point x="1513" y="1363.5" type="curve" smooth="yes"/>
      <point x="1394.333" y="1423.833"/>
      <point x="1254" y="1454"/>
      <point x="1092" y="1454" type="curve" smooth="yes"/>
      <point x="724" y="1454"/>
      <point x="412.167" y="1278.333"/>
      <point x="243.5" y="973" type="curve" smooth="yes"/>
      <point x="159.167" y="820.333"/>
      <point x="117" y="649.667"/>
      <point x="117" y="461" type="curve" smooth="yes"/>
      <point x="117" y="150.333"/>
      <point x="258.167" y="-101.167"/>
      <point x="497.5" y="-228.5" type="curve" smooth="yes"/>
      <point x="617.167" y="-292.167"/>
      <point x="755.667" y="-324"/>
      <point x="913" y="-324" type="curve" smooth="yes"/>
      <point x="1138.333" y="-324"/>
      <point x="1347" y="-273.667"/>
      <point x="1571" y="-147" type="curve"/>
      <point x="1509" y="-25" type="line"/>
      <point x="1312.333" y="-128.333"/>
      <point x="1116" y="-180"/>
      <point x="920" y="-180" type="curve" smooth="yes"/>
      <point x="661.333" y="-180"/>
      <point x="464.5" y="-78.167"/>
      <point x="358.5" y="118.5" type="curve" smooth="yes"/>
      <point x="305.5" y="216.833"/>
      <point x="279" y="331"/>
      <point x="279" y="461" type="curve" smooth="yes"/>
      <point x="279" y="789"/>
      <point x="427" y="1068"/>
      <point x="671" y="1208" type="curve" smooth="yes"/>
      <point x="793" y="1278"/>
      <point x="934" y="1313"/>
      <point x="1094" y="1313" type="curve" smooth="yes"/>
      <point x="1348.667" y="1313"/>
      <point x="1547.5" y="1211.833"/>
      <point x="1649.5" y="1032.5" type="curve" smooth="yes"/>
      <point x="1700.5" y="942.833"/>
      <point x="1726" y="839.667"/>
      <point x="1726" y="723" type="curve" smooth="yes"/>
      <point x="1726" y="536.333"/>
      <point x="1665.333" y="373.167"/>
      <point x="1568" y="280.5" type="curve" smooth="yes"/>
      <point x="1519.333" y="234.167"/>
      <point x="1468.333" y="211"/>
      <point x="1415" y="211" type="curve" smooth="yes"/>
      <point x="1373.667" y="211"/>
      <point x="1337" y="236.333"/>
      <point x="1337" y="303" type="curve" smooth="yes"/>
      <point x="1337" y="348.333"/>
      <point x="1349.333" y="428.333"/>
      <point x="1374" y="543" type="curve" smooth="yes"/>
      <point x="1491" y="1049" type="line"/>
      <point x="1335" y="1049" type="line"/>
      <point x="1296" y="897" type="line"/>
      <point x="1290" y="897" type="line"/>
      <point x="1244" y="1013"/>
      <point x="1156" y="1071"/>
      <point x="1026" y="1071" type="curve" smooth="yes"/>
      <point x="836.667" y="1071"/>
      <point x="676.5" y="955.667"/>
      <point x="590.5" y="765" type="curve" smooth="yes"/>
      <point x="547.5" y="669.667"/>
      <point x="526" y="567.667"/>
      <point x="526" y="459" type="curve" smooth="yes"/>
      <point x="526" y="216.333"/>
      <point x="646.667" y="74"/>
      <point x="856" y="74" type="curve" smooth="yes"/>
      <point x="993.333" y="74"/>
      <point x="1139.333" y="173"/>
      <point x="1206" y="313" type="curve"/>
      <point x="1212" y="313" type="line"/>
      <point x="1208" y="293"/>
      <point x="1206" y="270.667"/>
      <point x="1206" y="246" type="curve" smooth="yes"/>
      <point x="1206" y="138"/>
      <point x="1274.333" y="74"/>
      <point x="1397" y="74" type="curve" smooth="yes"/>
      <point x="1570.333" y="74"/>
      <point x="1729.833" y="193"/>
      <point x="1814.5" y="393" type="curve" smooth="yes"/>
      <point x="1856.833" y="493"/>
      <point x="1878" y="603.667"/>
    </contour>
    <contour>
      <point x="1231" y="721" type="curve"/>
      <point x="1231" y="721" type="line"/>
      <point x="1231" y="641"/>
      <point x="1194.333" y="484.5"/>
      <point x="1129" y="378.5" type="curve" smooth="yes"/>
      <point x="1063.667" y="272.5"/>
      <point x="977" y="215"/>
      <point x="889" y="215" type="curve" smooth="yes"/>
      <point x="755.667" y="215"/>
      <point x="692" y="309"/>
      <point x="692" y="461" type="curve" smooth="yes"/>
      <point x="692" y="622.333"/>
      <point x="750.167" y="790.167"/>
      <point x="849.5" y="873.5" type="curve" smooth="yes"/>
      <point x="899.167" y="915.167"/>
      <point x="955.333" y="936"/>
      <point x="1018" y="936" type="curve" smooth="yes"/>
      <point x="1143.333" y="936"/>
      <point x="1231" y="847.667"/>
    </contour>
  </outline>
</glyph>
<glyph name="A" format="2">
  <advance width="1479"/>
  <unicode hex="0041"/>
  <note>
A
</note>
  <outline>
    <contour>
      <point x="1133" y="0" type="line"/>
      <point x="1133" y="0" type="line"/>
      <point x="1425" y="0" type="line"/>
      <point x="913" y="1409" type="line"/>
      <point x="565" y="1409" type="line"/>
      <point x="51" y="0" type="line"/>
      <point x="346" y="0" type="line"/>
      <point x="471" y="360" type="line"/>
      <point x="1008" y="360" type="line"/>
    </contour>
    <contour>
      <point x="942" y="582" type="line"/>
      <point x="942" y="582" type="line"/>
      <point x="537" y="582" type="line"/>
      <point x="642.333" y="888.667"/>
      <point x="699.667" y="1057.333"/>
      <point x="709" y="1088" type="curve" smooth="yes"/>
      <point x="718.333" y="1118.667"/>
      <point x="728.333" y="1153.333"/>
      <point x="739" y="1192" type="curve"/>
      <point x="803" y="987" type="line"/>
    </contour>
  </outline>
</glyph>
<glyph name="B" format="2">
  <advance width="1479"/>
  <unicode hex="0042"/>
  <note>
B
</note>
  <anchor x="700" y="1540" name="top"/>
  <anchor x="1330" y="1540" name="caronalt"/>
  <anchor x="700" y="-130" name="bottom"/>
  <anchor x="1260" y="1150" name="rhotic"/>
  <anchor x="1100" y="1300" name="horn"/>
  <anchor x="1479" y="1540" name="topdouble"/>
  <anchor x="1479" y="-380" name="bottomdouble"/>
  <anchor x="1479" y="1840" name="tophalfright"/>
  <anchor x="0" y="1840" name="tophalfleft"/>
  <anchor x="760" y="0" name="ogonek"/>
  <outline>
    <contour>
      <point x="1386" y="402" type="curve" smooth="yes"/>
      <point x="1386" y="594"/>
      <point x="1264" y="714"/>
      <point x="1036" y="741" type="curve"/>
      <point x="1217" y="780"/>
      <point x="1305" y="895"/>
      <point x="1305" y="1055" type="curve" smooth="yes"/>
      <point x="1305" y="1288"/>
      <point x="1126" y="1409"/>
      <point x="782" y="1409" type="curve" smooth="yes"/>
      <point x="137" y="1409" type="line"/>
      <point x="137" y="0" type="line"/>
      <point x="842" y="0" type="line" smooth="yes"/>
      <point x="1183" y="0"/>
      <point x="1386" y="146"/>
    </contour>
    <contour>
      <point x="1008" y="1015" type="curve" smooth="yes"/>
      <point x="1008" y="899"/>
      <point x="937" y="841"/>
      <point x="770" y="841" type="curve" smooth="yes"/>
      <point x="432" y="841" type="line"/>
      <point x="432" y="1190" type="line"/>
      <point x="768" y="1190" type="line" smooth="yes"/>
      <point x="927" y="1190"/>
      <point x="1008" y="1142"/>
    </contour>
    <contour>
      <point x="1090" y="425" type="curve" smooth="yes"/>
      <point x="1090" y="288"/>
      <point x="1006" y="219"/>
      <point x="817" y="219" type="curve" smooth="yes"/>
      <point x="432" y="219" type="line"/>
      <point x="432" y="623" type="line"/>
      <point x="806" y="623" type="line" smooth="yes"/>
      <point x="995" y="623"/>
      <point x="1090" y="557"/>
    </contour>
  </outline>
</glyph>
<glyph name="C" format="2">
  <advance width="1479"/>
  <unicode hex="0043"/>
  <note>
C
</note>
  <anchor x="800" y="1540" name="gpos_18_mark_to_base__MARKCLASS_0_lookup_18"/>
  <anchor x="1330" y="1540" name="gpos_18_mark_to_base__MARKCLASS_1_lookup_18"/>
  <anchor x="800" y="-130" name="gpos_18_mark_to_base__MARKCLASS_2_lookup_18"/>
  <anchor x="1300" y="1240" name="gpos_20_mark_to_base__MARKCLASS_0_lookup_20"/>
  <anchor x="1160" y="1300" name="gpos_21_mark_to_base__MARKCLASS_0_lookup_21"/>
  <anchor x="1479" y="1540" name="gpos_22_mark_to_base__MARKCLASS_0_lookup_22"/>
  <anchor x="1479" y="-380" name="gpos_22_mark_to_base__MARKCLASS_1_lookup_22"/>
  <anchor x="1479" y="1840" name="gpos_23_mark_to_base__MARKCLASS_0_lookup_23"/>
  <anchor x="0" y="1840" name="gpos_23_mark_to_base__MARKCLASS_1_lookup_23"/>
  <anchor x="890" y="0" name="gpos_24_mark_to_base__MARKCLASS_0_lookup_24"/>
  <outline>
    <contour>
      <point x="795" y="212" type="curve" smooth="yes"/>
      <point x="527" y="212"/>
      <point x="381" y="387"/>
      <point x="381" y="711" type="curve" smooth="yes"/>
      <point x="381" y="1030"/>
      <point x="521" y="1198"/>
      <point x="788" y="1198" type="curve" smooth="yes"/>
      <point x="963" y="1198"/>
      <point x="1101" y="1108"/>
      <point x="1145" y="967" type="curve"/>
      <point x="1405" y="1038" type="line"/>
      <point x="1321" y="1295"/>
      <point x="1113" y="1430"/>
      <point x="782" y="1430" type="curve" smooth="yes"/>
      <point x="329" y="1430"/>
      <point x="84" y="1174"/>
      <point x="84" y="711" type="curve" smooth="yes"/>
      <point x="84" y="250"/>
      <point x="342" y="-20"/>
      <point x="795" y="-20" type="curve" smooth="yes"/>
      <point x="1094" y="-20"/>
      <point x="1312" y="111"/>
      <point x="1423" y="383" type="curve"/>
      <point x="1166" y="480" type="line"/>
      <point x="1097" y="301"/>
      <point x="973" y="212"/>
    </contour>
  </outline>
</glyph>
<glyph name="D" format="2">
  <advance width="1479"/>
  <unicode hex="0044"/>
  <note>
D
</note>
  <anchor x="700" y="1540" name="top"/>
  <anchor x="1330" y="1540" name="caronalt"/>
  <anchor x="700" y="-130" name="bottom"/>
  <anchor x="1300" y="1150" name="rhotic"/>
  <anchor x="1100" y="1300" name="horn"/>
  <anchor x="1479" y="1540" name="topdouble"/>
  <anchor x="1479" y="-380" name="bottomdouble"/>
  <anchor x="1479" y="1840" name="tophalfright"/>
  <anchor x="0" y="1840" name="tophalfleft"/>
  <anchor x="670" y="0" name="ogonek"/>
  <outline>
    <contour>
      <point x="1393" y="715" type="curve" smooth="yes"/>
      <point x="1393" y="1162"/>
      <point x="1122" y="1409"/>
      <point x="647" y="1409" type="curve" smooth="yes"/>
      <point x="137" y="1409" type="line"/>
      <point x="137" y="0" type="line"/>
      <point x="707" y="0" type="line" smooth="yes"/>
      <point x="1111" y="0"/>
      <point x="1393" y="262"/>
    </contour>
    <contour>
      <point x="1096" y="715" type="curve" smooth="yes"/>
      <point x="1096" y="415"/>
      <point x="935" y="228"/>
      <point x="682" y="228" type="curve" smooth="yes"/>
      <point x="432" y="228" type="line"/>
      <point x="432" y="1181" type="line"/>
      <point x="641" y="1181" type="line" smooth="yes"/>
      <point x="933" y="1181"/>
      <point x="1096" y="1018"/>
    </contour>
  </outline>
</glyph>
<glyph name="E" format="2">
  <advance width="1366"/>
  <unicode hex="0045"/>
  <note>
E
</note>
  <anchor x="700" y="1540" name="top"/>
  <anchor x="1240" y="1540" name="caronalt"/>
  <anchor x="740" y="-130" name="bottom"/>
  <anchor x="1215" y="1420" name="rhotic"/>
  <anchor x="1200" y="1340" name="horn"/>
  <anchor x="1366" y="1540" name="topdouble"/>
  <anchor x="1366" y="-380" name="bottomdouble"/>
  <anchor x="1366" y="1840" name="tophalfright"/>
  <anchor x="0" y="1840" name="tophalfleft"/>
  <anchor x="1120" y="0" name="ogonek"/>
  <outline>
    <contour>
      <point x="1286" y="228" type="line"/>
      <point x="432" y="228" type="line"/>
      <point x="432" y="599" type="line"/>
      <point x="1184" y="599" type="line"/>
      <point x="1184" y="827" type="line"/>
      <point x="432" y="827" type="line"/>
      <point x="432" y="1181" type="line"/>
      <point x="1245" y="1181" type="line"/>
      <point x="1245" y="1409" type="line"/>
      <point x="137" y="1409" type="line"/>
      <point x="137" y="0" type="line"/>
      <point x="1286" y="0" type="line"/>
    </contour>
  </outline>
</glyph>
<glyph name="F" format="2">
  <advance width="1251"/>
  <unicode hex="0046"/>
  <note>
F
</note>
  <anchor x="680" y="1540" name="gpos_18_mark_to_base__MARKCLASS_0_lookup_18"/>
  <anchor x="1180" y="1540" name="gpos_18_mark_to_base__MARKCLASS_1_lookup_18"/>
  <anchor x="680" y="-130" name="gpos_18_mark_to_base__MARKCLASS_2_lookup_18"/>
  <anchor x="1143" y="1420" name="gpos_20_mark_to_base__MARKCLASS_0_lookup_20"/>
  <anchor x="1160" y="1340" name="gpos_21_mark_to_base__MARKCLASS_0_lookup_21"/>
  <anchor x="1251" y="1540" name="gpos_22_mark_to_base__MARKCLASS_0_lookup_22"/>
  <anchor x="1251" y="-380" name="gpos_22_mark_to_base__MARKCLASS_1_lookup_22"/>
  <anchor x="1251" y="1840" name="gpos_23_mark_to_base__MARKCLASS_0_lookup_23"/>
  <anchor x="0" y="1840" name="gpos_23_mark_to_base__MARKCLASS_1_lookup_23"/>
  <anchor x="190" y="0" name="gpos_24_mark_to_base__MARKCLASS_0_lookup_24"/>
  <outline>
    <contour>
      <point x="432" y="517" type="line"/>
      <point x="1153" y="517" type="line"/>
      <point x="1153" y="745" type="line"/>
      <point x="432" y="745" type="line"/>
      <point x="432" y="1181" type="line"/>
      <point x="1176" y="1181" type="line"/>
      <point x="1176" y="1409" type="line"/>
      <point x="137" y="1409" type="line"/>
      <point x="137" y="0" type="line"/>
      <point x="432" y="0" type="line"/>
    </contour>
  </outline>
</glyph>
<glyph name="G" format="2">
  <advance width="1593"/>
  <unicode hex="0047"/>
  <note>
G
</note>
  <anchor x="840" y="1540" name="gpos_18_mark_to_base__MARKCLASS_0_lookup_18"/>
  <anchor x="1400" y="1540" name="gpos_18_mark_to_base__MARKCLASS_1_lookup_18"/>
  <anchor x="840" y="-130" name="gpos_18_mark_to_base__MARKCLASS_2_lookup_18"/>
  <anchor x="1350" y="1240" name="gpos_20_mark_to_base__MARKCLASS_0_lookup_20"/>
  <anchor x="1180" y="1300" name="gpos_21_mark_to_base__MARKCLASS_0_lookup_21"/>
  <anchor x="1593" y="1540" name="gpos_22_mark_to_base__MARKCLASS_0_lookup_22"/>
  <anchor x="1593" y="-380" name="gpos_22_mark_to_base__MARKCLASS_1_lookup_22"/>
  <anchor x="1593" y="1840" name="gpos_23_mark_to_base__MARKCLASS_0_lookup_23"/>
  <anchor x="0" y="1840" name="gpos_23_mark_to_base__MARKCLASS_1_lookup_23"/>
  <anchor x="960" y="0" name="gpos_24_mark_to_base__MARKCLASS_0_lookup_24"/>
  <outline>
    <contour>
      <point x="806" y="211" type="curve" smooth="yes"/>
      <point x="537" y="211"/>
      <point x="381" y="392"/>
      <point x="381" y="711" type="curve" smooth="yes"/>
      <point x="381" y="1024"/>
      <point x="528" y="1198"/>
      <point x="805" y="1198" type="curve" smooth="yes"/>
      <point x="974" y="1198"/>
      <point x="1105" y="1124"/>
      <point x="1164" y="981" type="curve"/>
      <point x="1436" y="1063" type="line"/>
      <point x="1346" y="1308"/>
      <point x="1136" y="1430"/>
      <point x="805" y="1430" type="curve" smooth="yes"/>
      <point x="340" y="1430"/>
      <point x="84" y="1175"/>
      <point x="84" y="711" type="curve" smooth="yes"/>
      <point x="84" y="244"/>
      <point x="339" y="-20"/>
      <point x="798" y="-20" type="curve" smooth="yes"/>
      <point x="1061" y="-20"/>
      <point x="1317" y="72"/>
      <point x="1466" y="225" type="curve"/>
      <point x="1466" y="743" type="line"/>
      <point x="852" y="743" type="line"/>
      <point x="852" y="525" type="line"/>
      <point x="1196" y="525" type="line"/>
      <point x="1196" y="330" type="line"/>
      <point x="1117" y="261"/>
      <point x="959" y="211"/>
    </contour>
  </outline>
</glyph>
<glyph name="H" format="2">
  <advance width="1479"/>
  <unicode hex="0048"/>
  <note>
H
</note>
  <outline>
    <contour>
      <point x="1046" y="0" type="line"/>
      <point x="1341" y="0" type="line"/>
      <point x="1341" y="1409" type="line"/>
      <point x="1046" y="1409" type="line"/>
      <point x="1046" y="848" type="line"/>
      <point x="432" y="848" type="line"/>
      <point x="432" y="1409" type="line"/>
      <point x="137" y="1409" type="line"/>
      <point x="137" y="0" type="line"/>
      <point x="432" y="0" type="line"/>
      <point x="432" y="604" type="line"/>
      <point x="1046" y="604" type="line"/>
    </contour>
  </outline>
</glyph>
<glyph name="J" format="2">
  <advance width="1139"/>
  <unicode hex="004A"/>
  <note>
J
</note>
  <outline>
    <contour>
      <point x="524" y="-20" type="qcurve" smooth="yes"/>
      <point x="749" y="-20"/>
      <point x="999" y="226"/>
      <point x="999" y="446" type="qcurve" smooth="yes"/>
      <point x="999" y="1409" type="line"/>
      <point x="424" y="1409" type="line"/>
      <point x="424" y="1178" type="line"/>
      <point x="705" y="1178" type="line"/>
      <point x="705" y="439" type="line" smooth="yes"/>
      <point x="705" y="329"/>
      <point x="614" y="211"/>
      <point x="526" y="211" type="qcurve" smooth="yes"/>
      <point x="440" y="211"/>
      <point x="342" y="316"/>
      <point x="324" y="425" type="qcurve"/>
      <point x="31" y="382" type="line"/>
      <point x="70" y="170"/>
      <point x="305" y="-20"/>
    </contour>
  </outline>
</glyph>
<glyph name="K" format="2">
  <advance width="1479"/>
  <unicode hex="004B"/>
  <note>
K
</note>
  <anchor x="700" y="1540" name="top"/>
  <anchor x="1330" y="1540" name="caronalt"/>
  <anchor x="700" y="-130" name="bottom"/>
  <anchor x="1200" y="1420" name="rhotic"/>
  <anchor x="1160" y="1340" name="horn"/>
  <anchor x="1479" y="1540" name="topdouble"/>
  <anchor x="1479" y="-380" name="bottomdouble"/>
  <anchor x="1479" y="1840" name="tophalfright"/>
  <anchor x="0" y="1840" name="tophalfleft"/>
  <anchor x="1160" y="0" name="ogonek"/>
  <outline>
    <contour>
      <point x="432" y="514" type="line"/>
      <point x="606" y="647" type="line"/>
      <point x="1112" y="0" type="line"/>
      <point x="1460" y="0" type="line"/>
      <point x="809" y="813" type="line"/>
      <point x="1411" y="1409" type="line"/>
      <point x="1067" y="1409" type="line"/>
      <point x="432" y="770" type="line"/>
      <point x="432" y="1409" type="line"/>
      <point x="137" y="1409" type="line"/>
      <point x="137" y="0" type="line"/>
      <point x="432" y="0" type="line"/>
    </contour>
  </outline>
</glyph>
<glyph name="M" format="2">
  <advance width="1706"/>
  <unicode hex="004D"/>
  <note>
M
</note>
  <outline>
    <contour>
      <point x="1307" y="0" type="line"/>
      <point x="1569" y="0" type="line"/>
      <point x="1569" y="1409" type="line"/>
      <point x="1176" y="1409" type="line"/>
      <point x="917" y="582" type="line" smooth="yes"/>
      <point x="854" y="356" type="line"/>
      <point x="784" y="621" type="line" smooth="yes"/>
      <point x="532" y="1409" type="line"/>
      <point x="137" y="1409" type="line"/>
      <point x="137" y="0" type="line"/>
      <point x="399" y="0" type="line"/>
      <point x="399" y="854" type="line" smooth="yes"/>
      <point x="399" y="929"/>
      <point x="387" y="1161" type="qcurve"/>
      <point x="494" y="786" type="line" smooth="yes"/>
      <point x="748" y="0" type="line"/>
      <point x="958" y="0" type="line"/>
      <point x="1212" y="786" type="line" smooth="yes"/>
      <point x="1246" y="892"/>
      <point x="1317" y="1161" type="qcurve"/>
      <point x="1308" y="941"/>
      <point x="1307" y="883"/>
      <point x="1307" y="854" type="qcurve" smooth="yes"/>
    </contour>
  </outline>
</glyph>
<glyph name="N" format="2">
  <advance width="1479"/>
  <unicode hex="004E"/>
  <note>
N
</note>
  <outline>
    <contour>
      <point x="995" y="0" type="line"/>
      <point x="1341" y="0" type="line"/>
      <point x="1341" y="1409" type="line"/>
      <point x="1079" y="1409" type="line"/>
      <point x="1079" y="590" type="line" smooth="yes"/>
      <point x="1079" y="466"/>
      <point x="1097" y="315" type="qcurve"/>
      <point x="474" y="1409" type="line"/>
      <point x="137" y="1409" type="line"/>
      <point x="137" y="0" type="line"/>
      <point x="399" y="0" type="line"/>
      <point x="399" y="831" type="line" smooth="yes"/>
      <point x="399" y="927"/>
      <point x="381" y="1085" type="qcurve"/>
    </contour>
  </outline>
</glyph>
<glyph name="O" format="2">
  <advance width="1593"/>
  <unicode hex="004F"/>
  <note>
O
</note>
  <outline>
    <contour>
      <point x="1507" y="711" type="qcurve" smooth="yes"/>
      <point x="1507" y="1046"/>
      <point x="1130" y="1430"/>
      <point x="795" y="1430" type="qcurve" smooth="yes"/>
      <point x="460" y="1430"/>
      <point x="84" y="1050"/>
      <point x="84" y="711" type="qcurve" smooth="yes"/>
      <point x="84" y="371"/>
      <point x="461" y="-20"/>
      <point x="793" y="-20" type="qcurve" smooth="yes"/>
      <point x="1009" y="-20"/>
      <point x="1333" y="157"/>
      <point x="1507" y="491"/>
    </contour>
    <contour>
      <point x="1206" y="711" type="qcurve" smooth="yes"/>
      <point x="1206" y="472"/>
      <point x="991" y="212"/>
      <point x="793" y="212" type="qcurve" smooth="yes"/>
      <point x="602" y="212"/>
      <point x="381" y="479"/>
      <point x="381" y="711" type="qcurve" smooth="yes"/>
      <point x="381" y="941"/>
      <point x="597" y="1198"/>
      <point x="795" y="1198" type="qcurve" smooth="yes"/>
      <point x="990" y="1198"/>
      <point x="1206" y="939"/>
    </contour>
  </outline>
</glyph>
<glyph name="P" format="2">
  <advance width="1366"/>
  <unicode hex="0050"/>
  <note>
P
</note>
  <outline>
    <contour>
      <point x="1296" y="963" type="curve"/>
      <point x="1296" y="963" type="line"/>
      <point x="1296" y="1247"/>
      <point x="1107.333" y="1409"/>
      <point x="770" y="1409" type="curve" smooth="yes"/>
      <point x="137" y="1409" type="line"/>
      <point x="137" y="0" type="line"/>
      <point x="432" y="0" type="line"/>
      <point x="432" y="496" type="line"/>
      <point x="782" y="496" type="line" smooth="yes"/>
      <point x="994" y="496"/>
      <point x="1151.333" y="577.333"/>
      <point x="1234" y="720" type="curve" smooth="yes"/>
      <point x="1275.333" y="791.333"/>
      <point x="1296" y="872.333"/>
    </contour>
    <contour>
      <point x="999" y="958" type="curve"/>
      <point x="999" y="958" type="line"/>
      <point x="999" y="806"/>
      <point x="907.667" y="723"/>
      <point x="745" y="723" type="curve" smooth="yes"/>
      <point x="432" y="723" type="line"/>
      <point x="432" y="1180" type="line"/>
      <point x="737" y="1180" type="line" smooth="yes"/>
      <point x="911.667" y="1180"/>
      <point x="999" y="1106"/>
    </contour>
  </outline>
</glyph>
<glyph name="Q" format="2">
  <advance width="1593"/>
  <unicode hex="0051"/>
  <note>
Q
</note>
  <outline>
    <contour>
      <point x="1507" y="711" type="curve"/>
      <point x="1507" y="711" type="line"/>
      <point x="1507" y="1157.667"/>
      <point x="1241.667" y="1430"/>
      <point x="795" y="1430" type="curve" smooth="yes"/>
      <point x="348.333" y="1430"/>
      <point x="84" y="1163"/>
      <point x="84" y="711" type="curve" smooth="yes"/>
      <point x="84" y="293.667"/>
      <point x="304" y="26"/>
      <point x="684" y="-10" type="curve"/>
      <point x="770.667" y="-291.333"/>
      <point x="908.667" y="-403"/>
      <point x="1126" y="-403" type="curve" smooth="yes"/>
      <point x="1203.333" y="-403"/>
      <point x="1284" y="-393.667"/>
      <point x="1368" y="-375" type="curve"/>
      <point x="1370" y="-173" type="line"/>
      <point x="1330" y="-179.667"/>
      <point x="1290.333" y="-183"/>
      <point x="1251" y="-183" type="curve" smooth="yes"/>
      <point x="1103" y="-183"/>
      <point x="1028.333" y="-128"/>
      <point x="983" y="4" type="curve"/>
      <point x="1312.333" y="70.667"/>
      <point x="1507" y="335"/>
    </contour>
    <contour>
      <point x="1206" y="711" type="curve"/>
      <point x="1206" y="711" type="line"/>
      <point x="1206" y="391"/>
      <point x="1057" y="211"/>
      <point x="793" y="211" type="curve" smooth="yes"/>
      <point x="537" y="211"/>
      <point x="381" y="401.667"/>
      <point x="381" y="711" type="curve" smooth="yes"/>
      <point x="381" y="1017.667"/>
      <point x="531" y="1198"/>
      <point x="795" y="1198" type="curve" smooth="yes"/>
      <point x="1055" y="1198"/>
      <point x="1206" y="1015"/>
    </contour>
  </outline>
</glyph>
<glyph name="R" format="2">
  <advance width="1479"/>
  <unicode hex="0052"/>
  <note>
R
</note>
  <anchor x="680" y="1540" name="gpos_18_mark_to_base__MARKCLASS_0_lookup_18"/>
  <anchor x="1330" y="1540" name="gpos_18_mark_to_base__MARKCLASS_1_lookup_18"/>
  <anchor x="680" y="-130" name="gpos_18_mark_to_base__MARKCLASS_2_lookup_18"/>
  <anchor x="1320" y="1150" name="gpos_20_mark_to_base__MARKCLASS_0_lookup_20"/>
  <anchor x="1200" y="1300" name="gpos_21_mark_to_base__MARKCLASS_0_lookup_21"/>
  <anchor x="1479" y="1540" name="gpos_22_mark_to_base__MARKCLASS_0_lookup_22"/>
  <anchor x="1479" y="-380" name="gpos_22_mark_to_base__MARKCLASS_1_lookup_22"/>
  <anchor x="1479" y="1840" name="gpos_23_mark_to_base__MARKCLASS_0_lookup_23"/>
  <anchor x="0" y="1840" name="gpos_23_mark_to_base__MARKCLASS_1_lookup_23"/>
  <anchor x="1180" y="0" name="gpos_24_mark_to_base__MARKCLASS_0_lookup_24"/>
  <outline>
    <contour>
      <point x="432" y="535" type="line"/>
      <point x="778" y="535" type="line"/>
      <point x="1105" y="0" type="line"/>
      <point x="1437" y="0" type="line"/>
      <point x="1056" y="592" type="line"/>
      <point x="1247" y="637"/>
      <point x="1367" y="792"/>
      <point x="1367" y="989" type="curve" smooth="yes"/>
      <point x="1367" y="1260"/>
      <point x="1177" y="1409"/>
      <point x="841" y="1409" type="curve" smooth="yes"/>
      <point x="137" y="1409" type="line"/>
      <point x="137" y="0" type="line"/>
      <point x="432" y="0" type="line"/>
    </contour>
    <contour>
      <point x="1070" y="977" type="curve" smooth="yes"/>
      <point x="1070" y="842"/>
      <point x="983" y="764"/>
      <point x="818" y="764" type="curve" smooth="yes"/>
      <point x="432" y="764" type="line"/>
      <point x="432" y="1180" type="line"/>
      <point x="810" y="1180" type="line" smooth="yes"/>
      <point x="983" y="1180"/>
      <point x="1070" y="1112"/>
    </contour>
  </outline>
</glyph>
<glyph name="S" format="2">
  <advance width="1366"/>
  <unicode hex="0053"/>
  <note>
S
</note>
  <outline>
    <contour>
      <point x="1286" y="406" type="curve"/>
      <point x="1286" y="406" type="line"/>
      <point x="1286" y="523.333"/>
      <point x="1249" y="612.833"/>
      <point x="1181" y="677.5" type="curve" smooth="yes"/>
      <point x="1147" y="709.833"/>
      <point x="1100.833" y="738.167"/>
      <point x="1042.5" y="762.5" type="curve" smooth="yes"/>
      <point x="984.167" y="786.833"/>
      <point x="887.333" y="813.333"/>
      <point x="752" y="842" type="curve" smooth="yes"/>
      <point x="638" y="866"/>
      <point x="562.333" y="886.333"/>
      <point x="525" y="903" type="curve" smooth="yes"/>
      <point x="450.333" y="936.333"/>
      <point x="412" y="979.667"/>
      <point x="412" y="1053" type="curve" smooth="yes"/>
      <point x="412" y="1165"/>
      <point x="501.333" y="1221"/>
      <point x="680" y="1221" type="curve" smooth="yes"/>
      <point x="848" y="1221"/>
      <point x="933.667" y="1159.333"/>
      <point x="963" y="1038" type="curve"/>
      <point x="1249" y="1077" type="line"/>
      <point x="1198.333" y="1329"/>
      <point x="1035.333" y="1430"/>
      <point x="686" y="1430" type="curve" smooth="yes"/>
      <point x="320.667" y="1430"/>
      <point x="125" y="1290.667"/>
      <point x="125" y="1036" type="curve" smooth="yes"/>
      <point x="125" y="936"/>
      <point x="152.333" y="859.333"/>
      <point x="199" y="802" type="curve" smooth="yes"/>
      <point x="222.333" y="773.333"/>
      <point x="250.667" y="748.833"/>
      <point x="284" y="728.5" type="curve" smooth="yes"/>
      <point x="317.333" y="708.167"/>
      <point x="354.667" y="690.5"/>
      <point x="396" y="675.5" type="curve" smooth="yes"/>
      <point x="437.333" y="660.5"/>
      <point x="510.667" y="640.667"/>
      <point x="616" y="616" type="curve" smooth="yes"/>
      <point x="738" y="591.333"/>
      <point x="820.5" y="570.333"/>
      <point x="863.5" y="553" type="curve" smooth="yes"/>
      <point x="949.5" y="518.333"/>
      <point x="999" y="469"/>
      <point x="999" y="389" type="curve" smooth="yes"/>
      <point x="999" y="263.667"/>
      <point x="896" y="201"/>
      <point x="690" y="201" type="curve" smooth="yes"/>
      <point x="491.333" y="201"/>
      <point x="382.667" y="264.667"/>
      <point x="344" y="414" type="curve"/>
      <point x="59" y="367" type="line"/>
      <point x="117.667" y="107"/>
      <point x="320.667" y="-20"/>
      <point x="682" y="-20" type="curve" smooth="yes"/>
      <point x="1078" y="-20"/>
      <point x="1286" y="130"/>
    </contour>
  </outline>
</glyph>
<glyph name="T" format="2">
  <advance width="1251"/>
  <unicode hex="0054"/>
  <note>
T
</note>
  <anchor x="620" y="1540" name="top"/>
  <anchor x="1240" y="1540" name="caronalt"/>
  <anchor x="620" y="-130" name="bottom"/>
  <anchor x="1180" y="1420" name="rhotic"/>
  <anchor x="1200" y="1340" name="horn"/>
  <anchor x="1251" y="1540" name="topdouble"/>
  <anchor x="1251" y="-380" name="bottomdouble"/>
  <anchor x="1251" y="1840" name="tophalfright"/>
  <anchor x="0" y="1840" name="tophalfleft"/>
  <anchor x="550" y="0" name="ogonek"/>
  <outline>
    <contour>
      <point x="773" y="1181" type="line"/>
      <point x="1229" y="1181" type="line"/>
      <point x="1229" y="1409" type="line"/>
      <point x="23" y="1409" type="line"/>
      <point x="23" y="1181" type="line"/>
      <point x="478" y="1181" type="line"/>
      <point x="478" y="0" type="line"/>
      <point x="773" y="0" type="line"/>
    </contour>
  </outline>
</glyph>
<glyph name="U" format="2">
  <advance width="1479"/>
  <unicode hex="0055"/>
  <note>
U
</note>
  <outline>
    <contour>
      <point x="723" y="-20" type="qcurve" smooth="yes"/>
      <point x="1023" y="-20"/>
      <point x="1354" y="275"/>
      <point x="1354" y="543" type="qcurve" smooth="yes"/>
      <point x="1354" y="1409" type="line"/>
      <point x="1059" y="1409" type="line"/>
      <point x="1059" y="561" type="line" smooth="yes"/>
      <point x="1059" y="392"/>
      <point x="889" y="211"/>
      <point x="731" y="211" type="qcurve" smooth="yes"/>
      <point x="577" y="211"/>
      <point x="418" y="384"/>
      <point x="418" y="551" type="qcurve" smooth="yes"/>
      <point x="418" y="1409" type="line"/>
      <point x="123" y="1409" type="line"/>
      <point x="123" y="528" type="line" smooth="yes"/>
      <point x="123" y="264"/>
      <point x="432" y="-20"/>
    </contour>
  </outline>
</glyph>
<glyph name="V" format="2">
  <advance width="1366"/>
  <unicode hex="0056"/>
  <note>
V
</note>
  <anchor x="680" y="1540" name="gpos_18_mark_to_base__MARKCLASS_0_lookup_18"/>
  <anchor x="1330" y="1540" name="gpos_18_mark_to_base__MARKCLASS_1_lookup_18"/>
  <anchor x="680" y="-130" name="gpos_18_mark_to_base__MARKCLASS_2_lookup_18"/>
  <anchor x="1240" y="1420" name="gpos_20_mark_to_base__MARKCLASS_0_lookup_20"/>
  <anchor x="1200" y="1300" name="gpos_21_mark_to_base__MARKCLASS_0_lookup_21"/>
  <anchor x="1366" y="1540" name="gpos_22_mark_to_base__MARKCLASS_0_lookup_22"/>
  <anchor x="1366" y="-380" name="gpos_22_mark_to_base__MARKCLASS_1_lookup_22"/>
  <anchor x="1366" y="1840" name="gpos_23_mark_to_base__MARKCLASS_0_lookup_23"/>
  <anchor x="0" y="1840" name="gpos_23_mark_to_base__MARKCLASS_1_lookup_23"/>
  <anchor x="600" y="0" name="gpos_24_mark_to_base__MARKCLASS_0_lookup_24"/>
  <outline>
    <contour>
      <point x="1352" y="1409" type="line"/>
      <point x="1047" y="1409" type="line"/>
      <point x="758" y="504" type="line" smooth="yes"/>
      <point x="745" y="465"/>
      <point x="730" y="405"/>
      <point x="686" y="238" type="curve"/>
      <point x="655" y="356"/>
      <point x="631" y="445"/>
      <point x="612" y="504" type="curve" smooth="yes"/>
      <point x="322" y="1409" type="line"/>
      <point x="14" y="1409" type="line"/>
      <point x="535" y="0" type="line"/>
      <point x="834" y="0" type="line"/>
    </contour>
  </outline>
</glyph>
<glyph name="W" format="2">
  <advance width="1933"/>
  <unicode hex="0057"/>
  <note>
W
</note>
  <anchor x="970" y="1540" name="gpos_18_mark_to_base__MARKCLASS_0_lookup_18"/>
  <anchor x="1900" y="1540" name="gpos_18_mark_to_base__MARKCLASS_1_lookup_18"/>
  <anchor x="970" y="-130" name="gpos_18_mark_to_base__MARKCLASS_2_lookup_18"/>
  <anchor x="1840" y="1420" name="gpos_20_mark_to_base__MARKCLASS_0_lookup_20"/>
  <anchor x="1840" y="1300" name="gpos_21_mark_to_base__MARKCLASS_0_lookup_21"/>
  <anchor x="1933" y="1540" name="gpos_22_mark_to_base__MARKCLASS_0_lookup_22"/>
  <anchor x="1933" y="-380" name="gpos_22_mark_to_base__MARKCLASS_1_lookup_22"/>
  <anchor x="1933" y="1840" name="gpos_23_mark_to_base__MARKCLASS_0_lookup_23"/>
  <anchor x="0" y="1840" name="gpos_23_mark_to_base__MARKCLASS_1_lookup_23"/>
  <anchor x="1300" y="0" name="gpos_24_mark_to_base__MARKCLASS_0_lookup_24"/>
  <outline>
    <contour>
      <point x="909" y="834" type="line" smooth="yes"/>
      <point x="919" y="879"/>
      <point x="951" y="1029"/>
      <point x="967" y="1116" type="curve"/>
      <point x="983" y="1011"/>
      <point x="1003" y="911"/>
      <point x="1026" y="815" type="curve" smooth="yes"/>
      <point x="1217" y="0" type="line"/>
      <point x="1567" y="0" type="line"/>
      <point x="1931" y="1409" type="line"/>
      <point x="1632" y="1409" type="line"/>
      <point x="1451" y="572" type="line" smooth="yes"/>
      <point x="1426" y="457"/>
      <point x="1410" y="394"/>
      <point x="1384" y="279" type="curve"/>
      <point x="1366" y="406"/>
      <point x="1345" y="520"/>
      <point x="1332" y="576" type="curve" smooth="yes"/>
      <point x="1135" y="1409" type="line"/>
      <point x="805" y="1409" type="line"/>
      <point x="606" y="545" type="line" smooth="yes"/>
      <point x="586" y="460"/>
      <point x="570" y="372"/>
      <point x="551" y="279" type="curve"/>
      <point x="538" y="369"/>
      <point x="514" y="473"/>
      <point x="497" y="546" type="curve" smooth="yes"/>
      <point x="301" y="1409" type="line"/>
      <point x="2" y="1409" type="line"/>
      <point x="365" y="0" type="line"/>
      <point x="715" y="0" type="line"/>
    </contour>
  </outline>
</glyph>
<glyph name="X" format="2">
  <advance width="1366"/>
  <unicode hex="0058"/>
  <note>
X
</note>
  <anchor x="680" y="1540" name="top"/>
  <anchor x="1280" y="1540" name="caronalt"/>
  <anchor x="680" y="-130" name="bottom"/>
  <anchor x="1160" y="1420" name="rhotic"/>
  <anchor x="1100" y="1300" name="horn"/>
  <anchor x="1366" y="1540" name="topdouble"/>
  <anchor x="1366" y="-380" name="bottomdouble"/>
  <anchor x="1366" y="1840" name="tophalfright"/>
  <anchor x="0" y="1840" name="tophalfleft"/>
  <anchor x="1100" y="0" name="ogonek"/>
  <outline>
    <contour>
      <point x="684" y="561" type="line"/>
      <point x="1038" y="0" type="line"/>
      <point x="1348" y="0" type="line"/>
      <point x="879" y="741" type="line"/>
      <point x="1307" y="1409" type="line"/>
      <point x="997" y="1409" type="line"/>
      <point x="684" y="911" type="line"/>
      <point x="371" y="1409" type="line"/>
      <point x="59" y="1409" type="line"/>
      <point x="506" y="741" type="line"/>
      <point x="18" y="0" type="line"/>
      <point x="330" y="0" type="line"/>
    </contour>
  </outline>
</glyph>
<glyph name="Y" format="2">
  <advance width="1366"/>
  <unicode hex="0059"/>
  <note>
Y
</note>
  <anchor x="680" y="1540" name="gpos_18_mark_to_base__MARKCLASS_0_lookup_18"/>
  <anchor x="1330" y="1540" name="gpos_18_mark_to_base__MARKCLASS_1_lookup_18"/>
  <anchor x="680" y="-130" name="gpos_18_mark_to_base__MARKCLASS_2_lookup_18"/>
  <anchor x="1200" y="1420" name="gpos_20_mark_to_base__MARKCLASS_0_lookup_20"/>
  <anchor x="1160" y="1300" name="gpos_21_mark_to_base__MARKCLASS_0_lookup_21"/>
  <anchor x="1366" y="1540" name="gpos_22_mark_to_base__MARKCLASS_0_lookup_22"/>
  <anchor x="1366" y="-380" name="gpos_22_mark_to_base__MARKCLASS_1_lookup_22"/>
  <anchor x="1366" y="1840" name="gpos_23_mark_to_base__MARKCLASS_0_lookup_23"/>
  <anchor x="0" y="1840" name="gpos_23_mark_to_base__MARKCLASS_1_lookup_23"/>
  <anchor x="600" y="0" name="gpos_24_mark_to_base__MARKCLASS_0_lookup_24"/>
  <outline>
    <contour>
      <point x="831" y="578" type="line"/>
      <point x="1333" y="1409" type="line"/>
      <point x="1024" y="1409" type="line"/>
      <point x="682" y="813" type="line"/>
      <point x="344" y="1409" type="line"/>
      <point x="35" y="1409" type="line"/>
      <point x="537" y="578" type="line"/>
      <point x="537" y="0" type="line"/>
      <point x="831" y="0" type="line"/>
    </contour>
  </outline>
</glyph>
<glyph name="Z" format="2">
  <advance width="1251"/>
  <unicode hex="005A"/>
  <note>
Z
</note>
  <anchor x="640" y="1540" name="gpos_18_mark_to_base__MARKCLASS_0_lookup_18"/>
  <anchor x="1140" y="1540" name="gpos_18_mark_to_base__MARKCLASS_1_lookup_18"/>
  <anchor x="640" y="-130" name="gpos_18_mark_to_base__MARKCLASS_2_lookup_18"/>
  <anchor x="1130" y="1420" name="gpos_20_mark_to_base__MARKCLASS_0_lookup_20"/>
  <anchor x="1100" y="1300" name="gpos_21_mark_to_base__MARKCLASS_0_lookup_21"/>
  <anchor x="1251" y="1540" name="gpos_22_mark_to_base__MARKCLASS_0_lookup_22"/>
  <anchor x="1251" y="-380" name="gpos_22_mark_to_base__MARKCLASS_1_lookup_22"/>
  <anchor x="1251" y="1840" name="gpos_23_mark_to_base__MARKCLASS_0_lookup_23"/>
  <anchor x="0" y="1840" name="gpos_23_mark_to_base__MARKCLASS_1_lookup_23"/>
  <anchor x="1030" y="0" name="gpos_24_mark_to_base__MARKCLASS_0_lookup_24"/>
  <outline>
    <contour>
      <point x="1192" y="231" type="line"/>
      <point x="389" y="231" type="line"/>
      <point x="1151" y="1204" type="line"/>
      <point x="1151" y="1409" type="line"/>
      <point x="137" y="1409" type="line"/>
      <point x="137" y="1178" type="line"/>
      <point x="823" y="1178" type="line"/>
      <point x="61" y="209" type="line"/>
      <point x="61" y="0" type="line"/>
      <point x="1192" y="0" type="line"/>
    </contour>
  </outline>
</glyph>
<glyph name="a" format="2">
  <advance width="1139"/>
  <unicode hex="0061"/>
  <note>
a
</note>
  <outline>
    <contour>
      <point x="393" y="-20" type="curve" smooth="yes"/>
      <point x="552.0" y="-20.0"/>
      <point x="670.333" y="51"/>
      <point x="749" y="193" type="curve"/>
      <point x="755" y="193" type="line"/>
      <point x="768.333" y="58.333"/>
      <point x="830.667" y="-12"/>
      <point x="972" y="-12" type="curve" smooth="yes"/>
      <point x="1043.625" y="-12"/>
      <point x="1082.614" y="-2.653"/>
      <point x="1152" y="14" type="curve"/>
      <point x="1152" y="166" type="line"/>
      <point x="1132" y="162"/>
      <point x="1111.333" y="160"/>
      <point x="1090" y="160" type="curve" smooth="yes"/>
      <point x="1026" y="160"/>
      <point x="1001" y="198.667"/>
      <point x="1001" y="320" type="curve" smooth="yes"/>
      <point x="1001" y="714" type="line" smooth="yes"/>
      <point x="1001" y="962"/>
      <point x="847.333" y="1102"/>
      <point x="574" y="1102" type="curve" smooth="yes"/>
      <point x="303.333" y="1102"/>
      <point x="145" y="991.667"/>
      <point x="109" y="781" type="curve"/>
      <point x="402" y="767" type="line"/>
      <point x="414" y="876.333"/>
      <point x="458" y="920"/>
      <point x="562" y="920" type="curve" smooth="yes"/>
      <point x="674" y="920"/>
      <point x="720" y="852.333"/>
      <point x="720" y="711" type="curve" smooth="yes"/>
      <point x="720" y="656" type="line"/>
      <point x="487" y="652" type="line" smooth="yes"/>
      <point x="209.667" y="646.667"/>
      <point x="60" y="530"/>
      <point x="60" y="306" type="curve" smooth="yes"/>
      <point x="60" y="99.333"/>
      <point x="184" y="-20"/>
    </contour>
    <contour>
      <point x="720" y="501" type="line"/>
      <point x="720" y="501" type="line"/>
      <point x="720" y="446" type="line" smooth="yes"/>
      <point x="720" y="351.333"/>
      <point x="676.167" y="260"/>
      <point x="603.5" y="212" type="curve" smooth="yes"/>
      <point x="567.167" y="188"/>
      <point x="527" y="176"/>
      <point x="483" y="176" type="curve" smooth="yes"/>
      <point x="404.333" y="176"/>
      <point x="353" y="225.333"/>
      <point x="353" y="328" type="curve" smooth="yes"/>
      <point x="353" y="408"/>
      <point x="382.333" y="454.167"/>
      <point x="437" y="477.5" type="curve" smooth="yes"/>
      <point x="464.333" y="489.167"/>
      <point x="510.667" y="496.333"/>
      <point x="576" y="499" type="curve" smooth="yes"/>
    </contour>
  </outline>
</glyph>
<glyph name="b" format="2">
  <advance width="1251"/>
  <unicode hex="0062"/>
  <note>
b
</note>
  <outline>
    <contour>
      <point x="1167" y="545" type="qcurve" smooth="yes"/>
      <point x="1167" y="811"/>
      <point x="962" y="1102"/>
      <point x="770" y="1102" type="qcurve" smooth="yes"/>
      <point x="519" y="1102"/>
      <point x="424" y="894" type="qcurve"/>
      <point x="420" y="894" type="line"/>
      <point x="424" y="1070" type="line"/>
      <point x="424" y="1484" type="line"/>
      <point x="143" y="1484" type="line"/>
      <point x="143" y="247" type="line" smooth="yes"/>
      <point x="143" y="93"/>
      <point x="135" y="0" type="qcurve"/>
      <point x="408" y="0" type="line"/>
      <point x="413" y="17"/>
      <point x="422" y="139"/>
      <point x="422" y="174" type="qcurve"/>
      <point x="424" y="174" type="line"/>
      <point x="469" y="80"/>
      <point x="637" y="-20"/>
      <point x="752" y="-20" type="qcurve" smooth="yes"/>
      <point x="952" y="-20"/>
      <point x="1167" y="277"/>
    </contour>
    <contour>
      <point x="874" y="545" type="qcurve" smooth="yes"/>
      <point x="874" y="172"/>
      <point x="651" y="172" type="qcurve" smooth="yes"/>
      <point x="537" y="172"/>
      <point x="420" y="364"/>
      <point x="420" y="536" type="qcurve" smooth="yes"/>
      <point x="420" y="716"/>
      <point x="539" y="907"/>
      <point x="653" y="907" type="qcurve" smooth="yes"/>
      <point x="766" y="907"/>
      <point x="874" y="729"/>
    </contour>
  </outline>
</glyph>
<glyph name="c" format="2">
  <advance width="1139"/>
  <unicode hex="0063"/>
  <note>
c
</note>
  <outline>
    <contour>
      <point x="594" y="-20" type="curve"/>
      <point x="594" y="-20" type="line"/>
      <point x="768.667" y="-20"/>
      <point x="913.5" y="46"/>
      <point x="999.5" y="162" type="curve" smooth="yes"/>
      <point x="1042.5" y="220"/>
      <point x="1069" y="286"/>
      <point x="1079" y="360" type="curve"/>
      <point x="797" y="373" type="line"/>
      <point x="779.667" y="239.667"/>
      <point x="702.667" y="172"/>
      <point x="596" y="172" type="curve" smooth="yes"/>
      <point x="448.667" y="172"/>
      <point x="375" y="296.667"/>
      <point x="375" y="546" type="curve" smooth="yes"/>
      <point x="375" y="788"/>
      <point x="447.333" y="909"/>
      <point x="592" y="909" type="curve" smooth="yes"/>
      <point x="709.333" y="909"/>
      <point x="772" y="837.667"/>
      <point x="788" y="727" type="curve"/>
      <point x="1071" y="741" type="line"/>
      <point x="1028.333" y="966.333"/>
      <point x="852.667" y="1102"/>
      <point x="598" y="1102" type="curve" smooth="yes"/>
      <point x="267.333" y="1102"/>
      <point x="80" y="892.333"/>
      <point x="80" y="535" type="curve" smooth="yes"/>
      <point x="80" y="185.667"/>
      <point x="266" y="-20"/>
    </contour>
  </outline>
</glyph>
<glyph name="d" format="2">
  <advance width="1251"/>
  <unicode hex="0064"/>
  <note>
d
</note>
  <outline>
    <contour>
      <point x="844" y="0" type="qcurve"/>
      <point x="1116" y="0" type="line"/>
      <point x="1108" y="136"/>
      <point x="1108" y="236" type="qcurve" smooth="yes"/>
      <point x="1108" y="1484" type="line"/>
      <point x="827" y="1484" type="line"/>
      <point x="827" y="1089" type="line"/>
      <point x="829" y="911" type="line"/>
      <point x="827" y="911" type="line"/>
      <point x="782" y="1006"/>
      <point x="615" y="1102"/>
      <point x="500" y="1102" type="qcurve" smooth="yes"/>
      <point x="301" y="1102"/>
      <point x="84" y="809"/>
      <point x="84" y="540" type="qcurve" smooth="yes"/>
      <point x="84" y="275"/>
      <point x="290" y="-20"/>
      <point x="479" y="-20" type="qcurve" smooth="yes"/>
      <point x="734" y="-20"/>
      <point x="825" y="176" type="qcurve"/>
      <point x="829" y="176" type="line"/>
      <point x="829" y="136"/>
      <point x="840" y="15"/>
    </contour>
    <contour>
      <point x="831" y="547" type="qcurve" smooth="yes"/>
      <point x="831" y="367"/>
      <point x="709" y="172"/>
      <point x="598" y="172" type="qcurve" smooth="yes"/>
      <point x="377" y="172"/>
      <point x="377" y="540" type="qcurve" smooth="yes"/>
      <point x="377" y="728"/>
      <point x="487" y="911"/>
      <point x="600" y="911" type="qcurve" smooth="yes"/>
      <point x="714" y="911"/>
      <point x="831" y="722"/>
    </contour>
  </outline>
</glyph>
<glyph name="e" format="2">
  <advance width="1139"/>
  <unicode hex="0065"/>
  <note>
e
</note>
  <anchor x="580" y="1200" name="gpos_18_mark_to_base__MARKCLASS_0_lookup_18"/>
  <anchor x="1000" y="1200" name="gpos_18_mark_to_base__MARKCLASS_1_lookup_18"/>
  <anchor x="580" y="-130" name="gpos_18_mark_to_base__MARKCLASS_2_lookup_18"/>
  <anchor x="1020" y="900" name="gpos_20_mark_to_base__MARKCLASS_0_lookup_20"/>
  <anchor x="900" y="1000" name="gpos_21_mark_to_base__MARKCLASS_0_lookup_21"/>
  <anchor x="1139" y="1540" name="gpos_22_mark_to_base__MARKCLASS_0_lookup_22"/>
  <anchor x="1139" y="-380" name="gpos_22_mark_to_base__MARKCLASS_1_lookup_22"/>
  <anchor x="1139" y="1840" name="gpos_23_mark_to_base__MARKCLASS_0_lookup_23"/>
  <anchor x="0" y="1840" name="gpos_23_mark_to_base__MARKCLASS_1_lookup_23"/>
  <anchor x="680" y="0" name="gpos_24_mark_to_base__MARKCLASS_0_lookup_24"/>
  <outline>
    <contour>
      <point x="375" y="487" type="curve"/>
      <point x="1069" y="487" type="line"/>
      <point x="1069" y="495" type="line" smooth="yes"/>
      <point x="1069" y="892"/>
      <point x="901" y="1102"/>
      <point x="590" y="1102" type="curve" smooth="yes"/>
      <point x="265" y="1102"/>
      <point x="80" y="903"/>
      <point x="80" y="546" type="curve" smooth="yes"/>
      <point x="80" y="177"/>
      <point x="261" y="-20"/>
      <point x="586" y="-20" type="curve" smooth="yes"/>
      <point x="821" y="-20"/>
      <point x="976" y="78"/>
      <point x="1053" y="274" type="curve"/>
      <point x="788" y="297" type="line"/>
      <point x="762" y="211"/>
      <point x="699" y="168"/>
      <point x="600" y="168" type="curve" smooth="yes"/>
      <point x="456" y="168"/>
      <point x="375" y="276"/>
    </contour>
    <contour>
      <point x="797" y="663" type="curve"/>
      <point x="377" y="663" type="line"/>
      <point x="381" y="828"/>
      <point x="454" y="925"/>
      <point x="586" y="925" type="curve" smooth="yes"/>
      <point x="710" y="925"/>
      <point x="786" y="838"/>
    </contour>
  </outline>
</glyph>
<glyph name="f" format="2">
  <advance width="682"/>
  <unicode hex="0066"/>
  <note>
f
</note>
  <anchor x="460" y="1580" name="top"/>
  <anchor x="700" y="1540" name="caronalt"/>
  <anchor x="340" y="-130" name="bottom"/>
  <anchor x="680" y="1500" name="rhotic"/>
  <anchor x="680" y="1440" name="horn"/>
  <anchor x="682" y="1540" name="topdouble"/>
  <anchor x="682" y="-380" name="bottomdouble"/>
  <anchor x="682" y="1840" name="tophalfright"/>
  <anchor x="0" y="1840" name="tophalfleft"/>
  <anchor x="280" y="0" name="ogonek"/>
  <outline>
    <contour>
      <point x="473" y="892" type="line"/>
      <point x="686" y="892" type="line"/>
      <point x="686" y="1082" type="line"/>
      <point x="473" y="1082" type="line"/>
      <point x="473" y="1167" type="line" smooth="yes"/>
      <point x="473" y="1263"/>
      <point x="508" y="1296"/>
      <point x="604" y="1296" type="curve" smooth="yes"/>
      <point x="631" y="1296"/>
      <point x="659" y="1293"/>
      <point x="686" y="1287" type="curve"/>
      <point x="686" y="1468" type="line"/>
      <point x="620" y="1479"/>
      <point x="561" y="1484"/>
      <point x="508" y="1484" type="curve" smooth="yes"/>
      <point x="296" y="1484"/>
      <point x="193" y="1391"/>
      <point x="193" y="1195" type="curve" smooth="yes"/>
      <point x="193" y="1082" type="line"/>
      <point x="35" y="1082" type="line"/>
      <point x="35" y="892" type="line"/>
      <point x="193" y="892" type="line"/>
      <point x="193" y="0" type="line"/>
      <point x="473" y="0" type="line"/>
    </contour>
  </outline>
</glyph>
<glyph name="g" format="2">
  <advance width="1251"/>
  <unicode hex="0067"/>
  <note>
g
</note>
  <outline>
    <contour>
      <point x="596" y="-434" type="qcurve" smooth="yes"/>
      <point x="846" y="-434"/>
      <point x="1108" y="-198"/>
      <point x="1108" y="33" type="qcurve" smooth="yes"/>
      <point x="1108" y="832" type="line" smooth="yes"/>
      <point x="1108" y="974"/>
      <point x="1114" y="1082" type="qcurve"/>
      <point x="848" y="1082" type="line"/>
      <point x="843" y="1063"/>
      <point x="834" y="943"/>
      <point x="834" y="908" type="qcurve"/>
      <point x="829" y="908" type="line"/>
      <point x="738" y="1103"/>
      <point x="502" y="1103" type="qcurve" smooth="yes"/>
      <point x="298" y="1103"/>
      <point x="84" y="815"/>
      <point x="84" y="550" type="qcurve" smooth="yes"/>
      <point x="84" y="286"/>
      <point x="292" y="2"/>
      <point x="481" y="2" type="qcurve" smooth="yes"/>
      <point x="736" y="2"/>
      <point x="829" y="201" type="qcurve"/>
      <point x="831" y="201" type="line"/>
      <point x="829" y="94" type="line"/>
      <point x="829" y="37" type="line" smooth="yes"/>
      <point x="829" y="-105"/>
      <point x="721" y="-249"/>
      <point x="604" y="-249" type="qcurve" smooth="yes"/>
      <point x="524" y="-249"/>
      <point x="425" y="-175"/>
      <point x="410" y="-110" type="qcurve"/>
      <point x="129" y="-143" type="line"/>
      <point x="157" y="-283"/>
      <point x="398" y="-434"/>
    </contour>
    <contour>
      <point x="831" y="556" type="qcurve" smooth="yes"/>
      <point x="831" y="384"/>
      <point x="712" y="197"/>
      <point x="600" y="197" type="qcurve" smooth="yes"/>
      <point x="377" y="197"/>
      <point x="377" y="550" type="qcurve" smooth="yes"/>
      <point x="377" y="910"/>
      <point x="602" y="910" type="qcurve" smooth="yes"/>
      <point x="712" y="910"/>
      <point x="831" y="723"/>
    </contour>
  </outline>
</glyph>
<glyph name="h" format="2">
  <advance width="1251"/>
  <unicode hex="0068"/>
  <note>
h
</note>
  <anchor x="640" y="1540" name="gpos_18_mark_to_base__MARKCLASS_0_lookup_18"/>
  <anchor x="1120" y="1540" name="gpos_18_mark_to_base__MARKCLASS_1_lookup_18"/>
  <anchor x="640" y="-130" name="gpos_18_mark_to_base__MARKCLASS_2_lookup_18"/>
  <anchor x="1080" y="900" name="gpos_20_mark_to_base__MARKCLASS_0_lookup_20"/>
  <anchor x="980" y="1000" name="gpos_21_mark_to_base__MARKCLASS_0_lookup_21"/>
  <anchor x="1251" y="1540" name="gpos_22_mark_to_base__MARKCLASS_0_lookup_22"/>
  <anchor x="1251" y="-380" name="gpos_22_mark_to_base__MARKCLASS_1_lookup_22"/>
  <anchor x="1251" y="1840" name="gpos_23_mark_to_base__MARKCLASS_0_lookup_23"/>
  <anchor x="0" y="1840" name="gpos_23_mark_to_base__MARKCLASS_1_lookup_23"/>
  <anchor x="920" y="0" name="gpos_24_mark_to_base__MARKCLASS_0_lookup_24"/>
  <outline>
    <contour>
      <point x="420" y="866" type="curve"/>
      <point x="416" y="866" type="line"/>
      <point x="421" y="935"/>
      <point x="424" y="1006"/>
      <point x="424" y="1079" type="curve" smooth="yes"/>
      <point x="424" y="1484" type="line"/>
      <point x="143" y="1484" type="line"/>
      <point x="143" y="0" type="line"/>
      <point x="424" y="0" type="line"/>
      <point x="424" y="579" type="line" smooth="yes"/>
      <point x="424" y="762"/>
      <point x="515" y="891"/>
      <point x="651" y="891" type="curve" smooth="yes"/>
      <point x="780" y="891"/>
      <point x="844" y="796"/>
      <point x="844" y="606" type="curve" smooth="yes"/>
      <point x="844" y="0" type="line"/>
      <point x="1124" y="0" type="line"/>
      <point x="1124" y="686" type="line" smooth="yes"/>
      <point x="1124" y="958"/>
      <point x="997" y="1102"/>
      <point x="768" y="1102" type="curve" smooth="yes"/>
      <point x="609" y="1102"/>
      <point x="496" y="1031"/>
    </contour>
  </outline>
</glyph>
<glyph name="i" format="2">
  <advance width="569"/>
  <unicode hex="0069"/>
  <note>
i
</note>
  <anchor x="280" y="1580" name="gpos_18_mark_to_base__MARKCLASS_0_lookup_18"/>
  <anchor x="420" y="1540" name="gpos_18_mark_to_base__MARKCLASS_1_lookup_18"/>
  <anchor x="280" y="-130" name="gpos_18_mark_to_base__MARKCLASS_2_lookup_18"/>
  <anchor x="410" y="1100" name="gpos_20_mark_to_base__MARKCLASS_0_lookup_20"/>
  <anchor x="380" y="1000" name="gpos_21_mark_to_base__MARKCLASS_0_lookup_21"/>
  <anchor x="569" y="1540" name="gpos_22_mark_to_base__MARKCLASS_0_lookup_22"/>
  <anchor x="569" y="-380" name="gpos_22_mark_to_base__MARKCLASS_1_lookup_22"/>
  <anchor x="569" y="1840" name="gpos_23_mark_to_base__MARKCLASS_0_lookup_23"/>
  <anchor x="0" y="1840" name="gpos_23_mark_to_base__MARKCLASS_1_lookup_23"/>
  <anchor x="200" y="0" name="gpos_24_mark_to_base__MARKCLASS_0_lookup_24"/>
  <outline>
    <contour>
      <point x="424" y="1484" type="line"/>
      <point x="143" y="1484" type="line"/>
      <point x="143" y="1277" type="line"/>
      <point x="424" y="1277" type="line"/>
    </contour>
    <contour>
      <point x="424" y="1082" type="line"/>
      <point x="143" y="1082" type="line"/>
      <point x="143" y="0" type="line"/>
      <point x="424" y="0" type="line"/>
    </contour>
  </outline>
</glyph>
<glyph name="j" format="2">
  <advance width="569"/>
  <unicode hex="006A"/>
  <note>
j
</note>
  <anchor x="280" y="1580" name="top"/>
  <anchor x="420" y="1540" name="caronalt"/>
  <anchor x="200" y="-540" name="bottom"/>
  <anchor x="410" y="1100" name="rhotic"/>
  <anchor x="380" y="1000" name="horn"/>
  <anchor x="569" y="1540" name="topdouble"/>
  <anchor x="569" y="-380" name="bottomdouble"/>
  <anchor x="569" y="1840" name="tophalfright"/>
  <anchor x="0" y="1840" name="tophalfleft"/>
  <anchor x="130" y="-400" name="ogonek"/>
  <outline>
    <contour>
      <point x="425" y="1484" type="line"/>
      <point x="144" y="1484" type="line"/>
      <point x="144" y="1277" type="line"/>
      <point x="425" y="1277" type="line"/>
    </contour>
    <contour>
      <point x="138" y="-425" type="curve" smooth="yes"/>
      <point x="327" y="-425"/>
      <point x="425" y="-319"/>
      <point x="425" y="-128" type="curve" smooth="yes"/>
      <point x="425" y="1082" type="line"/>
      <point x="144" y="1082" type="line"/>
      <point x="144" y="-60" type="line" smooth="yes"/>
      <point x="144" y="-192"/>
      <point x="115" y="-222"/>
      <point x="19" y="-222" type="curve" smooth="yes"/>
      <point x="2" y="-222"/>
      <point x="-15" y="-220"/>
      <point x="-32" y="-218" type="curve"/>
      <point x="-32" y="-416" type="line"/>
      <point x="15" y="-422"/>
      <point x="71" y="-425"/>
    </contour>
  </outline>
</glyph>
<glyph name="k" format="2">
  <advance width="1139"/>
  <unicode hex="006B"/>
  <note>
k
</note>
  <anchor x="580" y="1540" name="gpos_18_mark_to_base__MARKCLASS_0_lookup_18"/>
  <anchor x="1120" y="1540" name="gpos_18_mark_to_base__MARKCLASS_1_lookup_18"/>
  <anchor x="580" y="-130" name="gpos_18_mark_to_base__MARKCLASS_2_lookup_18"/>
  <anchor x="940" y="1100" name="gpos_20_mark_to_base__MARKCLASS_0_lookup_20"/>
  <anchor x="860" y="1000" name="gpos_21_mark_to_base__MARKCLASS_0_lookup_21"/>
  <anchor x="1139" y="1540" name="gpos_22_mark_to_base__MARKCLASS_0_lookup_22"/>
  <anchor x="1139" y="-380" name="gpos_22_mark_to_base__MARKCLASS_1_lookup_22"/>
  <anchor x="1139" y="1840" name="gpos_23_mark_to_base__MARKCLASS_0_lookup_23"/>
  <anchor x="0" y="1840" name="gpos_23_mark_to_base__MARKCLASS_1_lookup_23"/>
  <anchor x="900" y="0" name="gpos_24_mark_to_base__MARKCLASS_0_lookup_24"/>
  <outline>
    <contour>
      <point x="424" y="406" type="line"/>
      <point x="545" y="490" type="line"/>
      <point x="834" y="0" type="line"/>
      <point x="1141" y="0" type="line"/>
      <point x="732" y="660" type="line"/>
      <point x="1112" y="1082" type="line"/>
      <point x="810" y="1082" type="line"/>
      <point x="424" y="634" type="line"/>
      <point x="424" y="1484" type="line"/>
      <point x="143" y="1484" type="line"/>
      <point x="143" y="0" type="line"/>
      <point x="424" y="0" type="line"/>
    </contour>
  </outline>
</glyph>
<glyph name="l" format="2">
  <advance width="569"/>
  <unicode hex="006C"/>
  <note>
l
</note>
  <anchor x="280" y="1580" name="top"/>
  <anchor x="420" y="1540" name="caronalt"/>
  <anchor x="280" y="-130" name="bottom"/>
  <anchor x="410" y="1500" name="rhotic"/>
  <anchor x="380" y="1300" name="horn"/>
  <anchor x="569" y="1540" name="topdouble"/>
  <anchor x="569" y="-380" name="bottomdouble"/>
  <anchor x="569" y="1840" name="tophalfright"/>
  <anchor x="0" y="1840" name="tophalfleft"/>
  <anchor x="200" y="0" name="ogonek"/>
  <outline>
    <contour>
      <point x="424" y="1484" type="line"/>
      <point x="143" y="1484" type="line"/>
      <point x="143" y="0" type="line"/>
      <point x="424" y="0" type="line"/>
    </contour>
  </outline>
</glyph>
<glyph name="m" format="2">
  <advance width="1821"/>
  <unicode hex="006D"/>
  <note>
m
</note>
  <anchor x="920" y="1200" name="gpos_18_mark_to_base__MARKCLASS_0_lookup_18"/>
  <anchor x="1700" y="1200" name="gpos_18_mark_to_base__MARKCLASS_1_lookup_18"/>
  <anchor x="920" y="-130" name="gpos_18_mark_to_base__MARKCLASS_2_lookup_18"/>
  <anchor x="1680" y="900" name="gpos_20_mark_to_base__MARKCLASS_0_lookup_20"/>
  <anchor x="1600" y="1000" name="gpos_21_mark_to_base__MARKCLASS_0_lookup_21"/>
  <anchor x="1821" y="1540" name="gpos_22_mark_to_base__MARKCLASS_0_lookup_22"/>
  <anchor x="1821" y="-380" name="gpos_22_mark_to_base__MARKCLASS_1_lookup_22"/>
  <anchor x="1821" y="1840" name="gpos_23_mark_to_base__MARKCLASS_0_lookup_23"/>
  <anchor x="0" y="1840" name="gpos_23_mark_to_base__MARKCLASS_1_lookup_23"/>
  <anchor x="1480" y="0" name="gpos_24_mark_to_base__MARKCLASS_0_lookup_24"/>
  <outline>
    <contour>
      <point x="424" y="580" type="line" smooth="yes"/>
      <point x="424" y="764"/>
      <point x="503" y="892"/>
      <point x="616" y="892" type="curve" smooth="yes"/>
      <point x="725" y="892"/>
      <point x="780" y="797"/>
      <point x="780" y="607" type="curve" smooth="yes"/>
      <point x="780" y="0" type="line"/>
      <point x="1059" y="0" type="line"/>
      <point x="1059" y="593" type="line" smooth="yes"/>
      <point x="1059" y="780"/>
      <point x="1142" y="892"/>
      <point x="1251" y="892" type="curve" smooth="yes"/>
      <point x="1360" y="892"/>
      <point x="1415" y="797"/>
      <point x="1415" y="607" type="curve" smooth="yes"/>
      <point x="1415" y="0" type="line"/>
      <point x="1694" y="0" type="line"/>
      <point x="1694" y="687" type="line" smooth="yes"/>
      <point x="1694" y="955"/>
      <point x="1581" y="1103"/>
      <point x="1370" y="1103" type="curve" smooth="yes"/>
      <point x="1211" y="1103"/>
      <point x="1115" y="1035"/>
      <point x="1042" y="867" type="curve"/>
      <point x="1036" y="867" type="line"/>
      <point x="1001" y="1024"/>
      <point x="900" y="1103"/>
      <point x="735" y="1103" type="curve" smooth="yes"/>
      <point x="591" y="1103"/>
      <point x="489" y="1032"/>
      <point x="420" y="867" type="curve"/>
      <point x="416" y="867" type="line"/>
      <point x="416" y="908"/>
      <point x="407" y="1057"/>
      <point x="403" y="1082" type="curve"/>
      <point x="135" y="1082" type="line"/>
      <point x="139" y="1023"/>
      <point x="143" y="956"/>
      <point x="143" y="840" type="curve" smooth="yes"/>
      <point x="143" y="0" type="line"/>
      <point x="424" y="0" type="line"/>
    </contour>
  </outline>
</glyph>
<glyph name="n" format="2">
  <advance width="1251"/>
  <unicode hex="006E"/>
  <note>
n
</note>
  <anchor x="620" y="1200" name="gpos_18_mark_to_base__MARKCLASS_0_lookup_18"/>
  <anchor x="1120" y="1200" name="gpos_18_mark_to_base__MARKCLASS_1_lookup_18"/>
  <anchor x="620" y="-130" name="gpos_18_mark_to_base__MARKCLASS_2_lookup_18"/>
  <anchor x="1080" y="900" name="gpos_20_mark_to_base__MARKCLASS_0_lookup_20"/>
  <anchor x="980" y="1000" name="gpos_21_mark_to_base__MARKCLASS_0_lookup_21"/>
  <anchor x="1251" y="1540" name="gpos_22_mark_to_base__MARKCLASS_0_lookup_22"/>
  <anchor x="1251" y="-380" name="gpos_22_mark_to_base__MARKCLASS_1_lookup_22"/>
  <anchor x="1251" y="1840" name="gpos_23_mark_to_base__MARKCLASS_0_lookup_23"/>
  <anchor x="0" y="1840" name="gpos_23_mark_to_base__MARKCLASS_1_lookup_23"/>
  <anchor x="920" y="0" name="gpos_24_mark_to_base__MARKCLASS_0_lookup_24"/>
  <outline>
    <contour>
      <point x="424" y="580" type="line" smooth="yes"/>
      <point x="424" y="763"/>
      <point x="515" y="892"/>
      <point x="651" y="892" type="curve" smooth="yes"/>
      <point x="780" y="892"/>
      <point x="844" y="797"/>
      <point x="844" y="607" type="curve" smooth="yes"/>
      <point x="844" y="0" type="line"/>
      <point x="1124" y="0" type="line"/>
      <point x="1124" y="687" type="line" smooth="yes"/>
      <point x="1124" y="959"/>
      <point x="997" y="1103"/>
      <point x="768" y="1103" type="curve" smooth="yes"/>
      <point x="609" y="1103"/>
      <point x="496" y="1032"/>
      <point x="420" y="867" type="curve"/>
      <point x="416" y="867" type="line"/>
      <point x="416" y="908"/>
      <point x="407" y="1057"/>
      <point x="403" y="1082" type="curve"/>
      <point x="135" y="1082" type="line"/>
      <point x="139" y="1023"/>
      <point x="143" y="956"/>
      <point x="143" y="840" type="curve" smooth="yes"/>
      <point x="143" y="0" type="line"/>
      <point x="424" y="0" type="line"/>
    </contour>
  </outline>
</glyph>
<glyph name="o" format="2">
  <advance width="1251"/>
  <unicode hex="006F"/>
  <note>
o
</note>
  <anchor x="630" y="1200" name="gpos_18_mark_to_base__MARKCLASS_0_lookup_18"/>
  <anchor x="1120" y="1200" name="gpos_18_mark_to_base__MARKCLASS_1_lookup_18"/>
  <anchor x="630" y="-130" name="gpos_18_mark_to_base__MARKCLASS_2_lookup_18"/>
  <anchor x="1120" y="900" name="gpos_20_mark_to_base__MARKCLASS_0_lookup_20"/>
  <anchor x="980" y="1000" name="gpos_21_mark_to_base__MARKCLASS_0_lookup_21"/>
  <anchor x="1251" y="1540" name="gpos_22_mark_to_base__MARKCLASS_0_lookup_22"/>
  <anchor x="1251" y="-380" name="gpos_22_mark_to_base__MARKCLASS_1_lookup_22"/>
  <anchor x="1251" y="1840" name="gpos_23_mark_to_base__MARKCLASS_0_lookup_23"/>
  <anchor x="0" y="1840" name="gpos_23_mark_to_base__MARKCLASS_1_lookup_23"/>
  <anchor x="680" y="0" name="gpos_24_mark_to_base__MARKCLASS_0_lookup_24"/>
  <outline>
    <contour>
      <point x="1171" y="542" type="curve" smooth="yes"/>
      <point x="1171" y="903"/>
      <point x="980" y="1102"/>
      <point x="627" y="1102" type="curve" smooth="yes"/>
      <point x="282" y="1102"/>
      <point x="80" y="890"/>
      <point x="80" y="542" type="curve" smooth="yes"/>
      <point x="80" y="193"/>
      <point x="284" y="-20"/>
      <point x="621" y="-20" type="curve" smooth="yes"/>
      <point x="965" y="-20"/>
      <point x="1171" y="191"/>
    </contour>
    <contour>
      <point x="877" y="542" type="curve" smooth="yes"/>
      <point x="877" y="295"/>
      <point x="791" y="172"/>
      <point x="618" y="172" type="curve" smooth="yes"/>
      <point x="461" y="172"/>
      <point x="375" y="301"/>
      <point x="375" y="542" type="curve" smooth="yes"/>
      <point x="375" y="787"/>
      <point x="460" y="909"/>
      <point x="631" y="909" type="curve" smooth="yes"/>
      <point x="791" y="909"/>
      <point x="877" y="799"/>
    </contour>
  </outline>
</glyph>
<glyph name="p" format="2">
  <advance width="1251"/>
  <unicode hex="0070"/>
  <note>
p
</note>
  <anchor x="680" y="1200" name="gpos_18_mark_to_base__MARKCLASS_0_lookup_18"/>
  <anchor x="1120" y="1200" name="gpos_18_mark_to_base__MARKCLASS_1_lookup_18"/>
  <anchor x="680" y="-540" name="gpos_18_mark_to_base__MARKCLASS_2_lookup_18"/>
  <anchor x="1120" y="900" name="gpos_20_mark_to_base__MARKCLASS_0_lookup_20"/>
  <anchor x="980" y="1000" name="gpos_21_mark_to_base__MARKCLASS_0_lookup_21"/>
  <anchor x="1251" y="1540" name="gpos_22_mark_to_base__MARKCLASS_0_lookup_22"/>
  <anchor x="1251" y="-380" name="gpos_22_mark_to_base__MARKCLASS_1_lookup_22"/>
  <anchor x="1251" y="1840" name="gpos_23_mark_to_base__MARKCLASS_0_lookup_23"/>
  <anchor x="0" y="1840" name="gpos_23_mark_to_base__MARKCLASS_1_lookup_23"/>
  <anchor x="200" y="-400" name="gpos_24_mark_to_base__MARKCLASS_0_lookup_24"/>
  <outline>
    <contour>
      <point x="1167" y="546" type="curve" smooth="yes"/>
      <point x="1167" y="903"/>
      <point x="1022" y="1105"/>
      <point x="770" y="1105" type="curve" smooth="yes"/>
      <point x="603" y="1105"/>
      <point x="487" y="1039"/>
      <point x="424" y="906" type="curve"/>
      <point x="420" y="906" type="line"/>
      <point x="420" y="975"/>
      <point x="415" y="1058"/>
      <point x="408" y="1082" type="curve"/>
      <point x="135" y="1082" type="line"/>
      <point x="140" y="1018"/>
      <point x="143" y="935"/>
      <point x="143" y="833" type="curve" smooth="yes"/>
      <point x="143" y="-425" type="line"/>
      <point x="424" y="-425" type="line"/>
      <point x="424" y="-10" type="line" smooth="yes"/>
      <point x="424" y="91"/>
      <point x="422" y="152"/>
      <point x="418" y="172" type="curve"/>
      <point x="424" y="172" type="line"/>
      <point x="484" y="48"/>
      <point x="600" y="-20"/>
      <point x="752" y="-20" type="curve" smooth="yes"/>
      <point x="1016" y="-20"/>
      <point x="1167" y="185"/>
    </contour>
    <contour>
      <point x="874" y="546" type="curve" smooth="yes"/>
      <point x="874" y="297"/>
      <point x="799" y="172"/>
      <point x="649" y="172" type="curve" smooth="yes"/>
      <point x="502" y="172"/>
      <point x="420" y="305"/>
      <point x="420" y="538" type="curve" smooth="yes"/>
      <point x="420" y="773"/>
      <point x="502" y="910"/>
      <point x="651" y="910" type="curve" smooth="yes"/>
      <point x="800" y="910"/>
      <point x="874" y="789"/>
    </contour>
  </outline>
</glyph>
<glyph name="q" format="2">
  <advance width="1251"/>
  <unicode hex="0071"/>
  <note>
q
</note>
  <outline>
    <contour>
      <point x="84" y="540" type="qcurve" smooth="yes"/>
      <point x="84" y="275"/>
      <point x="290" y="-20"/>
      <point x="479" y="-20" type="qcurve" smooth="yes"/>
      <point x="739" y="-20"/>
      <point x="832" y="180" type="qcurve"/>
      <point x="834" y="180" type="line"/>
      <point x="829" y="25" type="line"/>
      <point x="829" y="-425" type="line"/>
      <point x="1108" y="-425" type="line"/>
      <point x="1108" y="833" type="line" smooth="yes"/>
      <point x="1108" y="974"/>
      <point x="1114" y="1082" type="qcurve"/>
      <point x="844" y="1082" type="line"/>
      <point x="840" y="1067"/>
      <point x="829" y="954"/>
      <point x="829" y="908" type="qcurve"/>
      <point x="738" y="1103"/>
      <point x="502" y="1103" type="qcurve" smooth="yes"/>
      <point x="303" y="1103"/>
      <point x="84" y="808"/>
    </contour>
    <contour>
      <point x="831" y="546" type="qcurve" smooth="yes"/>
      <point x="831" y="367"/>
      <point x="710" y="172"/>
      <point x="600" y="172" type="qcurve" smooth="yes"/>
      <point x="377" y="172"/>
      <point x="377" y="540" type="qcurve" smooth="yes"/>
      <point x="377" y="910"/>
      <point x="602" y="910" type="qcurve" smooth="yes"/>
      <point x="715" y="910"/>
      <point x="831" y="719"/>
    </contour>
  </outline>
</glyph>
<glyph name="r" format="2">
  <advance width="797"/>
  <unicode hex="0072"/>
  <note>
r
</note>
  <anchor x="460" y="1200" name="gpos_18_mark_to_base__MARKCLASS_0_lookup_18"/>
  <anchor x="760" y="1200" name="gpos_18_mark_to_base__MARKCLASS_1_lookup_18"/>
  <anchor x="280" y="-130" name="gpos_18_mark_to_base__MARKCLASS_2_lookup_18"/>
  <anchor x="760" y="1100" name="gpos_20_mark_to_base__MARKCLASS_0_lookup_20"/>
  <anchor x="727" y="1000" name="gpos_21_mark_to_base__MARKCLASS_0_lookup_21"/>
  <anchor x="797" y="1540" name="gpos_22_mark_to_base__MARKCLASS_0_lookup_22"/>
  <anchor x="797" y="-380" name="gpos_22_mark_to_base__MARKCLASS_1_lookup_22"/>
  <anchor x="797" y="1840" name="gpos_23_mark_to_base__MARKCLASS_0_lookup_23"/>
  <anchor x="0" y="1840" name="gpos_23_mark_to_base__MARKCLASS_1_lookup_23"/>
  <anchor x="200" y="0" name="gpos_24_mark_to_base__MARKCLASS_0_lookup_24"/>
  <outline>
    <contour>
      <point x="424" y="531" type="line" smooth="yes"/>
      <point x="424" y="754"/>
      <point x="506" y="868"/>
      <point x="646" y="868" type="curve" smooth="yes"/>
      <point x="681" y="868"/>
      <point x="721" y="863"/>
      <point x="766" y="853" type="curve"/>
      <point x="766" y="1088" type="line"/>
      <point x="744" y="1098"/>
      <point x="715" y="1103"/>
      <point x="679" y="1103" type="curve" smooth="yes"/>
      <point x="591" y="1103"/>
      <point x="536" y="1074"/>
      <point x="493" y="1012" type="curve" smooth="yes"/>
      <point x="472" y="981"/>
      <point x="447" y="927"/>
      <point x="420" y="851" type="curve"/>
      <point x="416" y="851" type="line"/>
      <point x="416" y="891"/>
      <point x="407" y="1058"/>
      <point x="403" y="1082" type="curve"/>
      <point x="135" y="1082" type="line"/>
      <point x="139" y="1021"/>
      <point x="143" y="947"/>
      <point x="143" y="828" type="curve" smooth="yes"/>
      <point x="143" y="0" type="line"/>
      <point x="424" y="0" type="line"/>
    </contour>
  </outline>
</glyph>
<glyph name="s" format="2">
  <advance width="1139"/>
  <unicode hex="0073"/>
  <note>
s
</note>
  <outline>
    <contour>
      <point x="1055" y="316" type="qcurve" smooth="yes"/>
      <point x="1055" y="409"/>
      <point x="984" y="528"/>
      <point x="865" y="604"/>
      <point x="668" y="659"/>
      <point x="541" y="685" type="qcurve" smooth="yes"/>
      <point x="450" y="703"/>
      <point x="373" y="758"/>
      <point x="373" y="805" type="qcurve" smooth="yes"/>
      <point x="373" y="865"/>
      <point x="473" y="916"/>
      <point x="573" y="916" type="qcurve" smooth="yes"/>
      <point x="675" y="916"/>
      <point x="769" y="851"/>
      <point x="781" y="785" type="qcurve"/>
      <point x="1030" y="811" type="line"/>
      <point x="1001" y="953"/>
      <point x="766" y="1103"/>
      <point x="573" y="1103" type="qcurve" smooth="yes"/>
      <point x="354" y="1103"/>
      <point x="115" y="930"/>
      <point x="115" y="775" type="qcurve" smooth="yes"/>
      <point x="115" y="681"/>
      <point x="202" y="552"/>
      <point x="368" y="471"/>
      <point x="606" y="424" type="qcurve" smooth="yes"/>
      <point x="710" y="403"/>
      <point x="797" y="342"/>
      <point x="797" y="290" type="qcurve" smooth="yes"/>
      <point x="797" y="226"/>
      <point x="689" y="166"/>
      <point x="571" y="166" type="qcurve" smooth="yes"/>
      <point x="443" y="166"/>
      <point x="340" y="230"/>
      <point x="319" y="307" type="qcurve"/>
      <point x="72" y="270" type="line"/>
      <point x="111" y="121"/>
      <point x="348" y="-20"/>
      <point x="571" y="-20" type="qcurve" smooth="yes"/>
      <point x="798" y="-20"/>
      <point x="1055" y="159"/>
    </contour>
  </outline>
</glyph>
<glyph name="u" format="2">
  <advance width="1251"/>
  <unicode hex="0075"/>
  <note>
u
</note>
  <anchor x="620" y="1200" name="gpos_18_mark_to_base__MARKCLASS_0_lookup_18"/>
  <anchor x="1120" y="1200" name="gpos_18_mark_to_base__MARKCLASS_1_lookup_18"/>
  <anchor x="620" y="-130" name="gpos_18_mark_to_base__MARKCLASS_2_lookup_18"/>
  <anchor x="1080" y="1100" name="gpos_20_mark_to_base__MARKCLASS_0_lookup_20"/>
  <anchor x="1080" y="1000" name="gpos_21_mark_to_base__MARKCLASS_0_lookup_21"/>
  <anchor x="1251" y="1540" name="gpos_22_mark_to_base__MARKCLASS_0_lookup_22"/>
  <anchor x="1251" y="-380" name="gpos_22_mark_to_base__MARKCLASS_1_lookup_22"/>
  <anchor x="1251" y="1840" name="gpos_23_mark_to_base__MARKCLASS_0_lookup_23"/>
  <anchor x="0" y="1840" name="gpos_23_mark_to_base__MARKCLASS_1_lookup_23"/>
  <anchor x="920" y="0" name="gpos_24_mark_to_base__MARKCLASS_0_lookup_24"/>
  <outline>
    <contour>
      <point x="831" y="215" type="curve"/>
      <point x="836" y="215" type="line"/>
      <point x="836" y="168"/>
      <point x="840" y="96"/>
      <point x="848" y="0" type="curve"/>
      <point x="1116" y="0" type="line"/>
      <point x="1111" y="69"/>
      <point x="1108" y="150"/>
      <point x="1108" y="242" type="curve" smooth="yes"/>
      <point x="1108" y="1082" type="line"/>
      <point x="827" y="1082" type="line"/>
      <point x="827" y="502" type="line" smooth="yes"/>
      <point x="827" y="319"/>
      <point x="736" y="190"/>
      <point x="600" y="190" type="curve" smooth="yes"/>
      <point x="472" y="190"/>
      <point x="408" y="285"/>
      <point x="408" y="475" type="curve" smooth="yes"/>
      <point x="408" y="1082" type="line"/>
      <point x="127" y="1082" type="line"/>
      <point x="127" y="395" type="line" smooth="yes"/>
      <point x="127" y="123"/>
      <point x="254" y="-20"/>
      <point x="483" y="-20" type="curve" smooth="yes"/>
      <point x="642" y="-20"/>
      <point x="756" y="51"/>
    </contour>
  </outline>
</glyph>
<glyph name="v" format="2">
  <advance width="1139"/>
  <unicode hex="0076"/>
  <note>
v
</note>
  <anchor x="560" y="1200" name="top"/>
  <anchor x="1120" y="1200" name="caronalt"/>
  <anchor x="560" y="-130" name="bottom"/>
  <anchor x="1020" y="1100" name="rhotic"/>
  <anchor x="980" y="1000" name="horn"/>
  <anchor x="1139" y="1540" name="topdouble"/>
  <anchor x="1139" y="-380" name="bottomdouble"/>
  <anchor x="1139" y="1840" name="tophalfright"/>
  <anchor x="0" y="1840" name="tophalfleft"/>
  <anchor x="440" y="0" name="ogonek"/>
  <outline>
    <contour>
      <point x="1130" y="1082" type="line"/>
      <point x="836" y="1082" type="line"/>
      <point x="635" y="459" type="line" smooth="yes"/>
      <point x="613" y="390"/>
      <point x="572" y="254"/>
      <point x="565" y="227" type="curve"/>
      <point x="528" y="360"/>
      <point x="504" y="444"/>
      <point x="494" y="477" type="curve" smooth="yes"/>
      <point x="305" y="1082" type="line"/>
      <point x="8" y="1082" type="line"/>
      <point x="395" y="0" type="line"/>
      <point x="731" y="0" type="line"/>
    </contour>
  </outline>
</glyph>
<glyph name="w" format="2">
  <advance width="1593"/>
  <unicode hex="0077"/>
  <note>
w
</note>
  <outline>
    <contour>
      <point x="1313" y="0" type="line"/>
      <point x="1597" y="1082" type="line"/>
      <point x="1337" y="1082" type="line"/>
      <point x="1181" y="387" type="line"/>
      <point x="1153" y="255" type="line"/>
      <point x="1126" y="394"/>
      <point x="1112" y="446" type="qcurve" smooth="yes"/>
      <point x="946" y="1082" type="line"/>
      <point x="645" y="1082" type="line"/>
      <point x="475" y="446" type="line"/>
      <point x="450" y="329" type="line"/>
      <point x="436" y="255" type="line"/>
      <point x="258" y="1082" type="line"/>
      <point x="-6" y="1082" type="line"/>
      <point x="274" y="0" type="line"/>
      <point x="571" y="0" type="line"/>
      <point x="745" y="658" type="line"/>
      <point x="797" y="882" type="line"/>
      <point x="832" y="705"/>
      <point x="844" y="660" type="qcurve" smooth="yes"/>
      <point x="1016" y="0" type="line"/>
    </contour>
  </outline>
</glyph>
<glyph name="x" format="2">
  <advance width="1139"/>
  <unicode hex="0078"/>
  <note>
x
</note>
  <anchor x="560" y="1200" name="top"/>
  <anchor x="1060" y="1200" name="caronalt"/>
  <anchor x="560" y="-130" name="bottom"/>
  <anchor x="940" y="1100" name="rhotic"/>
  <anchor x="900" y="1000" name="horn"/>
  <anchor x="1139" y="1540" name="topdouble"/>
  <anchor x="1139" y="-380" name="bottomdouble"/>
  <anchor x="1139" y="1840" name="tophalfright"/>
  <anchor x="0" y="1840" name="tophalfleft"/>
  <anchor x="900" y="0" name="ogonek"/>
  <outline>
    <contour>
      <point x="567" y="392" type="line"/>
      <point x="819" y="0" type="line"/>
      <point x="1124" y="0" type="line"/>
      <point x="725" y="562" type="line"/>
      <point x="1102" y="1082" type="line"/>
      <point x="797" y="1082" type="line"/>
      <point x="567" y="728" type="line"/>
      <point x="336" y="1082" type="line"/>
      <point x="33" y="1082" type="line"/>
      <point x="410" y="559" type="line"/>
      <point x="14" y="0" type="line"/>
      <point x="313" y="0" type="line"/>
    </contour>
  </outline>
</glyph>
<glyph name="y" format="2">
  <advance width="1139"/>
  <unicode hex="0079"/>
  <note>
y
</note>
  <anchor x="560" y="1200" name="gpos_18_mark_to_base__MARKCLASS_0_lookup_18"/>
  <anchor x="1120" y="1200" name="gpos_18_mark_to_base__MARKCLASS_1_lookup_18"/>
  <anchor x="460" y="-540" name="gpos_18_mark_to_base__MARKCLASS_2_lookup_18"/>
  <anchor x="1020" y="1100" name="gpos_20_mark_to_base__MARKCLASS_0_lookup_20"/>
  <anchor x="980" y="1000" name="gpos_21_mark_to_base__MARKCLASS_0_lookup_21"/>
  <anchor x="1139" y="1540" name="gpos_22_mark_to_base__MARKCLASS_0_lookup_22"/>
  <anchor x="1139" y="-380" name="gpos_22_mark_to_base__MARKCLASS_1_lookup_22"/>
  <anchor x="1139" y="1840" name="gpos_23_mark_to_base__MARKCLASS_0_lookup_23"/>
  <anchor x="0" y="1840" name="gpos_23_mark_to_base__MARKCLASS_1_lookup_23"/>
  <anchor x="280" y="-400" name="gpos_24_mark_to_base__MARKCLASS_0_lookup_24"/>
  <outline>
    <contour>
      <point x="283" y="-425" type="curve" smooth="yes"/>
      <point x="414" y="-425"/>
      <point x="505" y="-384"/>
      <point x="586" y="-273" type="curve" smooth="yes"/>
      <point x="626" y="-219"/>
      <point x="665" y="-149"/>
      <point x="700" y="-57" type="curve" smooth="yes"/>
      <point x="1128" y="1082" type="line"/>
      <point x="834" y="1082" type="line"/>
      <point x="674" y="571" type="line" smooth="yes"/>
      <point x="640" y="462"/>
      <point x="614" y="364"/>
      <point x="584" y="241" type="curve"/>
      <point x="543" y="391"/>
      <point x="510" y="502"/>
      <point x="483" y="575" type="curve" smooth="yes"/>
      <point x="313" y="1082" type="line"/>
      <point x="16" y="1082" type="line"/>
      <point x="444" y="11" type="line"/>
      <point x="382" y="-156"/>
      <point x="334" y="-220"/>
      <point x="203" y="-220" type="curve" smooth="yes"/>
      <point x="174" y="-220"/>
      <point x="141" y="-217"/>
      <point x="106" y="-212" type="curve"/>
      <point x="106" y="-412" type="line"/>
      <point x="157" y="-421"/>
      <point x="216" y="-425"/>
    </contour>
  </outline>
</glyph>
<glyph name="z" format="2">
  <advance width="1024"/>
  <unicode hex="007A"/>
  <note>
z
</note>
  <anchor x="500" y="1200" name="top"/>
  <anchor x="900" y="1200" name="caronalt"/>
  <anchor x="500" y="-130" name="bottom"/>
  <anchor x="880" y="1100" name="rhotic"/>
  <anchor x="870" y="1000" name="horn"/>
  <anchor x="1024" y="1540" name="topdouble"/>
  <anchor x="1024" y="-380" name="bottomdouble"/>
  <anchor x="1024" y="1840" name="tophalfright"/>
  <anchor x="0" y="1840" name="tophalfleft"/>
  <anchor x="740" y="0" name="ogonek"/>
  <outline>
    <contour>
      <point x="950" y="205" type="line"/>
      <point x="395" y="205" type="line"/>
      <point x="901" y="881" type="line"/>
      <point x="901" y="1082" type="line"/>
      <point x="123" y="1082" type="line"/>
      <point x="123" y="879" type="line"/>
      <point x="591" y="879" type="line"/>
      <point x="82" y="199" type="line"/>
      <point x="82" y="0" type="line"/>
      <point x="950" y="0" type="line"/>
    </contour>
  </outline>
</glyph>
<glyph name="braceleft" format="2">
  <advance width="797"/>
  <unicode hex="007B"/>
  <note>
braceleft
</note>
  <outline>
    <contour>
      <point x="557" y="-425" type="qcurve" smooth="yes"/>
      <point x="754" y="-425" type="line"/>
      <point x="754" y="-234" type="line"/>
      <point x="696" y="-234" type="line" smooth="yes"/>
      <point x="605" y="-234"/>
      <point x="524" y="-131"/>
      <point x="524" y="-25" type="qcurve" smooth="yes"/>
      <point x="524" y="276" type="line" smooth="yes"/>
      <point x="524" y="369"/>
      <point x="412" y="506"/>
      <point x="317" y="528" type="qcurve"/>
      <point x="317" y="532" type="line"/>
      <point x="409" y="551"/>
      <point x="524" y="689"/>
      <point x="524" y="784" type="qcurve" smooth="yes"/>
      <point x="524" y="1085" type="line" smooth="yes"/>
      <point x="524" y="1190"/>
      <point x="605" y="1294"/>
      <point x="696" y="1294" type="qcurve" smooth="yes"/>
      <point x="754" y="1294" type="line"/>
      <point x="754" y="1484" type="line"/>
      <point x="557" y="1484" type="line" smooth="yes"/>
      <point x="419" y="1484"/>
      <point x="262" y="1331"/>
      <point x="262" y="1185" type="qcurve" smooth="yes"/>
      <point x="262" y="857" type="line" smooth="yes"/>
      <point x="262" y="744"/>
      <point x="154" y="631"/>
      <point x="33" y="626" type="qcurve"/>
      <point x="33" y="431" type="line"/>
      <point x="152" y="429"/>
      <point x="262" y="316"/>
      <point x="262" y="202" type="qcurve" smooth="yes"/>
      <point x="262" y="-126" type="line" smooth="yes"/>
      <point x="262" y="-268"/>
      <point x="423" y="-425"/>
    </contour>
  </outline>
</glyph>
<glyph name="braceright" format="2">
  <advance width="797"/>
  <unicode hex="007D"/>
  <note>
braceright
</note>
  <outline>
    <contour>
      <point x="43" y="-234" type="line"/>
      <point x="43" y="-425" type="line"/>
      <point x="240" y="-425" type="line" smooth="yes"/>
      <point x="375" y="-425"/>
      <point x="535" y="-267"/>
      <point x="535" y="-126" type="qcurve" smooth="yes"/>
      <point x="535" y="202" type="line" smooth="yes"/>
      <point x="535" y="313"/>
      <point x="645" y="429"/>
      <point x="766" y="431" type="qcurve"/>
      <point x="766" y="626" type="line"/>
      <point x="645" y="631"/>
      <point x="535" y="745"/>
      <point x="535" y="857" type="qcurve" smooth="yes"/>
      <point x="535" y="1185" type="line" smooth="yes"/>
      <point x="535" y="1331"/>
      <point x="378" y="1484"/>
      <point x="240" y="1484" type="qcurve" smooth="yes"/>
      <point x="43" y="1484" type="line"/>
      <point x="43" y="1294" type="line"/>
      <point x="100" y="1294" type="line" smooth="yes"/>
      <point x="193" y="1294"/>
      <point x="272" y="1190"/>
      <point x="272" y="1085" type="qcurve" smooth="yes"/>
      <point x="272" y="784" type="line" smooth="yes"/>
      <point x="272" y="688"/>
      <point x="388" y="551"/>
      <point x="479" y="532" type="qcurve"/>
      <point x="479" y="528" type="line"/>
      <point x="385" y="506"/>
      <point x="272" y="368"/>
      <point x="272" y="276" type="qcurve" smooth="yes"/>
      <point x="272" y="-25" type="line" smooth="yes"/>
      <point x="272" y="-131"/>
      <point x="193" y="-234"/>
      <point x="100" y="-234" type="qcurve" smooth="yes"/>
    </contour>
  </outline>
</glyph>
<glyph name="asciitilde" format="2">
  <advance width="1196"/>
  <unicode hex="007E"/>
  <note>
asciitilde
</note>
  <outline>
    <contour>
      <point x="852" y="516" type="qcurve" smooth="yes"/>
      <point x="938" y="516"/>
      <point x="1055" y="552"/>
      <point x="1119" y="596" type="qcurve"/>
      <point x="1119" y="815" type="line"/>
      <point x="1005" y="723"/>
      <point x="871" y="723" type="qcurve" smooth="yes"/>
      <point x="826" y="723"/>
      <point x="726" y="747"/>
      <point x="594" y="793" type="qcurve" smooth="yes"/>
      <point x="457" y="840"/>
      <point x="352" y="840" type="qcurve" smooth="yes"/>
      <point x="194" y="840"/>
      <point x="81" y="756" type="qcurve"/>
      <point x="81" y="543" type="line"/>
      <point x="146" y="588"/>
      <point x="265" y="631"/>
      <point x="336" y="631" type="qcurve" smooth="yes"/>
      <point x="422" y="631"/>
      <point x="557" y="584" type="qcurve" smooth="yes"/>
      <point x="632" y="558"/>
      <point x="777" y="516"/>
    </contour>
  </outline>
</glyph>
<glyph name="cent" format="2">
  <advance width="1139"/>
  <unicode hex="00A2"/>
  <note>
cent
</note>
  <outline>
    <contour>
      <point x="588" y="340" type="curve"/>
      <point x="588" y="340" type="line"/>
      <point x="426.667" y="340"/>
      <point x="334" y="464"/>
      <point x="334" y="696" type="curve" smooth="yes"/>
      <point x="334" y="914.667"/>
      <point x="420.667" y="1044"/>
      <point x="586" y="1044" type="curve" smooth="yes"/>
      <point x="703.333" y="1044"/>
      <point x="781" y="975.333"/>
      <point x="801" y="854" type="curve"/>
      <point x="1083" y="868" type="line"/>
      <point x="1045.667" y="1069.333"/>
      <point x="893.333" y="1199.667"/>
      <point x="668" y="1225" type="curve"/>
      <point x="668" y="1409" type="line"/>
      <point x="506" y="1409" type="line"/>
      <point x="506" y="1225" type="line"/>
      <point x="212.667" y="1191.667"/>
      <point x="51" y="995.333"/>
      <point x="51" y="686" type="curve" smooth="yes"/>
      <point x="51" y="372.667"/>
      <point x="219.333" y="186"/>
      <point x="506" y="158" type="curve"/>
      <point x="506" y="-31" type="line"/>
      <point x="668" y="-31" type="line"/>
      <point x="668" y="160" type="line"/>
      <point x="905.333" y="188"/>
      <point x="1062.667" y="333"/>
      <point x="1092" y="537" type="curve"/>
      <point x="809" y="549" type="line"/>
      <point x="790.333" y="415.667"/>
      <point x="705.333" y="340"/>
    </contour>
  </outline>
</glyph>
<glyph name="sterling" format="2">
  <advance width="1139"/>
  <unicode hex="00A3"/>
  <note>
sterling
</note>
  <outline>
    <contour>
      <point x="1118" y="363" type="curve"/>
      <point x="1118" y="363" type="line"/>
      <point x="885" y="402" type="line"/>
      <point x="862.333" y="276.667"/>
      <point x="795.667" y="209"/>
      <point x="657" y="209" type="curve" smooth="yes"/>
      <point x="277" y="209" type="line"/>
      <point x="410.333" y="283.667"/>
      <point x="459" y="376.667"/>
      <point x="459" y="514" type="curve" smooth="yes"/>
      <point x="459" y="604" type="line"/>
      <point x="745" y="604" type="line"/>
      <point x="745" y="774" type="line"/>
      <point x="459" y="774" type="line"/>
      <point x="459" y="999" type="line" smooth="yes"/>
      <point x="459" y="1165.667"/>
      <point x="508.667" y="1239"/>
      <point x="630" y="1239" type="curve" smooth="yes"/>
      <point x="718" y="1239"/>
      <point x="771" y="1194.667"/>
      <point x="799" y="1092" type="curve"/>
      <point x="1032" y="1139" type="line"/>
      <point x="973.333" y="1343"/>
      <point x="850.333" y="1430"/>
      <point x="625" y="1430" type="curve" smooth="yes"/>
      <point x="342.333" y="1430"/>
      <point x="199" y="1290"/>
      <point x="199" y="1022" type="curve" smooth="yes"/>
      <point x="199" y="774" type="line"/>
      <point x="21" y="774" type="line"/>
      <point x="21" y="604" type="line"/>
      <point x="209" y="604" type="line"/>
      <point x="209" y="512" type="line" smooth="yes"/>
      <point x="209" y="372"/>
      <point x="168" y="282.333"/>
      <point x="32" y="205" type="curve"/>
      <point x="32" y="0" type="line"/>
      <point x="726" y="0" type="line" smooth="yes"/>
      <point x="927.333" y="0"/>
      <point x="1076.667" y="133.667"/>
    </contour>
  </outline>
</glyph>
<glyph name="currency" format="2">
  <advance width="1139"/>
  <unicode hex="00A4"/>
  <note>
currency
</note>
  <outline>
    <contour>
      <point x="134" y="684" type="qcurve" smooth="yes"/>
      <point x="134" y="564"/>
      <point x="192" y="465" type="qcurve"/>
      <point x="57" y="328" type="line"/>
      <point x="214" y="170" type="line"/>
      <point x="349" y="307" type="line"/>
      <point x="447" y="250"/>
      <point x="569" y="250" type="qcurve" smooth="yes"/>
      <point x="690" y="250"/>
      <point x="790" y="309" type="qcurve"/>
      <point x="923" y="174" type="line"/>
      <point x="1081" y="334" type="line"/>
      <point x="947" y="467" type="line"/>
      <point x="1005" y="566"/>
      <point x="1005" y="684" type="qcurve" smooth="yes"/>
      <point x="1005" y="804"/>
      <point x="945" y="903" type="qcurve"/>
      <point x="1081" y="1038" type="line"/>
      <point x="923" y="1196" type="line"/>
      <point x="788" y="1061" type="line"/>
      <point x="690" y="1120"/>
      <point x="569" y="1120" type="qcurve" smooth="yes"/>
      <point x="450" y="1120"/>
      <point x="349" y="1061" type="qcurve"/>
      <point x="218" y="1194" type="line"/>
      <point x="61" y="1038" type="line"/>
      <point x="194" y="905" type="line"/>
      <point x="134" y="804"/>
    </contour>
    <contour>
      <point x="360" y="686" type="qcurve" smooth="yes"/>
      <point x="360" y="773"/>
      <point x="483" y="895"/>
      <point x="569" y="895" type="qcurve" smooth="yes"/>
      <point x="655" y="895"/>
      <point x="777" y="772"/>
      <point x="777" y="686" type="qcurve" smooth="yes"/>
      <point x="777" y="601"/>
      <point x="654" y="477"/>
      <point x="569" y="477" type="qcurve" smooth="yes"/>
      <point x="482" y="477"/>
      <point x="360" y="600"/>
    </contour>
  </outline>
</glyph>
<glyph name="section" format="2">
  <advance width="1139"/>
  <unicode hex="00A7"/>
  <note>
section
</note>
  <outline>
    <contour>
      <point x="575" y="1427" type="qcurve" smooth="yes"/>
      <point x="351" y="1427"/>
      <point x="116" y="1263"/>
      <point x="116" y="1114" type="qcurve" smooth="yes"/>
      <point x="116" y="1030"/>
      <point x="214" y="894"/>
      <point x="304" y="856" type="qcurve"/>
      <point x="201" y="821"/>
      <point x="91" y="693"/>
      <point x="91" y="600" type="qcurve" smooth="yes"/>
      <point x="91" y="488"/>
      <point x="262" y="332"/>
      <point x="468" y="283" type="qcurve" smooth="yes"/>
      <point x="653" y="239"/>
      <point x="756" y="194"/>
      <point x="804" y="134"/>
      <point x="804" y="86" type="qcurve" smooth="yes"/>
      <point x="804" y="6"/>
      <point x="678" y="-59"/>
      <point x="556" y="-59" type="qcurve" smooth="yes"/>
      <point x="433" y="-59"/>
      <point x="310" y="16"/>
      <point x="290" y="96" type="qcurve"/>
      <point x="53" y="59" type="line"/>
      <point x="92" y="-90"/>
      <point x="333" y="-229"/>
      <point x="556" y="-229" type="qcurve" smooth="yes"/>
      <point x="789" y="-229"/>
      <point x="1040" y="-52"/>
      <point x="1040" y="115" type="qcurve" smooth="yes"/>
      <point x="1040" y="292"/>
      <point x="859" y="371" type="qcurve"/>
      <point x="946" y="398"/>
      <point x="1056" y="541"/>
      <point x="1056" y="634" type="qcurve" smooth="yes"/>
      <point x="1056" y="721"/>
      <point x="971" y="843"/>
      <point x="810" y="925"/>
      <point x="642" y="963" type="qcurve" smooth="yes"/>
      <point x="511" y="992"/>
      <point x="412" y="1035"/>
      <point x="358" y="1092"/>
      <point x="358" y="1133" type="qcurve" smooth="yes"/>
      <point x="358" y="1198"/>
      <point x="463" y="1257"/>
      <point x="575" y="1257" type="qcurve" smooth="yes"/>
      <point x="665" y="1257"/>
      <point x="779" y="1190"/>
      <point x="792" y="1128" type="qcurve"/>
      <point x="1031" y="1153" type="line"/>
      <point x="1004" y="1286"/>
      <point x="769" y="1427"/>
    </contour>
    <contour>
      <point x="818" y="600" type="qcurve" smooth="yes"/>
      <point x="818" y="468"/>
      <point x="623" y="458" type="qcurve"/>
      <point x="487" y="489"/>
      <point x="387" y="531"/>
      <point x="333" y="586"/>
      <point x="333" y="627" type="qcurve" smooth="yes"/>
      <point x="333" y="757"/>
      <point x="526" y="780" type="qcurve"/>
      <point x="699" y="747"/>
      <point x="818" y="671"/>
    </contour>
  </outline>
</glyph>
<glyph name="copyright" format="2">
  <advance width="1509"/>
  <unicode hex="00A9"/>
  <note>
copyright
</note>
  <outline>
    <contour>
      <point x="1478" y="707" type="curve" smooth="yes"/>
      <point x="1478.0" y="966.0"/>
      <point x="1342.167" y="1202.5"/>
      <point x="1117.5" y="1332.5" type="curve" smooth="yes"/>
      <point x="1005.167" y="1397.5"/>
      <point x="884.333" y="1430"/>
      <point x="755" y="1430" type="curve" smooth="yes"/>
      <point x="497.667" y="1430"/>
      <point x="258.333" y="1292"/>
      <point x="129" y="1068" type="curve" smooth="yes"/>
      <point x="64.333" y="956"/>
      <point x="32" y="835.667"/>
      <point x="32" y="707" type="curve" smooth="yes"/>
      <point x="32" y="455"/>
      <point x="162.5" y="218.5"/>
      <point x="388.5" y="84.5" type="curve" smooth="yes"/>
      <point x="501.5" y="17.5"/>
      <point x="623.667" y="-16"/>
      <point x="755" y="-16" type="curve" smooth="yes"/>
      <point x="1012.333" y="-16"/>
      <point x="1252.833" y="120.833"/>
      <point x="1381.5" y="345.5" type="curve" smooth="yes"/>
      <point x="1445.833" y="457.833"/>
      <point x="1478" y="578"/>
    </contour>
    <contour>
      <point x="1366" y="707" type="curve" smooth="yes"/>
      <point x="1366.0" y="490.0"/>
      <point x="1250.333" y="287.333"/>
      <point x="1061" y="178" type="curve" smooth="yes"/>
      <point x="966.333" y="123.333"/>
      <point x="864.333" y="96"/>
      <point x="755" y="96" type="curve" smooth="yes"/>
      <point x="536.333" y="96"/>
      <point x="337.167" y="212.667"/>
      <point x="228.5" y="402" type="curve" smooth="yes"/>
      <point x="174.167" y="496.667"/>
      <point x="147" y="598.333"/>
      <point x="147" y="707" type="curve" smooth="yes"/>
      <point x="147" y="932.333"/>
      <point x="271.333" y="1133"/>
      <point x="458" y="1237" type="curve" smooth="yes"/>
      <point x="551.333" y="1289"/>
      <point x="650.333" y="1315"/>
      <point x="755" y="1315" type="curve" smooth="yes"/>
      <point x="972.333" y="1315"/>
      <point x="1174.667" y="1197.833"/>
      <point x="1284" y="1010.5" type="curve" smooth="yes"/>
      <point x="1338.667" y="916.833"/>
      <point x="1366" y="816"/>
    </contour>
    <contour>
      <point x="544" y="709" type="curve" smooth="yes"/>
      <point x="544.0" y="888.0"/>
      <point x="618.667" y="983"/>
      <point x="764" y="983" type="curve" smooth="yes"/>
      <point x="856" y="983"/>
      <point x="921.333" y="935.333"/>
      <point x="956" y="854" type="curve"/>
      <point x="1112" y="895" type="line"/>
      <point x="1048" y="1051"/>
      <point x="932.333" y="1124"/>
      <point x="759" y="1124" type="curve" smooth="yes"/>
      <point x="504.333" y="1124"/>
      <point x="364" y="979.667"/>
      <point x="364" y="709" type="curve" smooth="yes"/>
      <point x="364" y="439.667"/>
      <point x="510.667" y="285"/>
      <point x="768" y="285" type="curve" smooth="yes"/>
      <point x="933.333" y="285"/>
      <point x="1046.667" y="355.333"/>
      <point x="1124" y="522" type="curve"/>
      <point x="964" y="569" type="line"/>
      <point x="926.667" y="477"/>
      <point x="856" y="426"/>
      <point x="768" y="426" type="curve" smooth="yes"/>
      <point x="626.667" y="426"/>
      <point x="544" y="529"/>
    </contour>
  </outline>
</glyph>
<glyph name="ordfeminine" format="2">
  <advance width="758"/>
  <unicode hex="00AA"/>
  <note>
ordfeminine
</note>
  <outline>
    <contour>
      <point x="257" y="725" type="qcurve" smooth="yes"/>
      <point x="407" y="725"/>
      <point x="479" y="862" type="qcurve"/>
      <point x="482" y="862" type="line"/>
      <point x="487" y="801"/>
      <point x="568" y="728"/>
      <point x="639" y="728" type="qcurve" smooth="yes"/>
      <point x="693" y="728"/>
      <point x="758" y="746" type="qcurve"/>
      <point x="758" y="855" type="line"/>
      <point x="709" y="850" type="line"/>
      <point x="676" y="850"/>
      <point x="658" y="899"/>
      <point x="658" y="947" type="qcurve" smooth="yes"/>
      <point x="658" y="1184" type="line" smooth="yes"/>
      <point x="658" y="1297"/>
      <point x="509" y="1419"/>
      <point x="371" y="1419" type="qcurve" smooth="yes"/>
      <point x="245" y="1419"/>
      <point x="88" y="1314"/>
      <point x="70" y="1216" type="qcurve"/>
      <point x="260" y="1207" type="line"/>
      <point x="270" y="1301"/>
      <point x="372" y="1301" type="qcurve" smooth="yes"/>
      <point x="476" y="1301"/>
      <point x="476" y="1182" type="qcurve" smooth="yes"/>
      <point x="476" y="1140" type="line"/>
      <point x="329" y="1138" type="line" smooth="yes"/>
      <point x="45" y="1133"/>
      <point x="45" y="927" type="qcurve" smooth="yes"/>
      <point x="45" y="830"/>
      <point x="160" y="725"/>
    </contour>
    <contour>
      <point x="328" y="856" type="qcurve" smooth="yes"/>
      <point x="234" y="856"/>
      <point x="234" y="941" type="qcurve" smooth="yes"/>
      <point x="234" y="991"/>
      <point x="296" y="1039"/>
      <point x="384" y="1042" type="qcurve" smooth="yes"/>
      <point x="476" y="1044" type="line"/>
      <point x="476" y="1017" type="line" smooth="yes"/>
      <point x="476" y="952"/>
      <point x="389" y="856"/>
    </contour>
  </outline>
</glyph>
<glyph name="registered" format="2">
  <advance width="1509"/>
  <unicode hex="00AE"/>
  <note>
registered
</note>
  <outline>
    <contour>
      <point x="1478" y="707" type="qcurve" smooth="yes"/>
      <point x="1478" y="901"/>
      <point x="1286" y="1235"/>
      <point x="949" y="1430"/>
      <point x="755" y="1430" type="qcurve" smooth="yes"/>
      <point x="562" y="1430"/>
      <point x="226" y="1236"/>
      <point x="32" y="900"/>
      <point x="32" y="707" type="qcurve" smooth="yes"/>
      <point x="32" y="518"/>
      <point x="219" y="185"/>
      <point x="558" y="-16"/>
      <point x="755" y="-16" type="qcurve" smooth="yes"/>
      <point x="948" y="-16"/>
      <point x="1285" y="177"/>
      <point x="1478" y="514"/>
    </contour>
    <contour>
      <point x="1366" y="707" type="qcurve" smooth="yes"/>
      <point x="1366" y="544"/>
      <point x="1203" y="260"/>
      <point x="919" y="96"/>
      <point x="755" y="96" type="qcurve" smooth="yes"/>
      <point x="591" y="96"/>
      <point x="310" y="260"/>
      <point x="147" y="544"/>
      <point x="147" y="707" type="qcurve" smooth="yes"/>
      <point x="147" y="876"/>
      <point x="318" y="1159"/>
      <point x="598" y="1315"/>
      <point x="755" y="1315" type="qcurve" smooth="yes"/>
      <point x="918" y="1315"/>
      <point x="1202" y="1151"/>
      <point x="1366" y="870"/>
    </contour>
    <contour>
      <point x="923" y="297" type="line"/>
      <point x="1124" y="297" type="line"/>
      <point x="911" y="633" type="line"/>
      <point x="989" y="658"/>
      <point x="1085" y="776"/>
      <point x="1085" y="870" type="qcurve" smooth="yes"/>
      <point x="1085" y="983"/>
      <point x="933" y="1112"/>
      <point x="780" y="1112" type="qcurve" smooth="yes"/>
      <point x="450" y="1112" type="line"/>
      <point x="450" y="297" type="line"/>
      <point x="628" y="297" type="line"/>
      <point x="628" y="610" type="line"/>
      <point x="745" y="610" type="line"/>
    </contour>
    <contour>
      <point x="905" y="868" type="qcurve" smooth="yes"/>
      <point x="905" y="810"/>
      <point x="838" y="739"/>
      <point x="772" y="739" type="qcurve" smooth="yes"/>
      <point x="628" y="739" type="line"/>
      <point x="628" y="985" type="line"/>
      <point x="761" y="985" type="line" smooth="yes"/>
      <point x="830" y="985"/>
      <point x="905" y="925"/>
    </contour>
  </outline>
</glyph>
<glyph name="degree" format="2">
  <advance width="819"/>
  <unicode hex="00B0"/>
  <note>
degree
</note>
  <outline>
    <contour>
      <point x="731" y="1110" type="qcurve" smooth="yes"/>
      <point x="731" y="1240"/>
      <point x="545" y="1425"/>
      <point x="410" y="1425" type="qcurve" smooth="yes"/>
      <point x="322" y="1425"/>
      <point x="175" y="1342"/>
      <point x="90" y="1196"/>
      <point x="90" y="1110" type="qcurve" smooth="yes"/>
      <point x="90" y="977"/>
      <point x="278" y="795"/>
      <point x="410" y="795" type="qcurve" smooth="yes"/>
      <point x="544" y="795"/>
      <point x="731" y="980"/>
    </contour>
    <contour>
      <point x="573" y="1110" type="qcurve" smooth="yes"/>
      <point x="573" y="1040"/>
      <point x="477" y="942"/>
      <point x="410" y="942" type="qcurve" smooth="yes"/>
      <point x="342" y="942"/>
      <point x="244" y="1041"/>
      <point x="244" y="1110" type="qcurve" smooth="yes"/>
      <point x="244" y="1179"/>
      <point x="339" y="1276"/>
      <point x="410" y="1276" type="qcurve" smooth="yes"/>
      <point x="480" y="1276"/>
      <point x="573" y="1180"/>
    </contour>
  </outline>
</glyph>
<glyph name="twosuperior" format="2">
  <advance width="682"/>
  <unicode hex="00B2"/>
  <note>
twosuperior
</note>
  <outline>
    <contour>
      <point x="53" y="694" type="line"/>
      <point x="639" y="694" type="line"/>
      <point x="639" y="832" type="line"/>
      <point x="277" y="832" type="line"/>
      <point x="293" y="865"/>
      <point x="370" y="927"/>
      <point x="473" y="993" type="qcurve" smooth="yes"/>
      <point x="626" y="1091"/>
      <point x="626" y="1216" type="qcurve" smooth="yes"/>
      <point x="626" y="1315"/>
      <point x="478" y="1426"/>
      <point x="347" y="1426" type="qcurve" smooth="yes"/>
      <point x="223" y="1426"/>
      <point x="71" y="1305"/>
      <point x="58" y="1206" type="qcurve"/>
      <point x="252" y="1201" type="line"/>
      <point x="262" y="1299"/>
      <point x="347" y="1299" type="qcurve" smooth="yes"/>
      <point x="428" y="1299"/>
      <point x="428" y="1208" type="qcurve" smooth="yes"/>
      <point x="428" y="1169"/>
      <point x="364" y="1096"/>
      <point x="277" y="1040" type="qcurve" smooth="yes"/>
      <point x="186" y="981"/>
      <point x="80" y="876"/>
      <point x="51" y="815" type="qcurve"/>
    </contour>
  </outline>
</glyph>
<glyph name="threesuperior" format="2">
  <advance width="682"/>
  <unicode hex="00B3"/>
  <note>
threesuperior
</note>
  <outline>
    <contour>
      <point x="638" y="895" type="qcurve" smooth="yes"/>
      <point x="638" y="964"/>
      <point x="550" y="1056"/>
      <point x="467" y="1065" type="qcurve"/>
      <point x="467" y="1067" type="line"/>
      <point x="546" y="1083"/>
      <point x="619" y="1174"/>
      <point x="619" y="1238" type="qcurve" smooth="yes"/>
      <point x="619" y="1323"/>
      <point x="476" y="1426"/>
      <point x="348" y="1426" type="qcurve" smooth="yes"/>
      <point x="223" y="1426"/>
      <point x="70" y="1316"/>
      <point x="59" y="1222" type="qcurve"/>
      <point x="245" y="1210" type="line"/>
      <point x="255" y="1299"/>
      <point x="343" y="1299" type="qcurve" smooth="yes"/>
      <point x="386" y="1299"/>
      <point x="432" y="1255"/>
      <point x="432" y="1216" type="qcurve" smooth="yes"/>
      <point x="432" y="1173"/>
      <point x="368" y="1126"/>
      <point x="305" y="1126" type="qcurve" smooth="yes"/>
      <point x="254" y="1126" type="line"/>
      <point x="254" y="1000" type="line"/>
      <point x="310" y="1000" type="line" smooth="yes"/>
      <point x="449" y="1000"/>
      <point x="449" y="907" type="qcurve" smooth="yes"/>
      <point x="449" y="811"/>
      <point x="347" y="811" type="qcurve" smooth="yes"/>
      <point x="243" y="811"/>
      <point x="233" y="904" type="qcurve"/>
      <point x="44" y="892" type="line"/>
      <point x="57" y="788"/>
      <point x="215" y="684"/>
      <point x="350" y="684" type="qcurve" smooth="yes"/>
      <point x="488" y="684"/>
      <point x="638" y="796"/>
    </contour>
  </outline>
</glyph>
<glyph name="mu1" format="2">
  <advance width="1180"/>
  <unicode hex="00B5"/>
  <note>
mu1
</note>
  <outline>
    <contour>
      <point x="789" y="0" type="curve"/>
      <point x="789" y="0" type="line"/>
      <point x="1057" y="0" type="line"/>
      <point x="1051.667" y="74.667"/>
      <point x="1049" y="155.333"/>
      <point x="1049" y="242" type="curve" smooth="yes"/>
      <point x="1049" y="1082" type="line"/>
      <point x="768" y="1082" type="line"/>
      <point x="768" y="504" type="line" smooth="yes"/>
      <point x="768" y="292"/>
      <point x="708.667" y="193"/>
      <point x="590" y="193" type="curve" smooth="yes"/>
      <point x="470" y="193"/>
      <point x="415" y="277"/>
      <point x="415" y="477" type="curve" smooth="yes"/>
      <point x="415" y="1082" type="line"/>
      <point x="134" y="1082" type="line"/>
      <point x="134" y="-426" type="line"/>
      <point x="415" y="-426" type="line"/>
      <point x="415" y="-45" type="line" smooth="yes"/>
      <point x="415" y="3"/>
      <point x="413.667" y="41.333"/>
      <point x="411" y="70" type="curve"/>
      <point x="415" y="70" type="line"/>
      <point x="445.667" y="14"/>
      <point x="501.667" y="-20"/>
      <point x="571" y="-20" type="curve" smooth="yes"/>
      <point x="676.333" y="-20"/>
      <point x="729" y="29.333"/>
      <point x="773" y="144" type="curve"/>
      <point x="776" y="144" type="line"/>
      <point x="776" y="114.667"/>
      <point x="780.333" y="66.667"/>
    </contour>
  </outline>
</glyph>
<glyph name="paragraph" format="2">
  <advance width="1139"/>
  <unicode hex="00B6"/>
  <note>
paragraph
</note>
  <outline>
    <contour>
      <point x="940" y="1266" type="line"/>
      <point x="1071" y="1266" type="line"/>
      <point x="1071" y="1409" type="line"/>
      <point x="442" y="1409" type="line" smooth="yes"/>
      <point x="268" y="1409"/>
      <point x="71" y="1218"/>
      <point x="71" y="1049" type="qcurve" smooth="yes"/>
      <point x="71" y="879"/>
      <point x="265" y="694"/>
      <point x="434" y="694" type="qcurve"/>
      <point x="434" y="-264" type="line"/>
      <point x="589" y="-264" type="line"/>
      <point x="589" y="1266" type="line"/>
      <point x="784" y="1266" type="line"/>
      <point x="784" y="-264" type="line"/>
      <point x="940" y="-264" type="line"/>
    </contour>
  </outline>
</glyph>
<glyph name="cedilla" format="2">
  <advance width="682"/>
  <unicode hex="00B8"/>
  <note>
cedilla
</note>
  <outline>
    <contour>
      <point x="500" y="-235" type="qcurve" smooth="yes"/>
      <point x="500" y="-169"/>
      <point x="409" y="-87"/>
      <point x="315" y="-82" type="qcurve"/>
      <point x="348" y="0" type="line"/>
      <point x="205" y="0" type="line"/>
      <point x="143" y="-172" type="line"/>
      <point x="157" y="-170"/>
      <point x="195" y="-170" type="qcurve" smooth="yes"/>
      <point x="261" y="-170"/>
      <point x="317" y="-204"/>
      <point x="317" y="-239" type="qcurve" smooth="yes"/>
      <point x="317" y="-308"/>
      <point x="180" y="-308" type="qcurve" smooth="yes"/>
      <point x="131" y="-308"/>
      <point x="96" y="-301" type="qcurve"/>
      <point x="96" y="-419" type="line"/>
      <point x="152" y="-425"/>
      <point x="197" y="-425" type="qcurve" smooth="yes"/>
      <point x="344" y="-425"/>
      <point x="500" y="-329"/>
    </contour>
  </outline>
</glyph>
<glyph name="ordmasculine" format="2">
  <advance width="748"/>
  <unicode hex="00BA"/>
  <note>
ordmasculine
</note>
  <outline>
    <contour>
      <point x="713" y="1073" type="curve" smooth="yes"/>
      <point x="713.0" y="1297.0"/>
      <point x="592.333" y="1419"/>
      <point x="379" y="1419" type="curve" smooth="yes"/>
      <point x="168.333" y="1419"/>
      <point x="45" y="1289"/>
      <point x="45" y="1073" type="curve" smooth="yes"/>
      <point x="45" y="854.333"/>
      <point x="172.333" y="725"/>
      <point x="375" y="725" type="curve" smooth="yes"/>
      <point x="587" y="725"/>
      <point x="713" y="857"/>
    </contour>
    <contour>
      <point x="513" y="1073" type="curve" smooth="yes"/>
      <point x="513.0" y="930.0"/>
      <point x="474" y="865"/>
      <point x="374" y="865" type="curve" smooth="yes"/>
      <point x="284.667" y="865"/>
      <point x="243" y="931.667"/>
      <point x="243" y="1073" type="curve" smooth="yes"/>
      <point x="243" y="1211.667"/>
      <point x="283.667" y="1276"/>
      <point x="381" y="1276" type="curve" smooth="yes"/>
      <point x="478.333" y="1276"/>
      <point x="513" y="1214"/>
    </contour>
  </outline>
</glyph>
<glyph name="questiondown" format="2">
  <advance width="1251"/>
  <unicode hex="00BF"/>
  <note>
questiondown
</note>
  <outline>
    <contour>
      <point x="114" y="56" type="qcurve" smooth="yes"/>
      <point x="114" y="-133"/>
      <point x="385" y="-348"/>
      <point x="622" y="-348" type="qcurve" smooth="yes"/>
      <point x="846" y="-348"/>
      <point x="1126" y="-122"/>
      <point x="1153" y="81" type="qcurve"/>
      <point x="868" y="93" type="line"/>
      <point x="856" y="-4"/>
      <point x="719" y="-122"/>
      <point x="618" y="-122" type="qcurve" smooth="yes"/>
      <point x="512" y="-122"/>
      <point x="397" y="-20"/>
      <point x="397" y="68" type="qcurve" smooth="yes"/>
      <point x="397" y="138"/>
      <point x="485" y="250"/>
      <point x="592" y="325" type="qcurve" smooth="yes"/>
      <point x="691" y="393"/>
      <point x="795" y="554"/>
      <point x="801" y="656" type="qcurve"/>
      <point x="534" y="656" type="line"/>
      <point x="531" y="596"/>
      <point x="464" y="496"/>
      <point x="397" y="447" type="qcurve" smooth="yes"/>
      <point x="320" y="392" type="line" smooth="yes"/>
      <point x="201" y="307"/>
      <point x="114" y="153"/>
    </contour>
    <contour>
      <point x="809" y="1082" type="line"/>
      <point x="520" y="1082" type="line"/>
      <point x="520" y="812" type="line"/>
      <point x="809" y="812" type="line"/>
    </contour>
  </outline>
</glyph>
<glyph name="AE" format="2">
  <advance width="2048"/>
  <unicode hex="00C6"/>
  <note>
AE
</note>
  <anchor x="1300" y="1540" name="gpos_18_mark_to_base__MARKCLASS_0_lookup_18"/>
  <anchor x="1920" y="1540" name="gpos_18_mark_to_base__MARKCLASS_1_lookup_18"/>
  <anchor x="1060" y="-130" name="gpos_18_mark_to_base__MARKCLASS_2_lookup_18"/>
  <anchor x="2048" y="1840" name="gpos_22_mark_to_base__MARKCLASS_0_lookup_22"/>
  <anchor x="2048" y="-380" name="gpos_22_mark_to_base__MARKCLASS_1_lookup_22"/>
  <anchor x="2048" y="1840" name="gpos_23_mark_to_base__MARKCLASS_0_lookup_23"/>
  <anchor x="0" y="1840" name="gpos_23_mark_to_base__MARKCLASS_1_lookup_23"/>
  <anchor x="1780" y="0" name="gpos_24_mark_to_base__MARKCLASS_0_lookup_24"/>
  <outline>
    <contour>
      <point x="481" y="360" type="line"/>
      <point x="931" y="360" type="line"/>
      <point x="931" y="0" type="line"/>
      <point x="1968" y="0" type="line"/>
      <point x="1968" y="227" type="line"/>
      <point x="1226" y="227" type="line"/>
      <point x="1226" y="606" type="line"/>
      <point x="1865" y="606" type="line"/>
      <point x="1865" y="827" type="line"/>
      <point x="1226" y="827" type="line"/>
      <point x="1226" y="1182" type="line"/>
      <point x="1927" y="1182" type="line"/>
      <point x="1927" y="1409" type="line"/>
      <point x="704" y="1409" type="line"/>
      <point x="4" y="0" type="line"/>
      <point x="309" y="0" type="line"/>
    </contour>
    <contour>
      <point x="583" y="582" type="line"/>
      <point x="870" y="1192" type="line"/>
      <point x="931" y="1192" type="line"/>
      <point x="931" y="582" type="line"/>
    </contour>
  </outline>
</glyph>
<glyph name="Eth" format="2">
  <advance width="1479"/>
  <unicode hex="00D0"/>
  <note>
Eth
</note>
  <outline>
    <contour>
      <point x="1393" y="715" type="curve" smooth="yes"/>
      <point x="1393" y="1162"/>
      <point x="1121.667" y="1409"/>
      <point x="647" y="1409" type="curve" smooth="yes"/>
      <point x="137" y="1409" type="line"/>
      <point x="137" y="813" type="line"/>
      <point x="8" y="813" type="line"/>
      <point x="8" y="594" type="line"/>
      <point x="137" y="594" type="line"/>
      <point x="137" y="0" type="line"/>
      <point x="707" y="0" type="line" smooth="yes"/>
      <point x="1110.513388425149" y="0.0"/>
      <point x="1393" y="265"/>
    </contour>
    <contour>
      <point x="1096" y="715" type="curve" smooth="yes"/>
      <point x="1096.0" y="415.0"/>
      <point x="936.667" y="231"/>
      <point x="682" y="231" type="curve" smooth="yes"/>
      <point x="432" y="231" type="line"/>
      <point x="432" y="594" type="line"/>
      <point x="788" y="594" type="line"/>
      <point x="788" y="813" type="line"/>
      <point x="432" y="813" type="line"/>
      <point x="432" y="1178" type="line"/>
      <point x="641" y="1178" type="line" smooth="yes"/>
      <point x="935.667" y="1178"/>
      <point x="1096" y="1015"/>
    </contour>
  </outline>
</glyph>
<glyph name="multiply" format="2">
  <advance width="1196"/>
  <unicode hex="00D7"/>
  <note>
multiply
</note>
  <outline>
    <contour>
      <point x="86" y="326" type="line"/>
      <point x="244" y="168" type="line"/>
      <point x="600" y="526" type="line"/>
      <point x="952" y="172" type="line"/>
      <point x="1110" y="332" type="line"/>
      <point x="758" y="682" type="line"/>
      <point x="1110" y="1036" type="line"/>
      <point x="952" y="1194" type="line"/>
      <point x="600" y="842" type="line"/>
      <point x="248" y="1192" type="line"/>
      <point x="90" y="1036" type="line"/>
      <point x="442" y="684" type="line"/>
    </contour>
  </outline>
</glyph>
<glyph name="Oslash" format="2">
  <advance width="1593"/>
  <unicode hex="00D8"/>
  <note>
Oslash
</note>
  <outline>
    <contour>
      <point x="147" y="-73" type="line"/>
      <point x="147" y="-73" type="line"/>
      <point x="342" y="-72" type="line"/>
      <point x="433" y="57" type="line"/>
      <point x="531.667" y="5.667"/>
      <point x="651.667" y="-20"/>
      <point x="793" y="-20" type="curve" smooth="yes"/>
      <point x="1083.667" y="-20"/>
      <point x="1305" y="101.333"/>
      <point x="1421" y="324" type="curve" smooth="yes"/>
      <point x="1479" y="435.333"/>
      <point x="1508" y="564.333"/>
      <point x="1508" y="711" type="curve" smooth="yes"/>
      <point x="1508" y="951"/>
      <point x="1431.333" y="1144.667"/>
      <point x="1282" y="1270" type="curve"/>
      <point x="1424" y="1473" type="line"/>
      <point x="1231" y="1473" type="line"/>
      <point x="1149" y="1356" type="line"/>
      <point x="1045" y="1405.333"/>
      <point x="927" y="1430"/>
      <point x="795" y="1430" type="curve" smooth="yes"/>
      <point x="348.333" y="1430"/>
      <point x="84" y="1163"/>
      <point x="84" y="711" type="curve" smooth="yes"/>
      <point x="84" y="465"/>
      <point x="156.333" y="276.333"/>
      <point x="301" y="145" type="curve"/>
    </contour>
    <contour>
      <point x="1207" y="711" type="curve"/>
      <point x="1207" y="711" type="line"/>
      <point x="1207" y="392.333"/>
      <point x="1058.333" y="211"/>
      <point x="793" y="211" type="curve" smooth="yes"/>
      <point x="711.667" y="211"/>
      <point x="640.667" y="229.333"/>
      <point x="580" y="266" type="curve"/>
      <point x="1121" y="1038" type="line"/>
      <point x="1178.333" y="955.333"/>
      <point x="1207" y="846.333"/>
    </contour>
    <contour>
      <point x="381" y="711" type="curve"/>
      <point x="381" y="711" type="line"/>
      <point x="381" y="1017.667"/>
      <point x="531" y="1198"/>
      <point x="795" y="1198" type="curve" smooth="yes"/>
      <point x="873" y="1198"/>
      <point x="942.667" y="1181"/>
      <point x="1004" y="1147" type="curve"/>
      <point x="465" y="379" type="line"/>
      <point x="409" y="463.667"/>
      <point x="381" y="574.333"/>
    </contour>
  </outline>
</glyph>
<glyph name="Thorn" format="2">
  <advance width="1366"/>
  <unicode hex="00DE"/>
  <note>
Thorn
</note>
  <outline>
    <contour>
      <point x="1296" y="737" type="qcurve" smooth="yes"/>
      <point x="1296" y="949"/>
      <point x="1024" y="1176"/>
      <point x="770" y="1176" type="qcurve" smooth="yes"/>
      <point x="432" y="1176" type="line"/>
      <point x="432" y="1409" type="line"/>
      <point x="137" y="1409" type="line"/>
      <point x="137" y="0" type="line"/>
      <point x="432" y="0" type="line"/>
      <point x="432" y="283" type="line"/>
      <point x="782" y="283" type="line" smooth="yes"/>
      <point x="942" y="283"/>
      <point x="1175" y="397"/>
      <point x="1296" y="603"/>
    </contour>
    <contour>
      <point x="999" y="733" type="qcurve" smooth="yes"/>
      <point x="999" y="619"/>
      <point x="866" y="492"/>
      <point x="745" y="492" type="qcurve" smooth="yes"/>
      <point x="432" y="492" type="line"/>
      <point x="432" y="967" type="line"/>
      <point x="737" y="967" type="line" smooth="yes"/>
      <point x="868" y="967"/>
      <point x="999" y="843"/>
    </contour>
  </outline>
</glyph>
<glyph name="germandbls" format="2">
  <advance width="1251"/>
  <unicode hex="00DF"/>
  <note>
germandbls
</note>
  <outline>
    <contour>
      <point x="1193" y="312" type="curve"/>
      <point x="1193" y="312" type="line"/>
      <point x="1193" y="432.667"/>
      <point x="1137" y="534.667"/>
      <point x="1025" y="618" type="curve" smooth="yes"/>
      <point x="940.333" y="680.667"/>
      <point x="891.167" y="719.5"/>
      <point x="877.5" y="734.5" type="curve" smooth="yes"/>
      <point x="863.833" y="749.5"/>
      <point x="857" y="765.333"/>
      <point x="857" y="782" type="curve" smooth="yes"/>
      <point x="857" y="822.211"/>
      <point x="921.781" y="871.325"/>
      <point x="969.5" y="915" type="curve" smooth="yes"/>
      <point x="1008.833" y="951"/>
      <point x="1043.5" y="995.833"/>
      <point x="1065.5" y="1052.5" type="curve" smooth="yes"/>
      <point x="1076.5" y="1080.833"/>
      <point x="1082" y="1113"/>
      <point x="1082" y="1149" type="curve" smooth="yes"/>
      <point x="1082" y="1355.667"/>
      <point x="912.667" y="1484"/>
      <point x="638" y="1484" type="curve" smooth="yes"/>
      <point x="318" y="1484"/>
      <point x="143" y="1319"/>
      <point x="143" y="1007" type="curve" smooth="yes"/>
      <point x="143" y="0" type="line"/>
      <point x="424" y="0" type="line"/>
      <point x="424" y="1013" type="line" smooth="yes"/>
      <point x="424" y="1201"/>
      <point x="497.667" y="1281"/>
      <point x="635" y="1281" type="curve" smooth="yes"/>
      <point x="752.333" y="1281"/>
      <point x="816" y="1224.667"/>
      <point x="816" y="1138" type="curve" smooth="yes"/>
      <point x="816" y="1078"/>
      <point x="786.333" y="1030"/>
      <point x="705" y="958" type="curve" smooth="yes"/>
      <point x="629" y="891.333"/>
      <point x="593" y="832"/>
      <point x="593" y="760" type="curve" smooth="yes"/>
      <point x="593" y="658"/>
      <point x="649.333" y="570.667"/>
      <point x="762" y="498" type="curve" smooth="yes"/>
      <point x="886" y="416.667"/>
      <point x="931" y="365.333"/>
      <point x="931" y="296" type="curve" smooth="yes"/>
      <point x="931" y="220"/>
      <point x="884" y="170"/>
      <point x="776" y="170" type="curve" smooth="yes"/>
      <point x="713.333" y="170"/>
      <point x="610.667" y="198.333"/>
      <point x="544" y="229" type="curve"/>
      <point x="544" y="23" type="line"/>
      <point x="621.333" y="-5.667"/>
      <point x="708.667" y="-20"/>
      <point x="806" y="-20" type="curve" smooth="yes"/>
      <point x="1054" y="-20"/>
      <point x="1193" y="96"/>
    </contour>
  </outline>
</glyph>
<glyph name="ae" format="2">
  <advance width="1821"/>
  <unicode hex="00E6"/>
  <note>
ae
</note>
  <outline>
    <contour>
      <point x="1253" y="-20" type="qcurve" smooth="yes"/>
      <point x="1605" y="-20"/>
      <point x="1720" y="274" type="qcurve"/>
      <point x="1455" y="297" type="line"/>
      <point x="1416" y="168"/>
      <point x="1267" y="168" type="qcurve" smooth="yes"/>
      <point x="1160" y="168"/>
      <point x="1042" y="330"/>
      <point x="1042" y="476" type="qcurve"/>
      <point x="1736" y="476" type="line"/>
      <point x="1736" y="495" type="line" smooth="yes"/>
      <point x="1736" y="793"/>
      <point x="1490" y="1102"/>
      <point x="1257" y="1102" type="qcurve" smooth="yes"/>
      <point x="1049" y="1102"/>
      <point x="919" y="995" type="qcurve"/>
      <point x="803" y="1102"/>
      <point x="586" y="1102" type="qcurve" smooth="yes"/>
      <point x="378" y="1102"/>
      <point x="141" y="938"/>
      <point x="115" y="781" type="qcurve"/>
      <point x="408" y="767" type="line"/>
      <point x="417" y="846"/>
      <point x="493" y="920"/>
      <point x="578" y="920" type="qcurve" smooth="yes"/>
      <point x="666" y="920"/>
      <point x="746" y="819"/>
      <point x="746" y="711" type="qcurve" smooth="yes"/>
      <point x="746" y="656" type="line"/>
      <point x="506" y="652" type="line" smooth="yes"/>
      <point x="288" y="647"/>
      <point x="66" y="472"/>
      <point x="66" y="306" type="qcurve" smooth="yes"/>
      <point x="66" y="152"/>
      <point x="245" y="-20"/>
      <point x="406" y="-20" type="qcurve" smooth="yes"/>
      <point x="686" y="-20"/>
      <point x="819" y="209" type="qcurve"/>
      <point x="943" y="-20"/>
    </contour>
    <contour>
      <point x="496" y="176" type="qcurve" smooth="yes"/>
      <point x="434" y="176"/>
      <point x="359" y="251"/>
      <point x="359" y="328" type="qcurve" smooth="yes"/>
      <point x="359" y="388"/>
      <point x="404" y="460"/>
      <point x="490" y="495"/>
      <point x="594" y="499" type="qcurve" smooth="yes"/>
      <point x="746" y="501" type="line"/>
      <point x="746" y="456" type="line" smooth="yes"/>
      <point x="746" y="384"/>
      <point x="681" y="254"/>
      <point x="565" y="176"/>
    </contour>
    <contour>
      <point x="1253" y="925" type="qcurve" smooth="yes"/>
      <point x="1346" y="925"/>
      <point x="1456" y="794"/>
      <point x="1464" y="663" type="qcurve"/>
      <point x="1044" y="663" type="line"/>
      <point x="1047" y="787"/>
      <point x="1154" y="925"/>
    </contour>
  </outline>
</glyph>
<glyph name="eth" format="2">
  <advance width="1251"/>
  <unicode hex="00F0"/>
  <note>
eth
</note>
  <outline>
    <contour>
      <point x="856" y="1266" type="qcurve"/>
      <point x="977" y="1315" type="line"/>
      <point x="977" y="1503" type="line"/>
      <point x="709" y="1390" type="line"/>
      <point x="645" y="1436"/>
      <point x="549" y="1484" type="qcurve"/>
      <point x="256" y="1484" type="line"/>
      <point x="426" y="1379"/>
      <point x="514" y="1308" type="qcurve"/>
      <point x="348" y="1238" type="line"/>
      <point x="348" y="1054" type="line"/>
      <point x="640" y="1176" type="line"/>
      <point x="726" y="1077"/>
      <point x="790" y="941" type="qcurve"/>
      <point x="732" y="973"/>
      <point x="627" y="973" type="qcurve" smooth="yes"/>
      <point x="369" y="973"/>
      <point x="80" y="711"/>
      <point x="80" y="479" type="qcurve" smooth="yes"/>
      <point x="80" y="248"/>
      <point x="372" y="-18"/>
      <point x="623" y="-18" type="qcurve" smooth="yes"/>
      <point x="882" y="-18"/>
      <point x="1171" y="276"/>
      <point x="1171" y="537" type="qcurve" smooth="yes"/>
      <point x="1171" y="541" type="line" smooth="yes"/>
      <point x="1171" y="946"/>
    </contour>
    <contour>
      <point x="877" y="477" type="qcurve" smooth="yes"/>
      <point x="877" y="316"/>
      <point x="743" y="172"/>
      <point x="618" y="172" type="qcurve" smooth="yes"/>
      <point x="499" y="172"/>
      <point x="375" y="329"/>
      <point x="375" y="477" type="qcurve" smooth="yes"/>
      <point x="375" y="780"/>
      <point x="631" y="780" type="qcurve" smooth="yes"/>
      <point x="751" y="780"/>
      <point x="877" y="637"/>
    </contour>
  </outline>
</glyph>
<glyph name="oslash" format="2">
  <advance width="1251"/>
  <unicode hex="00F8"/>
  <note>
oslash
</note>
  <outline>
    <contour>
      <point x="1171" y="542" type="curve"/>
      <point x="1171" y="542" type="line"/>
      <point x="1171" y="704"/>
      <point x="1133.333" y="832.333"/>
      <point x="1058" y="927" type="curve"/>
      <point x="1242" y="1133" type="line"/>
      <point x="1058" y="1133" type="line"/>
      <point x="957" y="1019" type="line"/>
      <point x="869.667" y="1074.333"/>
      <point x="759.667" y="1102"/>
      <point x="627" y="1102" type="curve" smooth="yes"/>
      <point x="281.667" y="1102"/>
      <point x="80" y="890"/>
      <point x="80" y="542" type="curve" smooth="yes"/>
      <point x="80" y="384.667"/>
      <point x="119.333" y="257.333"/>
      <point x="198" y="160" type="curve"/>
      <point x="1" y="-55" type="line"/>
      <point x="184" y="-55" type="line"/>
      <point x="297" y="69" type="line"/>
      <point x="385" y="9.667"/>
      <point x="493" y="-20"/>
      <point x="621" y="-20" type="curve" smooth="yes"/>
      <point x="965" y="-20"/>
      <point x="1171" y="191.333"/>
    </contour>
    <contour>
      <point x="375" y="542" type="curve"/>
      <point x="375" y="542" type="line"/>
      <point x="375" y="786.667"/>
      <point x="460.333" y="909"/>
      <point x="631" y="909" type="curve" smooth="yes"/>
      <point x="703" y="909"/>
      <point x="759" y="886"/>
      <point x="799" y="840" type="curve"/>
      <point x="392" y="379" type="line"/>
      <point x="380.667" y="426.333"/>
      <point x="375" y="480.667"/>
    </contour>
    <contour>
      <point x="877" y="542" type="curve"/>
      <point x="877" y="542" type="line"/>
      <point x="877" y="295.333"/>
      <point x="790.667" y="172"/>
      <point x="618" y="172" type="curve" smooth="yes"/>
      <point x="550" y="172"/>
      <point x="495.333" y="196"/>
      <point x="454" y="244" type="curve"/>
      <point x="861" y="704" type="line"/>
      <point x="871.667" y="658.667"/>
      <point x="877" y="604.667"/>
    </contour>
  </outline>
</glyph>
<glyph name="thorn" format="2">
  <advance width="1251"/>
  <unicode hex="00FE"/>
  <note>
thorn
</note>
  <outline>
    <contour>
      <point x="143" y="1484" type="line"/>
      <point x="143" y="1484" type="line"/>
      <point x="143" y="-425" type="line"/>
      <point x="424" y="-425" type="line"/>
      <point x="424" y="-10" type="line" smooth="yes"/>
      <point x="424" y="91.333"/>
      <point x="422" y="152"/>
      <point x="418" y="172" type="curve"/>
      <point x="424" y="172" type="line"/>
      <point x="484" y="48"/>
      <point x="600" y="-20"/>
      <point x="752" y="-20" type="curve" smooth="yes"/>
      <point x="1016" y="-20"/>
      <point x="1167" y="177.333"/>
      <point x="1167" y="520" type="curve" smooth="yes"/>
      <point x="1167" y="856"/>
      <point x="1024.667" y="1053"/>
      <point x="770" y="1053" type="curve" smooth="yes"/>
      <point x="602.667" y="1053"/>
      <point x="487.333" y="986.667"/>
      <point x="424" y="854" type="curve"/>
      <point x="420" y="854" type="line"/>
      <point x="421" y="910"/>
      <point x="424.0" y="966"/>
      <point x="424" y="1022" type="curve" smooth="yes"/>
      <point x="424" y="1484" type="line"/>
    </contour>
    <contour>
      <point x="874" y="520" type="curve" smooth="yes"/>
      <point x="874.0" y="288.0"/>
      <point x="799" y="172"/>
      <point x="649" y="172" type="curve" smooth="yes"/>
      <point x="502.333" y="172"/>
      <point x="420" y="294.667"/>
      <point x="420" y="512" type="curve" smooth="yes"/>
      <point x="420" y="729.333"/>
      <point x="500.333" y="858"/>
      <point x="651" y="858" type="curve" smooth="yes"/>
      <point x="800.333" y="858"/>
      <point x="874" y="749"/>
    </contour>
  </outline>
</glyph>
<glyph name="dcroat" format="2">
  <advance width="1251"/>
  <unicode hex="0111"/>
  <note>
dcroat
</note>
  <outline>
    <contour>
      <point x="827" y="1345" type="line"/>
      <point x="827" y="1345" type="line"/>
      <point x="541" y="1345" type="line"/>
      <point x="541" y="1175" type="line"/>
      <point x="827" y="1175" type="line"/>
      <point x="827" y="1049" type="line"/>
      <point x="829" y="871" type="line"/>
      <point x="827" y="871" type="line"/>
      <point x="767" y="997.667"/>
      <point x="653.333" y="1062"/>
      <point x="500" y="1062" type="curve" smooth="yes"/>
      <point x="233.333" y="1062"/>
      <point x="84" y="867.667"/>
      <point x="84" y="521" type="curve" smooth="yes"/>
      <point x="84" y="177"/>
      <point x="228.333" y="-20"/>
      <point x="479" y="-20" type="curve" smooth="yes"/>
      <point x="649.667" y="-20"/>
      <point x="765.333" y="45.333"/>
      <point x="826" y="176" type="curve"/>
      <point x="830" y="176" type="line"/>
      <point x="830" y="122.667"/>
      <point x="839.667" y="20"/>
      <point x="845" y="0" type="curve"/>
      <point x="1117" y="0" type="line"/>
      <point x="1111.667" y="90.667"/>
      <point x="1109" y="169.333"/>
      <point x="1109" y="236" type="curve" smooth="yes"/>
      <point x="1109" y="1175" type="line"/>
      <point x="1241" y="1175" type="line"/>
      <point x="1241" y="1345" type="line"/>
      <point x="1109" y="1345" type="line"/>
      <point x="1109" y="1484" type="line"/>
      <point x="827" y="1484" type="line"/>
    </contour>
    <contour>
      <point x="831" y="529" type="curve"/>
      <point x="831" y="529" type="line"/>
      <point x="831" y="302.333"/>
      <point x="748.667" y="172"/>
      <point x="598" y="172" type="curve" smooth="yes"/>
      <point x="450.667" y="172"/>
      <point x="377" y="288.667"/>
      <point x="377" y="522" type="curve" smooth="yes"/>
      <point x="377" y="764.667"/>
      <point x="449.333" y="874"/>
      <point x="600" y="874" type="curve" smooth="yes"/>
      <point x="753.333" y="874"/>
      <point x="831" y="751.667"/>
    </contour>
  </outline>
</glyph>
<glyph name="Hbar" format="2">
  <advance width="1479"/>
  <unicode hex="0126"/>
  <note>
Hbar
</note>
  <anchor x="740" y="1540" name="gpos_18_mark_to_base__MARKCLASS_0_lookup_18"/>
  <anchor x="1330" y="1540" name="gpos_18_mark_to_base__MARKCLASS_1_lookup_18"/>
  <anchor x="730" y="-130" name="gpos_18_mark_to_base__MARKCLASS_2_lookup_18"/>
  <anchor x="1479" y="1540" name="gpos_22_mark_to_base__MARKCLASS_0_lookup_22"/>
  <anchor x="1479" y="-380" name="gpos_22_mark_to_base__MARKCLASS_1_lookup_22"/>
  <anchor x="1479" y="1840" name="gpos_23_mark_to_base__MARKCLASS_0_lookup_23"/>
  <anchor x="0" y="1840" name="gpos_23_mark_to_base__MARKCLASS_1_lookup_23"/>
  <anchor x="1100" y="0" name="gpos_24_mark_to_base__MARKCLASS_0_lookup_24"/>
  <outline>
    <contour>
      <point x="432" y="604" type="line"/>
      <point x="1057" y="604" type="line"/>
      <point x="1057" y="0" type="line"/>
      <point x="1341" y="0" type="line"/>
      <point x="1341" y="1045" type="line"/>
      <point x="1465" y="1045" type="line"/>
      <point x="1465" y="1215" type="line"/>
      <point x="1341" y="1215" type="line"/>
      <point x="1341" y="1409" type="line"/>
      <point x="1057" y="1409" type="line"/>
      <point x="1057" y="1215" type="line"/>
      <point x="432" y="1215" type="line"/>
      <point x="432" y="1409" type="line"/>
      <point x="137" y="1409" type="line"/>
      <point x="137" y="1215" type="line"/>
      <point x="14" y="1215" type="line"/>
      <point x="14" y="1045" type="line"/>
      <point x="137" y="1045" type="line"/>
      <point x="137" y="0" type="line"/>
      <point x="432" y="0" type="line"/>
    </contour>
    <contour>
      <point x="432" y="848" type="line"/>
      <point x="432" y="1045" type="line"/>
      <point x="1057" y="1045" type="line"/>
      <point x="1057" y="848" type="line"/>
    </contour>
  </outline>
</glyph>
<glyph name="hbar" format="2">
  <advance width="1251"/>
  <unicode hex="0127"/>
  <note>
hbar
</note>
  <anchor x="640" y="1580" name="gpos_18_mark_to_base__MARKCLASS_0_lookup_18"/>
  <anchor x="1120" y="1540" name="gpos_18_mark_to_base__MARKCLASS_1_lookup_18"/>
  <anchor x="640" y="-130" name="gpos_18_mark_to_base__MARKCLASS_2_lookup_18"/>
  <anchor x="1251" y="1540" name="gpos_22_mark_to_base__MARKCLASS_0_lookup_22"/>
  <anchor x="1251" y="-380" name="gpos_22_mark_to_base__MARKCLASS_1_lookup_22"/>
  <anchor x="1251" y="1840" name="gpos_23_mark_to_base__MARKCLASS_0_lookup_23"/>
  <anchor x="0" y="1840" name="gpos_23_mark_to_base__MARKCLASS_1_lookup_23"/>
  <anchor x="920" y="0" name="gpos_24_mark_to_base__MARKCLASS_0_lookup_24"/>
  <outline>
    <contour>
      <point x="420" y="826" type="curve"/>
      <point x="416" y="826" type="line"/>
      <point x="421" y="895"/>
      <point x="424" y="966"/>
      <point x="424" y="1039" type="curve" smooth="yes"/>
      <point x="424" y="1175" type="line"/>
      <point x="730" y="1175" type="line"/>
      <point x="730" y="1345" type="line"/>
      <point x="424" y="1345" type="line"/>
      <point x="424" y="1484" type="line"/>
      <point x="143" y="1484" type="line"/>
      <point x="143" y="1345" type="line"/>
      <point x="10" y="1345" type="line"/>
      <point x="10" y="1175" type="line"/>
      <point x="143" y="1175" type="line"/>
      <point x="143" y="0" type="line"/>
      <point x="424" y="0" type="line"/>
      <point x="424" y="539" type="line" smooth="yes"/>
      <point x="424" y="722"/>
      <point x="515" y="851"/>
      <point x="651" y="851" type="curve" smooth="yes"/>
      <point x="780" y="851"/>
      <point x="844" y="756"/>
      <point x="844" y="566" type="curve" smooth="yes"/>
      <point x="844" y="0" type="line"/>
      <point x="1124" y="0" type="line"/>
      <point x="1124" y="646" type="line" smooth="yes"/>
      <point x="1124" y="918"/>
      <point x="997" y="1062"/>
      <point x="768" y="1062" type="curve" smooth="yes"/>
      <point x="609" y="1062"/>
      <point x="496" y="991"/>
    </contour>
  </outline>
</glyph>
<glyph name="dotlessi" format="2">
  <advance width="569"/>
  <unicode hex="0131"/>
  <note>
dotlessi
</note>
  <anchor x="290" y="1200" name="gpos_18_mark_to_base__MARKCLASS_0_lookup_18"/>
  <anchor x="420" y="1260" name="gpos_18_mark_to_base__MARKCLASS_1_lookup_18"/>
  <anchor x="280" y="-130" name="gpos_18_mark_to_base__MARKCLASS_2_lookup_18"/>
  <anchor x="410" y="1100" name="gpos_20_mark_to_base__MARKCLASS_0_lookup_20"/>
  <anchor x="569" y="1540" name="gpos_22_mark_to_base__MARKCLASS_0_lookup_22"/>
  <anchor x="569" y="-380" name="gpos_22_mark_to_base__MARKCLASS_1_lookup_22"/>
  <anchor x="569" y="1840" name="gpos_23_mark_to_base__MARKCLASS_0_lookup_23"/>
  <anchor x="0" y="1840" name="gpos_23_mark_to_base__MARKCLASS_1_lookup_23"/>
  <anchor x="210" y="0" name="gpos_24_mark_to_base__MARKCLASS_0_lookup_24"/>
  <outline>
    <contour>
      <point x="426" y="1082" type="line"/>
      <point x="145" y="1082" type="line"/>
      <point x="145" y="0" type="line"/>
      <point x="426" y="0" type="line"/>
    </contour>
  </outline>
</glyph>
<glyph name="jcircumflex" format="2">
  <advance width="569"/>
  <unicode hex="0135"/>
  <note>
jcircumflex
</note>
  <anchor x="280" y="1580" name="top"/>
  <anchor x="700" y="1260" name="caronalt"/>
  <anchor x="200" y="-540" name="bottom"/>
  <anchor x="569" y="1540" name="topdouble"/>
  <anchor x="569" y="-380" name="bottomdouble"/>
  <anchor x="569" y="1840" name="tophalfright"/>
  <anchor x="0" y="1840" name="tophalfleft"/>
  <anchor x="130" y="-400" name="ogonek"/>
  <outline>
    <contour>
      <point x="281" y="1375" type="line"/>
      <point x="285" y="1375" type="line"/>
      <point x="488" y="1183" type="line"/>
      <point x="647" y="1183" type="line"/>
      <point x="647" y="1211" type="line"/>
      <point x="397" y="1529" type="line"/>
      <point x="168" y="1529" type="line"/>
      <point x="-90" y="1211" type="line"/>
      <point x="-90" y="1183" type="line"/>
      <point x="70" y="1183" type="line"/>
    </contour>
    <contour>
      <point x="138" y="-425" type="curve" smooth="yes"/>
      <point x="327" y="-425"/>
      <point x="425" y="-319"/>
      <point x="425" y="-128" type="curve" smooth="yes"/>
      <point x="425" y="1082" type="line"/>
      <point x="144" y="1082" type="line"/>
      <point x="144" y="-60" type="line" smooth="yes"/>
      <point x="144" y="-192"/>
      <point x="115" y="-222"/>
      <point x="19" y="-222" type="curve"/>
      <point x="-32" y="-218" type="line"/>
      <point x="-32" y="-416" type="line"/>
      <point x="15" y="-422"/>
      <point x="71" y="-425"/>
    </contour>
  </outline>
</glyph>
<glyph name="kgreenlandic" format="2">
  <advance width="1139"/>
  <unicode hex="0138"/>
  <note>
kgreenlandic
</note>
  <anchor x="580" y="1200" name="top"/>
  <anchor x="1120" y="1260" name="caronalt"/>
  <anchor x="580" y="-130" name="bottom"/>
  <anchor x="1139" y="1540" name="topdouble"/>
  <anchor x="1139" y="-380" name="bottomdouble"/>
  <anchor x="1139" y="1840" name="tophalfright"/>
  <anchor x="0" y="1840" name="tophalfleft"/>
  <anchor x="900" y="0" name="ogonek"/>
  <outline>
    <contour>
      <point x="424" y="406" type="line"/>
      <point x="545" y="490" type="line"/>
      <point x="834" y="0" type="line"/>
      <point x="1141" y="0" type="line"/>
      <point x="732" y="660" type="line"/>
      <point x="1112" y="1082" type="line"/>
      <point x="810" y="1082" type="line"/>
      <point x="424" y="634" type="line"/>
      <point x="424" y="1082" type="line"/>
      <point x="143" y="1082" type="line"/>
      <point x="143" y="0" type="line"/>
      <point x="424" y="0" type="line"/>
    </contour>
  </outline>
</glyph>
<glyph name="Lslash" format="2">
  <advance width="1251"/>
  <unicode hex="0141"/>
  <note>
Lslash
</note>
  <anchor x="620" y="1540" name="gpos_18_mark_to_base__MARKCLASS_0_lookup_18"/>
  <anchor x="1100" y="1540" name="gpos_18_mark_to_base__MARKCLASS_1_lookup_18"/>
  <anchor x="620" y="-130" name="gpos_18_mark_to_base__MARKCLASS_2_lookup_18"/>
  <anchor x="1251" y="1540" name="gpos_22_mark_to_base__MARKCLASS_0_lookup_22"/>
  <anchor x="1251" y="-380" name="gpos_22_mark_to_base__MARKCLASS_1_lookup_22"/>
  <anchor x="1251" y="1840" name="gpos_23_mark_to_base__MARKCLASS_0_lookup_23"/>
  <anchor x="0" y="1840" name="gpos_23_mark_to_base__MARKCLASS_1_lookup_23"/>
  <anchor x="940" y="0" name="gpos_24_mark_to_base__MARKCLASS_0_lookup_24"/>
  <outline>
    <contour>
      <point x="136" y="0" type="line"/>
      <point x="1188" y="0" type="line"/>
      <point x="1188" y="231" type="line"/>
      <point x="432" y="231" type="line"/>
      <point x="432" y="627" type="line"/>
      <point x="739" y="774" type="line"/>
      <point x="739" y="997" type="line"/>
      <point x="432" y="850" type="line"/>
      <point x="432" y="1409" type="line"/>
      <point x="137" y="1409" type="line"/>
      <point x="137" y="709" type="line"/>
      <point x="0" y="643" type="line"/>
      <point x="0" y="418" type="line"/>
      <point x="137" y="483" type="line"/>
    </contour>
  </outline>
</glyph>
<glyph name="lslash" format="2">
  <advance width="569"/>
  <unicode hex="0142"/>
  <note>
lslash
</note>
  <anchor x="280" y="1580" name="top"/>
  <anchor x="475" y="1540" name="caronalt"/>
  <anchor x="280" y="-130" name="bottom"/>
  <anchor x="569" y="1540" name="topdouble"/>
  <anchor x="569" y="-380" name="bottomdouble"/>
  <anchor x="569" y="1840" name="tophalfright"/>
  <anchor x="0" y="1840" name="tophalfleft"/>
  <anchor x="220" y="0" name="ogonek"/>
  <outline>
    <contour>
      <point x="143" y="0" type="line"/>
      <point x="424" y="0" type="line"/>
      <point x="424" y="717" type="line"/>
      <point x="553" y="793" type="line"/>
      <point x="553" y="1006" type="line"/>
      <point x="424" y="932" type="line"/>
      <point x="424" y="1484" type="line"/>
      <point x="143" y="1484" type="line"/>
      <point x="143" y="776" type="line"/>
      <point x="18" y="707" type="line"/>
      <point x="18" y="492" type="line"/>
      <point x="143" y="561" type="line"/>
    </contour>
  </outline>
</glyph>
<glyph name="Eng" format="2">
  <advance width="1481"/>
  <unicode hex="014A"/>
  <note>
Eng
</note>
  <outline>
    <contour>
      <point x="904" y="-20" type="qcurve" smooth="yes"/>
      <point x="1138" y="-20"/>
      <point x="1355" y="242"/>
      <point x="1355" y="542" type="qcurve" smooth="yes"/>
      <point x="1355" y="889" type="line" smooth="yes"/>
      <point x="1355" y="1171"/>
      <point x="1147" y="1429"/>
      <point x="914" y="1429" type="qcurve" smooth="yes"/>
      <point x="758" y="1429"/>
      <point x="502" y="1285"/>
      <point x="436" y="1158" type="qcurve"/>
      <point x="432" y="1158" type="line"/>
      <point x="432" y="1288"/>
      <point x="421" y="1409" type="qcurve"/>
      <point x="133" y="1409" type="line"/>
      <point x="137" y="1092" type="line"/>
      <point x="137" y="0" type="line"/>
      <point x="432" y="0" type="line"/>
      <point x="432" y="839" type="line" smooth="yes"/>
      <point x="432" y="934"/>
      <point x="531" y="1102"/>
      <point x="701" y="1200"/>
      <point x="798" y="1200" type="qcurve" smooth="yes"/>
      <point x="943" y="1200"/>
      <point x="1071" y="1034"/>
      <point x="1071" y="848" type="qcurve" smooth="yes"/>
      <point x="1071" y="553" type="line" smooth="yes"/>
      <point x="1071" y="413"/>
      <point x="1039" y="277"/>
      <point x="965" y="212"/>
      <point x="902" y="212" type="qcurve" smooth="yes"/>
      <point x="855" y="212"/>
      <point x="773" y="261"/>
      <point x="721" y="329" type="qcurve"/>
      <point x="519" y="158" type="line"/>
      <point x="593" y="59"/>
      <point x="772" y="-20"/>
    </contour>
  </outline>
</glyph>
<glyph name="eng" format="2">
  <advance width="1251"/>
  <unicode hex="014B"/>
  <note>
eng
</note>
  <anchor x="620" y="1200" name="gpos_18_mark_to_base__MARKCLASS_0_lookup_18"/>
  <anchor x="1120" y="1260" name="gpos_18_mark_to_base__MARKCLASS_1_lookup_18"/>
  <anchor x="620" y="-540" name="gpos_18_mark_to_base__MARKCLASS_2_lookup_18"/>
  <anchor x="1251" y="1540" name="gpos_22_mark_to_base__MARKCLASS_0_lookup_22"/>
  <anchor x="1251" y="-380" name="gpos_22_mark_to_base__MARKCLASS_1_lookup_22"/>
  <anchor x="1251" y="1840" name="gpos_23_mark_to_base__MARKCLASS_0_lookup_23"/>
  <anchor x="0" y="1840" name="gpos_23_mark_to_base__MARKCLASS_1_lookup_23"/>
  <anchor x="810" y="-400" name="gpos_24_mark_to_base__MARKCLASS_0_lookup_24"/>
  <outline>
    <contour>
      <point x="837" y="-425" type="curve" smooth="yes"/>
      <point x="1026" y="-425"/>
      <point x="1124" y="-319"/>
      <point x="1124" y="-128" type="curve" smooth="yes"/>
      <point x="1124" y="687" type="line" smooth="yes"/>
      <point x="1124" y="959"/>
      <point x="997" y="1103"/>
      <point x="768" y="1103" type="curve" smooth="yes"/>
      <point x="609" y="1103"/>
      <point x="496" y="1032"/>
      <point x="420" y="867" type="curve"/>
      <point x="416" y="867" type="line"/>
      <point x="416" y="908"/>
      <point x="407" y="1057"/>
      <point x="403" y="1082" type="curve"/>
      <point x="135" y="1082" type="line"/>
      <point x="139" y="1023"/>
      <point x="143" y="956"/>
      <point x="143" y="840" type="curve" smooth="yes"/>
      <point x="143" y="0" type="line"/>
      <point x="424" y="0" type="line"/>
      <point x="424" y="580" type="line" smooth="yes"/>
      <point x="424" y="763"/>
      <point x="515" y="892"/>
      <point x="651" y="892" type="curve" smooth="yes"/>
      <point x="780" y="892"/>
      <point x="844" y="797"/>
      <point x="844" y="607" type="curve" smooth="yes"/>
      <point x="844" y="-60" type="line" smooth="yes"/>
      <point x="844" y="-189"/>
      <point x="817" y="-222"/>
      <point x="718" y="-222" type="curve"/>
      <point x="667" y="-218" type="line"/>
      <point x="667" y="-416" type="line"/>
      <point x="714" y="-422"/>
      <point x="770" y="-425"/>
    </contour>
  </outline>
</glyph>
<glyph name="OE" format="2">
  <advance width="2048"/>
  <unicode hex="0152"/>
  <note>
OE
</note>
  <outline>
    <contour>
      <point x="992" y="0" type="curve"/>
      <point x="992" y="0" type="line"/>
      <point x="1968" y="0" type="line"/>
      <point x="1968" y="227" type="line"/>
      <point x="1260" y="227" type="line"/>
      <point x="1260" y="606" type="line"/>
      <point x="1866" y="606" type="line"/>
      <point x="1866" y="827" type="line"/>
      <point x="1260" y="827" type="line"/>
      <point x="1260" y="1182" type="line"/>
      <point x="1927" y="1182" type="line"/>
      <point x="1927" y="1409" type="line"/>
      <point x="998" y="1409" type="line"/>
      <point x="910" y="1416.333"/>
      <point x="842.333" y="1420"/>
      <point x="795" y="1420" type="curve" smooth="yes"/>
      <point x="347" y="1420"/>
      <point x="84" y="1161.667"/>
      <point x="84" y="711" type="curve" smooth="yes"/>
      <point x="84" y="260.333"/>
      <point x="347.667" y="-10"/>
      <point x="793" y="-10" type="curve" smooth="yes"/>
      <point x="864.0069943750161" y="-10.0"/>
      <point x="940.6154061319224" y="-2.7038117722396677"/>
    </contour>
    <contour>
      <point x="963" y="1169" type="curve"/>
      <point x="963" y="1169" type="line"/>
      <point x="963" y="242" type="line"/>
      <point x="927" y="228.667"/>
      <point x="870.333" y="222"/>
      <point x="793" y="222" type="curve" smooth="yes"/>
      <point x="535.667" y="222"/>
      <point x="381" y="405.667"/>
      <point x="381" y="711" type="curve" smooth="yes"/>
      <point x="381" y="1015"/>
      <point x="528.333" y="1188"/>
      <point x="795" y="1188" type="curve" smooth="yes"/>
      <point x="859.667" y="1188"/>
      <point x="915.667" y="1181.667"/>
    </contour>
  </outline>
</glyph>
<glyph name="oe" format="2">
  <advance width="1933"/>
  <unicode hex="0153"/>
  <note>
oe
</note>
  <outline>
    <contour>
      <point x="1384" y="-20" type="curve"/>
      <point x="1384" y="-20" type="line"/>
      <point x="1618.667" y="-20"/>
      <point x="1774.333" y="78"/>
      <point x="1851" y="274" type="curve"/>
      <point x="1586" y="297" type="line"/>
      <point x="1560" y="211"/>
      <point x="1497.333" y="168"/>
      <point x="1398" y="168" type="curve" smooth="yes"/>
      <point x="1255.333" y="168"/>
      <point x="1173" y="281.333"/>
      <point x="1173" y="476" type="curve"/>
      <point x="1867" y="476" type="line"/>
      <point x="1867" y="495" type="line" smooth="yes"/>
      <point x="1867" y="892.333"/>
      <point x="1698.667" y="1102"/>
      <point x="1388" y="1102" type="curve" smooth="yes"/>
      <point x="1232.667" y="1102"/>
      <point x="1110.333" y="1051"/>
      <point x="1021" y="949" type="curve"/>
      <point x="929" y="1051"/>
      <point x="797.667" y="1102"/>
      <point x="627" y="1102" type="curve" smooth="yes"/>
      <point x="281.667" y="1102"/>
      <point x="80" y="890"/>
      <point x="80" y="542" type="curve" smooth="yes"/>
      <point x="80" y="192.667"/>
      <point x="283.667" y="-20"/>
      <point x="621" y="-20" type="curve" smooth="yes"/>
      <point x="787.667" y="-20"/>
      <point x="919" y="33"/>
      <point x="1015" y="139" type="curve"/>
      <point x="1102.333" y="33"/>
      <point x="1225.333" y="-20"/>
    </contour>
    <contour>
      <point x="877" y="542" type="curve"/>
      <point x="877" y="542" type="line"/>
      <point x="877" y="295.333"/>
      <point x="790.667" y="172"/>
      <point x="618" y="172" type="curve" smooth="yes"/>
      <point x="460.667" y="172"/>
      <point x="375" y="300.667"/>
      <point x="375" y="542" type="curve" smooth="yes"/>
      <point x="375" y="786.667"/>
      <point x="460.333" y="909"/>
      <point x="631" y="909" type="curve" smooth="yes"/>
      <point x="791" y="909"/>
      <point x="877" y="799.333"/>
    </contour>
    <contour>
      <point x="1384" y="925" type="curve"/>
      <point x="1384" y="925" type="line"/>
      <point x="1508" y="925"/>
      <point x="1584.333" y="837.667"/>
      <point x="1595" y="663" type="curve"/>
      <point x="1175" y="663" type="line"/>
      <point x="1179" y="828.333"/>
      <point x="1252" y="925"/>
    </contour>
  </outline>
</glyph>
<glyph name="Tbar" format="2">
  <advance width="1251"/>
  <unicode hex="0166"/>
  <note>
Tbar
</note>
  <anchor x="620" y="1540" name="gpos_18_mark_to_base__MARKCLASS_0_lookup_18"/>
  <anchor x="1240" y="1540" name="gpos_18_mark_to_base__MARKCLASS_1_lookup_18"/>
  <anchor x="620" y="-130" name="gpos_18_mark_to_base__MARKCLASS_2_lookup_18"/>
  <anchor x="1251" y="1540" name="gpos_22_mark_to_base__MARKCLASS_0_lookup_22"/>
  <anchor x="1251" y="-380" name="gpos_22_mark_to_base__MARKCLASS_1_lookup_22"/>
  <anchor x="1251" y="1840" name="gpos_23_mark_to_base__MARKCLASS_0_lookup_23"/>
  <anchor x="0" y="1840" name="gpos_23_mark_to_base__MARKCLASS_1_lookup_23"/>
  <anchor x="550" y="0" name="gpos_24_mark_to_base__MARKCLASS_0_lookup_24"/>
  <outline>
    <contour>
      <point x="773" y="626" type="line"/>
      <point x="1001" y="626" type="line"/>
      <point x="1001" y="816" type="line"/>
      <point x="773" y="816" type="line"/>
      <point x="773" y="1181" type="line"/>
      <point x="1229" y="1181" type="line"/>
      <point x="1229" y="1409" type="line"/>
      <point x="23" y="1409" type="line"/>
      <point x="23" y="1181" type="line"/>
      <point x="478" y="1181" type="line"/>
      <point x="478" y="816" type="line"/>
      <point x="251" y="816" type="line"/>
      <point x="251" y="626" type="line"/>
      <point x="478" y="626" type="line"/>
      <point x="478" y="0" type="line"/>
      <point x="773" y="0" type="line"/>
    </contour>
  </outline>
</glyph>
<glyph name="tbar" format="2">
  <advance width="682"/>
  <unicode hex="0167"/>
  <note>
tbar
</note>
  <outline>
    <contour>
      <point x="420" y="-18" type="curve"/>
      <point x="420" y="-18" type="line"/>
      <point x="508.667" y="-18"/>
      <point x="587.667" y="-6.667"/>
      <point x="657" y="16" type="curve"/>
      <point x="657" y="190" type="line"/>
      <point x="616.333" y="180.667"/>
      <point x="585" y="176"/>
      <point x="563" y="176" type="curve" smooth="yes"/>
      <point x="479" y="176"/>
      <point x="440" y="224.667"/>
      <point x="440" y="330" type="curve" smooth="yes"/>
      <point x="440" y="473" type="line"/>
      <point x="625" y="473" type="line"/>
      <point x="625" y="663" type="line"/>
      <point x="440" y="663" type="line"/>
      <point x="440" y="892" type="line"/>
      <point x="645" y="892" type="line"/>
      <point x="645" y="1082" type="line"/>
      <point x="440" y="1082" type="line"/>
      <point x="440" y="1336" type="line"/>
      <point x="264" y="1336" type="line"/>
      <point x="176" y="1082" type="line"/>
      <point x="25" y="1082" type="line"/>
      <point x="25" y="892" type="line"/>
      <point x="162" y="892" type="line"/>
      <point x="162" y="663" type="line"/>
      <point x="35" y="663" type="line"/>
      <point x="35" y="473" type="line"/>
      <point x="162" y="473" type="line"/>
      <point x="162" y="254" type="line" smooth="yes"/>
      <point x="162" y="71.333"/>
      <point x="254.667" y="-18"/>
    </contour>
  </outline>
</glyph>
<glyph name="longs" format="2">
  <advance width="569"/>
  <unicode hex="017F"/>
  <note>
longs
</note>
  <outline>
    <contour>
      <point x="142" y="1195" type="qcurve" smooth="yes"/>
      <point x="142" y="0" type="line"/>
      <point x="422" y="0" type="line"/>
      <point x="422" y="1167" type="line" smooth="yes"/>
      <point x="422" y="1239"/>
      <point x="481" y="1296"/>
      <point x="553" y="1296" type="qcurve" smooth="yes"/>
      <point x="594" y="1296"/>
      <point x="635" y="1287" type="qcurve"/>
      <point x="635" y="1468" type="line"/>
      <point x="536" y="1484"/>
      <point x="457" y="1484" type="qcurve" smooth="yes"/>
      <point x="298" y="1484"/>
      <point x="142" y="1342"/>
    </contour>
  </outline>
</glyph>
<glyph name="uni0180" format="2">
  <advance width="1251"/>
  <unicode hex="0180"/>
  <note>
uni0180
</note>
  <outline>
    <contour>
      <point x="10" y="1345" type="line"/>
      <point x="10" y="1175" type="line"/>
      <point x="143" y="1175" type="line"/>
      <point x="143" y="247" type="line" smooth="yes"/>
      <point x="143" y="93"/>
      <point x="135" y="0" type="qcurve"/>
      <point x="408" y="0" type="line"/>
      <point x="413" y="17"/>
      <point x="422" y="139"/>
      <point x="422" y="174" type="qcurve"/>
      <point x="424" y="174" type="line"/>
      <point x="467" y="81"/>
      <point x="636" y="-20"/>
      <point x="752" y="-20" type="qcurve" smooth="yes"/>
      <point x="954" y="-20"/>
      <point x="1167" y="261"/>
      <point x="1167" y="525" type="qcurve" smooth="yes"/>
      <point x="1167" y="787"/>
      <point x="964" y="1062"/>
      <point x="770" y="1062" type="qcurve" smooth="yes"/>
      <point x="519" y="1062"/>
      <point x="424" y="854" type="qcurve"/>
      <point x="420" y="854" type="line"/>
      <point x="424" y="1030" type="line"/>
      <point x="424" y="1175" type="line"/>
      <point x="734" y="1175" type="line"/>
      <point x="734" y="1345" type="line"/>
      <point x="424" y="1345" type="line"/>
      <point x="424" y="1484" type="line"/>
      <point x="143" y="1484" type="line"/>
      <point x="143" y="1345" type="line"/>
    </contour>
    <contour>
      <point x="874" y="525" type="qcurve" smooth="yes"/>
      <point x="874" y="344"/>
      <point x="767" y="172"/>
      <point x="651" y="172" type="qcurve" smooth="yes"/>
      <point x="531" y="172"/>
      <point x="420" y="349"/>
      <point x="420" y="516" type="qcurve" smooth="yes"/>
      <point x="420" y="688"/>
      <point x="533" y="867"/>
      <point x="653" y="867" type="qcurve" smooth="yes"/>
      <point x="768" y="867"/>
      <point x="874" y="703"/>
    </contour>
  </outline>
</glyph>
<glyph name="uni0181" format="2">
  <advance width="1713"/>
  <unicode hex="0181"/>
  <note>
uni0181
</note>
  <outline>
    <contour>
      <point x="1019" y="1409" type="curve"/>
      <point x="1019" y="1409" type="line"/>
      <point x="334" y="1409" type="line" smooth="yes"/>
      <point x="132.667" y="1409"/>
      <point x="0" y="1304.333"/>
      <point x="0" y="1135" type="curve" smooth="yes"/>
      <point x="0" y="1071"/>
      <point x="10" y="1004"/>
      <point x="30" y="934" type="curve"/>
      <point x="244" y="951" type="line"/>
      <point x="223.333" y="1006.333"/>
      <point x="213" y="1051"/>
      <point x="213" y="1085" type="curve" smooth="yes"/>
      <point x="213" y="1158.333"/>
      <point x="257.333" y="1195"/>
      <point x="346" y="1195" type="curve" smooth="yes"/>
      <point x="374" y="1195" type="line"/>
      <point x="374" y="0" type="line"/>
      <point x="1079" y="0" type="line" smooth="yes"/>
      <point x="1420.333" y="0"/>
      <point x="1623" y="146"/>
      <point x="1623" y="402" type="curve" smooth="yes"/>
      <point x="1623" y="594"/>
      <point x="1501" y="714.333"/>
      <point x="1273" y="741" type="curve"/>
      <point x="1454.333" y="779.667"/>
      <point x="1542" y="895"/>
      <point x="1542" y="1055" type="curve" smooth="yes"/>
      <point x="1542" y="1287"/>
      <point x="1364.333" y="1409"/>
    </contour>
    <contour>
      <point x="1327" y="425" type="curve"/>
      <point x="1327" y="425" type="line"/>
      <point x="1327" y="287.667"/>
      <point x="1242" y="219"/>
      <point x="1054" y="219" type="curve" smooth="yes"/>
      <point x="669" y="219" type="line"/>
      <point x="669" y="623" type="line"/>
      <point x="1043" y="623" type="line" smooth="yes"/>
      <point x="1232.333" y="623"/>
      <point x="1327" y="557"/>
    </contour>
    <contour>
      <point x="1245" y="1015" type="curve"/>
      <point x="1245" y="1015" type="line"/>
      <point x="1245" y="899"/>
      <point x="1173.667" y="841"/>
      <point x="1007" y="841" type="curve" smooth="yes"/>
      <point x="669" y="841" type="line"/>
      <point x="669" y="1190" type="line"/>
      <point x="1005" y="1190" type="line" smooth="yes"/>
      <point x="1162.333" y="1190"/>
      <point x="1245" y="1141.667"/>
    </contour>
  </outline>
</glyph>
<glyph name="uni0182" format="2">
  <advance width="1472"/>
  <unicode hex="0182"/>
  <note>
uni0182
</note>
  <outline>
    <contour>
      <point x="1390" y="431" type="qcurve" smooth="yes"/>
      <point x="1390" y="626"/>
      <point x="1138" y="841"/>
      <point x="901" y="841" type="qcurve" smooth="yes"/>
      <point x="432" y="841" type="line"/>
      <point x="432" y="1182" type="line"/>
      <point x="1198" y="1182" type="line"/>
      <point x="1198" y="1409" type="line"/>
      <point x="137" y="1409" type="line"/>
      <point x="137" y="0" type="line"/>
      <point x="869" y="0" type="line" smooth="yes"/>
      <point x="1030" y="0"/>
      <point x="1267" y="108"/>
      <point x="1390" y="303"/>
    </contour>
    <contour>
      <point x="1091" y="425" type="qcurve" smooth="yes"/>
      <point x="1091" y="219"/>
      <point x="821" y="219" type="qcurve" smooth="yes"/>
      <point x="432" y="219" type="line"/>
      <point x="432" y="623" type="line"/>
      <point x="815" y="623" type="line" smooth="yes"/>
      <point x="953" y="623"/>
      <point x="1091" y="518"/>
    </contour>
  </outline>
</glyph>
<glyph name="uni0183" format="2">
  <advance width="1251"/>
  <unicode hex="0183"/>
  <note>
uni0183
</note>
  <outline>
    <contour>
      <point x="1167" y="525" type="curve"/>
      <point x="1167" y="525" type="line"/>
      <point x="1167" y="866.333"/>
      <point x="1020.667" y="1062"/>
      <point x="770" y="1062" type="curve" smooth="yes"/>
      <point x="602.667" y="1062"/>
      <point x="487.333" y="992.667"/>
      <point x="424" y="854" type="curve"/>
      <point x="420" y="854" type="line"/>
      <point x="424" y="1030" type="line"/>
      <point x="424" y="1271" type="line"/>
      <point x="885" y="1271" type="line"/>
      <point x="885" y="1484" type="line"/>
      <point x="143" y="1484" type="line"/>
      <point x="143" y="247" type="line" smooth="yes"/>
      <point x="143" y="144.333"/>
      <point x="140.333" y="62"/>
      <point x="135" y="0" type="curve"/>
      <point x="408" y="0" type="line"/>
      <point x="414.667" y="22.667"/>
      <point x="422" y="127.333"/>
      <point x="422" y="174" type="curve"/>
      <point x="424" y="174" type="line"/>
      <point x="481.333" y="50"/>
      <point x="597.333" y="-20"/>
      <point x="752" y="-20" type="curve" smooth="yes"/>
      <point x="1013.333" y="-20"/>
      <point x="1167" y="181"/>
    </contour>
    <contour>
      <point x="874" y="525" type="curve"/>
      <point x="874" y="525" type="line"/>
      <point x="874" y="289.667"/>
      <point x="799.667" y="172"/>
      <point x="651" y="172" type="curve" smooth="yes"/>
      <point x="501.667" y="172"/>
      <point x="420" y="298.667"/>
      <point x="420" y="516" type="curve" smooth="yes"/>
      <point x="420" y="742.667"/>
      <point x="505" y="867"/>
      <point x="653" y="867" type="curve" smooth="yes"/>
      <point x="800.333" y="867"/>
      <point x="874" y="753"/>
    </contour>
  </outline>
</glyph>
<glyph name="uni0184" format="2">
  <advance width="1472"/>
  <unicode hex="0184"/>
  <note>
uni0184
</note>
  <outline>
    <contour>
      <point x="1390" y="431" type="qcurve" smooth="yes"/>
      <point x="1390" y="626"/>
      <point x="1138" y="841"/>
      <point x="901" y="841" type="qcurve" smooth="yes"/>
      <point x="432" y="841" type="line"/>
      <point x="432" y="1409" type="line"/>
      <point x="357" y="1409" type="line"/>
      <point x="0" y="1182" type="line"/>
      <point x="0" y="1146" type="line"/>
      <point x="137" y="1003" type="line"/>
      <point x="137" y="0" type="line"/>
      <point x="869" y="0" type="line" smooth="yes"/>
      <point x="1030" y="0"/>
      <point x="1267" y="108"/>
      <point x="1390" y="303"/>
    </contour>
    <contour>
      <point x="1091" y="425" type="qcurve" smooth="yes"/>
      <point x="1091" y="219"/>
      <point x="821" y="219" type="qcurve" smooth="yes"/>
      <point x="432" y="219" type="line"/>
      <point x="432" y="623" type="line"/>
      <point x="815" y="623" type="line" smooth="yes"/>
      <point x="953" y="623"/>
      <point x="1091" y="518"/>
    </contour>
  </outline>
</glyph>
<glyph name="uni0185" format="2">
  <advance width="1251"/>
  <unicode hex="0185"/>
  <note>
uni0185
</note>
  <outline>
    <contour>
      <point x="0" y="1240" type="line"/>
      <point x="143" y="1097" type="line"/>
      <point x="143" y="247" type="line" smooth="yes"/>
      <point x="143" y="144.333"/>
      <point x="140.333" y="62"/>
      <point x="135" y="0" type="curve"/>
      <point x="408" y="0" type="line"/>
      <point x="414.667" y="22.667"/>
      <point x="422" y="127.333"/>
      <point x="422" y="174" type="curve"/>
      <point x="424" y="174" type="line"/>
      <point x="481.333" y="50"/>
      <point x="597.333" y="-20"/>
      <point x="752" y="-20" type="curve" smooth="yes"/>
      <point x="1018.667" y="-20"/>
      <point x="1167" y="187.667"/>
      <point x="1167" y="545" type="curve" smooth="yes"/>
      <point x="1167" y="899.667"/>
      <point x="1026" y="1102"/>
      <point x="770" y="1102" type="curve" smooth="yes"/>
      <point x="602.667" y="1102"/>
      <point x="487.333" y="1032.667"/>
      <point x="424" y="894" type="curve"/>
      <point x="420" y="894" type="line"/>
      <point x="424" y="1070" type="line"/>
      <point x="424" y="1070" type="line"/>
      <point x="424" y="1484" type="line"/>
      <point x="349" y="1484" type="line"/>
      <point x="0" y="1276" type="line"/>
    </contour>
    <contour>
      <point x="874" y="545" type="curve" smooth="yes"/>
      <point x="874.0" y="296.0"/>
      <point x="799.667" y="172"/>
      <point x="651" y="172" type="curve" smooth="yes"/>
      <point x="499" y="172"/>
      <point x="420" y="306.667"/>
      <point x="420" y="536" type="curve" smooth="yes"/>
      <point x="420" y="776"/>
      <point x="501" y="907"/>
      <point x="653" y="907" type="curve" smooth="yes"/>
      <point x="803.667" y="907"/>
      <point x="874" y="790"/>
    </contour>
  </outline>
</glyph>
<glyph name="uni0186" format="2">
  <advance width="1479"/>
  <unicode hex="0186"/>
  <note>
uni0186
</note>
  <outline>
    <contour>
      <point x="684" y="1198" type="qcurve" smooth="yes"/>
      <point x="885" y="1198"/>
      <point x="1098" y="942"/>
      <point x="1098" y="699" type="qcurve" smooth="yes"/>
      <point x="1098" y="460"/>
      <point x="891" y="212"/>
      <point x="691" y="212" type="qcurve" smooth="yes"/>
      <point x="560" y="212"/>
      <point x="367" y="337"/>
      <point x="334" y="443" type="qcurve"/>
      <point x="74" y="372" type="line"/>
      <point x="137" y="179"/>
      <point x="449" y="-20"/>
      <point x="697" y="-20" type="qcurve" smooth="yes"/>
      <point x="1037" y="-20"/>
      <point x="1395" y="352"/>
      <point x="1395" y="699" type="qcurve" smooth="yes"/>
      <point x="1395" y="1045"/>
      <point x="1024" y="1430"/>
      <point x="684" y="1430" type="qcurve" smooth="yes"/>
      <point x="460" y="1430"/>
      <point x="139" y="1231"/>
      <point x="56" y="1027" type="qcurve"/>
      <point x="313" y="930" type="line"/>
      <point x="417" y="1198"/>
    </contour>
  </outline>
</glyph>
<glyph name="uni0187" format="2">
  <advance width="1479"/>
  <unicode hex="0187"/>
  <note>
uni0187
</note>
  <outline>
    <contour>
      <point x="1145" y="967" type="qcurve"/>
      <point x="1405" y="1038" type="line"/>
      <point x="1405" y="1357" type="line" smooth="yes"/>
      <point x="1405" y="1429"/>
      <point x="1458" y="1498"/>
      <point x="1517" y="1498" type="qcurve" smooth="yes"/>
      <point x="1547" y="1498"/>
      <point x="1605" y="1486" type="qcurve"/>
      <point x="1605" y="1690" type="line"/>
      <point x="1528" y="1707"/>
      <point x="1453" y="1707" type="qcurve" smooth="yes"/>
      <point x="1305" y="1707"/>
      <point x="1139" y="1559"/>
      <point x="1139" y="1417" type="qcurve" smooth="yes"/>
      <point x="1139" y="1357" type="line"/>
      <point x="993" y="1430"/>
      <point x="782" y="1430" type="qcurve" smooth="yes"/>
      <point x="442" y="1430"/>
      <point x="84" y="1058"/>
      <point x="84" y="711" type="qcurve" smooth="yes"/>
      <point x="84" y="365"/>
      <point x="455" y="-20"/>
      <point x="795" y="-20" type="qcurve" smooth="yes"/>
      <point x="1020" y="-20"/>
      <point x="1342" y="181"/>
      <point x="1423" y="383" type="qcurve"/>
      <point x="1166" y="480" type="line"/>
      <point x="1108" y="338"/>
      <point x="922" y="212"/>
      <point x="795" y="212" type="qcurve" smooth="yes"/>
      <point x="594" y="212"/>
      <point x="381" y="468"/>
      <point x="381" y="711" type="qcurve" smooth="yes"/>
      <point x="381" y="950"/>
      <point x="588" y="1198"/>
      <point x="788" y="1198" type="qcurve" smooth="yes"/>
      <point x="919" y="1198"/>
      <point x="1112" y="1073"/>
    </contour>
  </outline>
</glyph>
<glyph name="uni0188" format="2">
  <advance width="1139"/>
  <unicode hex="0188"/>
  <note>
uni0188
</note>
  <outline>
    <contour>
      <point x="788" y="727" type="curve"/>
      <point x="788" y="727" type="line"/>
      <point x="1071" y="741" type="line"/>
      <point x="1071" y="981" type="line" smooth="yes"/>
      <point x="1071" y="1077"/>
      <point x="1104.333" y="1122"/>
      <point x="1183" y="1122" type="curve" smooth="yes"/>
      <point x="1203" y="1122"/>
      <point x="1232.333" y="1118"/>
      <point x="1271" y="1110" type="curve"/>
      <point x="1271" y="1311" type="line"/>
      <point x="1219.667" y="1322.333"/>
      <point x="1169" y="1328"/>
      <point x="1119" y="1328" type="curve" smooth="yes"/>
      <point x="929.667" y="1328"/>
      <point x="822.667" y="1238.667"/>
      <point x="812" y="1064" type="curve"/>
      <point x="747.333" y="1089.333"/>
      <point x="676" y="1102"/>
      <point x="598" y="1102" type="curve" smooth="yes"/>
      <point x="267.333" y="1102"/>
      <point x="80" y="892.333"/>
      <point x="80" y="535" type="curve" smooth="yes"/>
      <point x="80" y="185.667"/>
      <point x="266" y="-20"/>
      <point x="594" y="-20" type="curve" smooth="yes"/>
      <point x="862.369064892252" y="-20.0"/>
      <point x="1049.0821753418263" y="138.60809752951425"/>
      <point x="1079" y="360" type="curve"/>
      <point x="797" y="373" type="line"/>
      <point x="779.667" y="239.667"/>
      <point x="702.667" y="172"/>
      <point x="596" y="172" type="curve" smooth="yes"/>
      <point x="448.667" y="172"/>
      <point x="375" y="296.667"/>
      <point x="375" y="546" type="curve" smooth="yes"/>
      <point x="375" y="788"/>
      <point x="447.333" y="909"/>
      <point x="592" y="909" type="curve" smooth="yes"/>
      <point x="709.333" y="909"/>
      <point x="772" y="837.667"/>
    </contour>
  </outline>
</glyph>
